SplineFontDB: 3.0
FontName: Antonio-Bold
FullName: Antonio Bold
FamilyName: Antonio
Weight: Bold
Copyright: Copyright (c) 2011-12, vernon adams (vern@newtypography.co.uk), with Reserved Font Names 'Antonio'
Version: 1
ItalicAngle: 0
UnderlinePosition: 0
UnderlineWidth: 0
Ascent: 1638
Descent: 410
sfntRevision: 0x00010000
LayerCount: 2
Layer: 0 1 "Back"  1
Layer: 1 1 "Fore"  0
XUID: [1021 865 679097947 14990629]
FSType: 0
OS2Version: 4
OS2_WeightWidthSlopeOnly: 0
OS2_UseTypoMetrics: 1
CreationTime: 1358482287
ModificationTime: 1362109169
PfmFamily: 17
TTFWeight: 700
TTFWidth: 1
LineGap: 0
VLineGap: 0
Panose: 2 0 8 3 0 0 0 0 0 0
OS2TypoAscent: 2342
OS2TypoAOffset: 0
OS2TypoDescent: -612
OS2TypoDOffset: 0
OS2TypoLinegap: 0
OS2WinAscent: 2342
OS2WinAOffset: 0
OS2WinDescent: 612
OS2WinDOffset: 0
HheadAscent: 2342
HheadAOffset: 0
HheadDescent: -612
HheadDOffset: 0
OS2SubXSize: 1331
OS2SubYSize: 1433
OS2SubXOff: 0
OS2SubYOff: 286
OS2SupXSize: 1331
OS2SupYSize: 1433
OS2SupXOff: 0
OS2SupYOff: 983
OS2StrikeYSize: 102
OS2StrikeYPos: 530
OS2Vendor: 'newt'
OS2CodePages: 20000093.00000000
OS2UnicodeRanges: a00000ef.5000204b.00000000.00000000
Lookup: 258 0 0 "'kern' Horizontal Kerning in Latin lookup 0"  {"'kern' Horizontal Kerning in Latin lookup 0 per glyph data 0"  "'kern' Horizontal Kerning in Latin lookup 0 kerning class 1"  } ['kern' ('DFLT' <'dflt' > 'latn' <'dflt' > ) ]
MarkAttachClasses: 1
DEI: 91125
KernClass2: 21 27 "'kern' Horizontal Kerning in Latin lookup 0 kerning class 1" 
 89 A Agrave Aacute Acircumflex Atilde Adieresis Aring Amacron Abreve Aogonek uni0200 uni0202
 9 B uni1E02
 27 D Eth Dcaron Dcroat uni1E0A
 9 F uni1E1E
 52 G Gcircumflex Gbreve Gdotaccent Gcommaaccent uni01F4
 13 J Jcircumflex
 14 K Kcommaaccent
 28 L Lacute Lcommaaccent Lcaron
 9 P uni1E56
 44 R Racute Rcommaaccent Rcaron uni0210 uni0212
 1 V
 37 W Wcircumflex Wgrave Wacute Wdieresis
 37 Y Yacute Ycircumflex Ydieresis Ygrave
 9 f uni1E1F
 52 g gcircumflex gbreve gdotaccent gcommaaccent uni01F5

StartChar: .notdef
Encoding: 65536 -1 0
Width: 748
Flags: W
LayerCount: 2
UndoRedoHistory
Layer: 1
Undoes
EndUndoes
Redoes
EndRedoes
EndUndoRedoHistory
Fore
SplineSet
136 68 m 1,0,-1
 544 68 l 1,1,-1
 544 1297 l 1,2,-1
 136 1297 l 1,3,-1
 136 68 l 1,0,-1
68 0 m 1,4,-1
 68 1365 l 1,5,-1
 612 1365 l 1,6,-1
 612 0 l 1,7,-1
 68 0 l 1,4,-1
EndSplineSet
EndChar

StartChar: exclam
Encoding: 33 33 4
Width: 514
Flags: W
LayerCount: 2
UndoRedoHistory
Layer: 1
Undoes
EndUndoes
Redoes
EndRedoes
EndUndoRedoHistory
Fore
SplineSet
126 0 m 1,0,-1
 126 256 l 1,1,-1
 386 256 l 1,2,-1
 386 0 l 1,3,-1
 126 0 l 1,0,-1
204 423 m 1,4,-1
 115 1761 l 1,5,-1
 399 1761 l 1,6,-1
 314 423 l 1,7,-1
 204 423 l 1,4,-1
EndSplineSet
EndChar

StartChar: quotedbl
Encoding: 34 34 5
Width: 944
Flags: W
LayerCount: 2
UndoRedoHistory
Layer: 1
Undoes
EndUndoes
Redoes
EndRedoes
EndUndoRedoHistory
Fore
SplineSet
241 1125 m 1,0,-1
 170 1761 l 1,1,-1
 415 1761 l 1,2,-1
 349 1125 l 1,3,-1
 241 1125 l 1,0,-1
606 1125 m 1,4,-1
 536 1761 l 1,5,-1
 780 1761 l 1,6,-1
 714 1125 l 1,7,-1
 606 1125 l 1,4,-1
EndSplineSet
EndChar

StartChar: numbersign
Encoding: 35 35 6
Width: 1288
Flags: W
LayerCount: 2
UndoRedoHistory
Layer: 1
Undoes
EndUndoes
Redoes
EndRedoes
EndUndoRedoHistory
Fore
SplineSet
153 0 m 1,0,-1
 266 579 l 1,1,-1
 140 579 l 1,2,-1
 140 753 l 1,3,-1
 300 753 l 1,4,-1
 355 1031 l 1,5,-1
 207 1031 l 1,6,-1
 207 1204 l 1,7,-1
 389 1204 l 1,8,-1
 501 1762 l 1,9,-1
 718 1762 l 1,10,-1
 605 1204 l 1,11,-1
 793 1204 l 1,12,-1
 905 1762 l 1,13,-1
 1122 1762 l 1,14,-1
 1011 1204 l 1,15,-1
 1134 1204 l 1,16,-1
 1134 1031 l 1,17,-1
 977 1031 l 1,18,-1
 922 753 l 1,19,-1
 1067 753 l 1,20,-1
 1067 579 l 1,21,-1
 887 579 l 1,22,-1
 773 0 l 1,23,-1
 557 0 l 1,24,-1
 670 579 l 1,25,-1
 482 579 l 1,26,-1
 369 0 l 1,27,-1
 153 0 l 1,0,-1
516 752 m 1,28,-1
 705 752 l 1,29,-1
 760 1028 l 1,30,-1
 571 1028 l 1,31,-1
 516 752 l 1,28,-1
EndSplineSet
EndChar

StartChar: dollar
Encoding: 36 36 7
Width: 902
Flags: W
LayerCount: 2
UndoRedoHistory
Layer: 1
Undoes
EndUndoes
Redoes
EndRedoes
EndUndoRedoHistory
Fore
SplineSet
801 387 m 0,0,1
 801 62 801 62 549 12 c 1,2,-1
 549 -220 l 1,3,-1
 405 -220 l 1,4,-1
 405 4 l 1,5,6
 251 14 251 14 169 113 c 128,-1,7
 87 212 87 212 87 443 c 2,8,-1
 87 540 l 1,9,-1
 336 540 l 1,10,-1
 336 419 l 2,11,12
 336 219 336 219 438 219 c 0,13,14
 492 219 492 219 516 254.5 c 128,-1,15
 540 290 540 290 540 375 c 0,16,17
 540 525 540 525 402 653 c 0,18,19
 398 657 398 657 337.5 711 c 128,-1,20
 277 765 277 765 267 775 c 0,21,22
 82 944 82 944 82 1172 c 0,23,24
 82 1519 82 1519 396 1539 c 1,25,-1
 396 1760 l 1,26,-1
 540 1760 l 1,27,-1
 540 1530 l 1,28,29
 638 1508 638 1508 694 1440 c 0,30,31
 775 1341 775 1341 775 1111 c 0,32,33
 775 1108 775 1108 775 1105 c 1,34,-1
 775 1023 l 1,35,-1
 538 1023 l 1,36,-1
 538 1122 l 2,37,38
 538 1224 538 1224 515 1273.5 c 128,-1,39
 492 1323 492 1323 438.5 1323 c 128,-1,40
 385 1323 385 1323 359.5 1292 c 128,-1,41
 334 1261 334 1261 334 1186 c 0,42,43
 334 1067 334 1067 440 965 c 1,44,-1
 582 836 l 1,45,46
 801 632 801 632 801 387 c 0,0,1
EndSplineSet
EndChar

StartChar: percent
Encoding: 37 37 8
Width: 2209
Flags: W
LayerCount: 2
UndoRedoHistory
Layer: 1
Undoes
EndUndoes
Redoes
EndRedoes
EndUndoRedoHistory
Fore
SplineSet
468 768 m 128,-1,1
 531 768 531 768 555.5 807.5 c 128,-1,2
 580 847 580 847 580 939 c 2,3,-1
 580 1431 l 2,4,5
 580 1521 580 1521 557 1557.5 c 128,-1,6
 534 1594 534 1594 468.5 1594 c 128,-1,7
 403 1594 403 1594 379.5 1557.5 c 128,-1,8
 356 1521 356 1521 356 1431 c 2,9,-1
 356 939 l 2,10,11
 356 847 356 847 380.5 807.5 c 128,-1,0
 405 768 405 768 468 768 c 128,-1,1
468 580 m 128,-1,13
 291 580 291 580 210.5 682.5 c 128,-1,14
 130 785 130 785 130 1005 c 2,15,-1
 130 1363 l 2,16,17
 130 1586 130 1586 207.5 1683.5 c 128,-1,18
 285 1781 285 1781 468 1781 c 128,-1,19
 651 1781 651 1781 728.5 1683.5 c 128,-1,20
 806 1586 806 1586 806 1363 c 2,21,-1
 806 1005 l 2,22,23
 806 785 806 785 725.5 682.5 c 128,-1,12
 645 580 645 580 468 580 c 128,-1,13
1653.5 206.5 m 128,-1,25
 1678 167 1678 167 1741.5 167 c 128,-1,26
 1805 167 1805 167 1829.5 207 c 128,-1,27
 1854 247 1854 247 1854 338 c 2,28,-1
 1854 830 l 2,29,30
 1854 920 1854 920 1830.5 956.5 c 128,-1,31
 1807 993 1807 993 1741.5 993 c 128,-1,32
 1676 993 1676 993 1652.5 956.5 c 128,-1,33
 1629 920 1629 920 1629 830 c 2,34,-1
 1629 338 l 2,35,24
 1629 246 1629 246 1653.5 206.5 c 128,-1,25
1999.5 81.5 m 128,-1,37
 1919 -21 1919 -21 1741.5 -21 c 128,-1,38
 1564 -21 1564 -21 1483.5 81.5 c 128,-1,39
 1403 184 1403 184 1403 404 c 2,40,-1
 1403 762 l 2,41,42
 1403 985 1403 985 1480.5 1082.5 c 128,-1,43
 1558 1180 1558 1180 1741 1180 c 128,-1,44
 1924 1180 1924 1180 2002 1082.5 c 128,-1,45
 2080 985 2080 985 2080 762 c 2,46,-1
 2080 404 l 2,47,36
 2080 184 2080 184 1999.5 81.5 c 128,-1,37
662 0 m 1,48,-1
 1347 1761 l 1,49,-1
 1551 1761 l 1,50,-1
 875 0 l 1,51,-1
 662 0 l 1,48,-1
EndSplineSet
EndChar

StartChar: ampersand
Encoding: 38 38 9
Width: 1052
Flags: W
LayerCount: 2
UndoRedoHistory
Layer: 1
Undoes
EndUndoes
Redoes
EndRedoes
EndUndoRedoHistory
Fore
SplineSet
442 706 m 1,0,1
 300 516 300 516 300 388 c 1,2,3
 336 252 336 252 439 209 c 1,4,5
 481 209 481 209 518 243 c 128,-1,6
 555 277 555 277 597 346 c 1,7,8
 518 524 518 524 442 706 c 1,0,1
351 930 m 1,9,10
 208 1300 208 1300 208 1449 c 128,-1,11
 208 1598 208 1598 295 1689.5 c 128,-1,12
 382 1781 382 1781 535 1781 c 128,-1,13
 688 1781 688 1781 767.5 1692 c 128,-1,14
 847 1603 847 1603 847 1454.5 c 128,-1,15
 847 1306 847 1306 785.5 1184.5 c 128,-1,16
 724 1063 724 1063 613 922 c 1,17,18
 656 809 656 809 742 601 c 1,19,20
 838 762 838 762 932 874 c 1,21,-1
 1041 690 l 1,22,23
 963 604 963 604 852 391 c 0,24,25
 844 376 844 376 840 369 c 1,26,27
 878 279 878 279 932.5 153 c 128,-1,28
 987 27 987 27 998 0 c 1,29,-1
 750 0 l 1,30,31
 737 32 737 32 693 130 c 1,32,33
 568 -20 568 -20 405.5 -20 c 128,-1,34
 243 -20 243 -20 158 83.5 c 128,-1,35
 73 187 73 187 73 356 c 128,-1,36
 73 525 73 525 153 658.5 c 128,-1,37
 233 792 233 792 351 930 c 1,9,10
530 1144 m 1,38,39
 662 1315 662 1315 662 1438 c 0,40,41
 662 1526 662 1526 640 1563 c 128,-1,42
 618 1600 618 1600 561 1600 c 0,43,44
 451 1600 451 1600 451 1441 c 0,45,46
 451 1368 451 1368 530 1144 c 1,38,39
EndSplineSet
EndChar

StartChar: quotesingle
Encoding: 39 39 10
Width: 423
Flags: W
LayerCount: 2
UndoRedoHistory
Layer: 1
Undoes
EndUndoes
Redoes
EndRedoes
EndUndoRedoHistory
Fore
SplineSet
160 1125 m 1,0,-1
 100 1761 l 1,1,-1
 338 1761 l 1,2,-1
 273 1125 l 1,3,-1
 160 1125 l 1,0,-1
EndSplineSet
EndChar

StartChar: parenleft
Encoding: 40 40 11
Width: 619
Flags: W
LayerCount: 2
UndoRedoHistory
Layer: 1
Undoes
EndUndoes
Redoes
EndRedoes
EndUndoRedoHistory
Fore
SplineSet
534 -136 m 1,0,1
 417 -136 417 -136 344 -117 c 128,-1,2
 271 -98 271 -98 220.5 -47.5 c 128,-1,3
 170 3 170 3 149.5 89.5 c 128,-1,4
 129 176 129 176 129 313 c 2,5,-1
 129 1374 l 2,6,7
 129 1511 129 1511 149.5 1597.5 c 128,-1,8
 170 1684 170 1684 220.5 1734.5 c 128,-1,9
 271 1785 271 1785 344 1804 c 128,-1,10
 417 1823 417 1823 534 1823 c 1,11,-1
 534 1623 l 1,12,13
 445 1623 445 1623 420 1576.5 c 128,-1,14
 395 1530 395 1530 395 1378 c 2,15,-1
 395 309 l 2,16,17
 395 157 395 157 420 110.5 c 128,-1,18
 445 64 445 64 534 64 c 1,19,-1
 534 -136 l 1,0,1
EndSplineSet
EndChar

StartChar: parenright
Encoding: 41 41 12
Width: 619
Flags: W
LayerCount: 2
UndoRedoHistory
Layer: 1
Undoes
EndUndoes
Redoes
EndRedoes
EndUndoRedoHistory
Fore
SplineSet
86 -136 m 1,0,-1
 86 64 l 1,1,2
 175 64 175 64 200 110.5 c 128,-1,3
 225 157 225 157 225 309 c 2,4,-1
 225 1378 l 2,5,6
 225 1530 225 1530 200 1576.5 c 128,-1,7
 175 1623 175 1623 86 1623 c 1,8,-1
 86 1823 l 1,9,10
 203 1823 203 1823 276 1804 c 128,-1,11
 349 1785 349 1785 399 1734.5 c 128,-1,12
 449 1684 449 1684 469.5 1597.5 c 128,-1,13
 490 1511 490 1511 490 1374 c 2,14,-1
 490 313 l 2,15,16
 490 176 490 176 469.5 89.5 c 128,-1,17
 449 3 449 3 399 -47.5 c 128,-1,18
 349 -98 349 -98 276 -117 c 128,-1,19
 203 -136 203 -136 86 -136 c 1,0,-1
EndSplineSet
EndChar

StartChar: asterisk
Encoding: 42 42 13
Width: 960
Flags: W
LayerCount: 2
UndoRedoHistory
Layer: 1
Undoes
EndUndoes
Redoes
EndRedoes
EndUndoRedoHistory
Fore
SplineSet
386 889 m 1,0,-1
 421 1180 l 1,1,-1
 190 998 l 1,2,-1
 95 1162 l 1,3,-1
 355 1285 l 1,4,-1
 91 1400 l 1,5,-1
 186 1564 l 1,6,-1
 420 1391 l 1,7,-1
 386 1673 l 1,8,-1
 574 1673 l 1,9,-1
 546 1395 l 1,10,-1
 774 1568 l 1,11,-1
 869 1404 l 1,12,-1
 605 1285 l 1,13,-1
 869 1158 l 1,14,-1
 774 995 l 1,15,-1
 546 1174 l 1,16,-1
 574 889 l 1,17,-1
 386 889 l 1,0,-1
EndSplineSet
EndChar

StartChar: plus
Encoding: 43 43 14
Width: 808
Flags: W
LayerCount: 2
UndoRedoHistory
Layer: 1
Undoes
EndUndoes
Redoes
EndRedoes
EndUndoRedoHistory
Fore
SplineSet
312 421 m 1,0,-1
 312 654 l 1,1,-1
 94 654 l 1,2,-1
 94 831 l 1,3,-1
 312 831 l 1,4,-1
 312 1062 l 1,5,-1
 494 1062 l 1,6,-1
 494 831 l 1,7,-1
 713 831 l 1,8,-1
 713 654 l 1,9,-1
 494 654 l 1,10,-1
 494 421 l 1,11,-1
 312 421 l 1,0,-1
EndSplineSet
EndChar

StartChar: comma
Encoding: 44 44 15
Width: 488
Flags: W
LayerCount: 2
UndoRedoHistory
Layer: 1
Undoes
EndUndoes
Redoes
EndRedoes
EndUndoRedoHistory
Fore
SplineSet
172 -338 m 1,0,-1
 242 0 l 1,1,-1
 117 0 l 1,2,-1
 117 268 l 1,3,-1
 405 268 l 1,4,-1
 405 9 l 1,5,-1
 303 -338 l 1,6,-1
 172 -338 l 1,0,-1
EndSplineSet
EndChar

StartChar: hyphen
Encoding: 45 45 16
Width: 696
Flags: W
LayerCount: 2
UndoRedoHistory
Layer: 1
Undoes
EndUndoes
Redoes
EndRedoes
EndUndoRedoHistory
Fore
SplineSet
89 661 m 1,0,-1
 89 836 l 1,1,-1
 567 836 l 1,2,-1
 567 661 l 1,3,-1
 89 661 l 1,0,-1
EndSplineSet
EndChar

StartChar: period
Encoding: 46 46 17
Width: 532
Flags: W
LayerCount: 2
UndoRedoHistory
Layer: 1
Undoes
EndUndoes
Redoes
EndRedoes
EndUndoRedoHistory
Fore
SplineSet
149 0 m 1,0,-1
 149 246 l 1,1,-1
 374 246 l 1,2,-1
 374 0 l 1,3,-1
 149 0 l 1,0,-1
EndSplineSet
EndChar

StartChar: slash
Encoding: 47 47 18
Width: 826
Flags: W
LayerCount: 2
UndoRedoHistory
Layer: 1
Undoes
EndUndoes
Redoes
EndRedoes
EndUndoRedoHistory
Fore
SplineSet
86 0 m 1,0,-1
 513 1769 l 1,1,-1
 748 1769 l 1,2,-1
 320 0 l 1,3,-1
 86 0 l 1,0,-1
EndSplineSet
EndChar

StartChar: zero
Encoding: 48 48 19
Width: 1010
Flags: W
LayerCount: 2
UndoRedoHistory
Layer: 1
Undoes
EndUndoes
Redoes
EndRedoes
EndUndoRedoHistory
Fore
SplineSet
596.5 259.5 m 128,-1,1
 631 309 631 309 631 470 c 2,2,-1
 631 1327 l 1,3,4
 630 1522 630 1522 540 1546 c 0,5,6
 522 1550 522 1550 482.5 1550 c 128,-1,7
 443 1550 443 1550 406.5 1511 c 128,-1,8
 370 1472 370 1472 370 1328 c 2,9,-1
 370 470 l 2,10,11
 370 306 370 306 402.5 258 c 128,-1,12
 435 210 435 210 498.5 210 c 128,-1,0
 562 210 562 210 596.5 259.5 c 128,-1,1
501 -21 m 128,-1,14
 292 -21 292 -21 197.5 105 c 128,-1,15
 103 231 103 231 103 475 c 2,16,-1
 103 1316 l 2,17,18
 103 1548 103 1548 198.5 1664.5 c 128,-1,19
 294 1781 294 1781 501 1781 c 128,-1,20
 708 1781 708 1781 803.5 1664.5 c 128,-1,21
 899 1548 899 1548 899 1316 c 2,22,-1
 899 475 l 2,23,24
 899 231 899 231 804.5 105 c 128,-1,13
 710 -21 710 -21 501 -21 c 128,-1,14
EndSplineSet
EndChar

StartChar: one
Encoding: 49 49 20
Width: 676
Flags: W
LayerCount: 2
UndoRedoHistory
Layer: 1
Undoes
EndUndoes
Redoes
EndRedoes
EndUndoRedoHistory
Fore
SplineSet
258 0 m 1,0,-1
 258 1428 l 1,1,2
 224 1387 224 1387 162 1364.5 c 128,-1,3
 100 1342 100 1342 40 1342 c 1,4,-1
 40 1541 l 1,5,6
 125 1553 125 1553 201.5 1610 c 128,-1,7
 278 1667 278 1667 318 1761 c 1,8,-1
 526 1761 l 1,9,-1
 526 0 l 1,10,-1
 258 0 l 1,0,-1
EndSplineSet
EndChar

StartChar: two
Encoding: 50 50 21
Width: 951
Flags: W
LayerCount: 2
UndoRedoHistory
Layer: 1
Undoes
EndUndoes
Redoes
EndRedoes
EndUndoRedoHistory
Fore
SplineSet
160 0 m 1,0,-1
 160 104 l 2,1,2
 160 242 160 242 205.5 375.5 c 128,-1,3
 251 509 251 509 348 679 c 0,4,5
 352 685 352 685 421 804 c 128,-1,6
 490 923 490 923 522 968 c 1,7,8
 600 1096 600 1096 600 1322.5 c 128,-1,9
 600 1549 600 1549 504 1549 c 0,10,11
 424 1549 424 1549 405 1423 c 0,12,13
 397 1369 397 1369 397 1288 c 2,14,-1
 397 1065 l 1,15,-1
 141 1065 l 1,16,-1
 141 1173 l 2,17,18
 141 1500 141 1500 202.5 1615 c 128,-1,19
 264 1730 264 1730 372 1762 c 0,20,21
 432 1780 432 1780 517 1780 c 128,-1,22
 602 1780 602 1780 670 1742 c 0,23,24
 736 1704 736 1704 776 1636 c 0,25,26
 854 1503 854 1503 854 1289.5 c 128,-1,27
 854 1076 854 1076 771 915 c 128,-1,28
 688 754 688 754 607 629 c 0,29,30
 459 400 459 400 415 210 c 1,31,-1
 821 210 l 1,32,-1
 821 0 l 1,33,-1
 160 0 l 1,0,-1
EndSplineSet
EndChar

StartChar: three
Encoding: 51 51 22
Width: 960
Flags: W
LayerCount: 2
UndoRedoHistory
Layer: 1
Undoes
EndUndoes
Redoes
EndRedoes
EndUndoRedoHistory
Fore
SplineSet
774 109.5 m 128,-1,1
 681 -20 681 -20 475.5 -20 c 128,-1,2
 270 -20 270 -20 187.5 98.5 c 128,-1,3
 105 217 105 217 105 474 c 2,4,-1
 105 589 l 1,5,-1
 356 589 l 1,6,-1
 356 467 l 2,7,8
 356 322 356 322 378.5 266 c 128,-1,9
 401 210 401 210 477 210 c 128,-1,10
 553 210 553 210 578.5 277.5 c 128,-1,11
 604 345 604 345 604 514.5 c 128,-1,12
 604 684 604 684 571 756 c 128,-1,13
 538 828 538 828 442 828 c 2,14,-1
 366 828 l 1,15,-1
 366 1032 l 1,16,-1
 440 1032 l 2,17,18
 534 1032 534 1032 569 1095.5 c 128,-1,19
 604 1159 604 1159 604 1304 c 128,-1,20
 604 1449 604 1449 574.5 1499 c 128,-1,21
 545 1549 545 1549 481 1549 c 128,-1,22
 417 1549 417 1549 391.5 1496.5 c 128,-1,23
 366 1444 366 1444 366 1314 c 2,24,-1
 366 1261 l 1,25,-1
 107 1261 l 1,26,-1
 107 1316 l 2,27,28
 107 1557 107 1557 192 1668.5 c 128,-1,29
 277 1780 277 1780 476.5 1780 c 128,-1,30
 676 1780 676 1780 770 1665 c 128,-1,31
 864 1550 864 1550 864 1316 c 0,32,33
 864 1171 864 1171 819 1072.5 c 128,-1,34
 774 974 774 974 683 941 c 1,35,36
 783 894 783 894 825 785 c 128,-1,37
 867 676 867 676 867 503 c 0,38,0
 867 239 867 239 774 109.5 c 128,-1,1
EndSplineSet
EndChar

StartChar: four
Encoding: 52 52 23
Width: 951
Flags: W
LayerCount: 2
UndoRedoHistory
Layer: 1
Undoes
EndUndoes
Redoes
EndRedoes
EndUndoRedoHistory
Fore
SplineSet
524 -1 m 1,0,-1
 524 310 l 1,1,-1
 90 310 l 1,2,-1
 90 507 l 1,3,-1
 477 1761 l 1,4,-1
 763 1761 l 1,5,-1
 763 526 l 1,6,-1
 899 526 l 1,7,-1
 899 310 l 1,8,-1
 763 310 l 1,9,-1
 763 -1 l 1,10,-1
 524 -1 l 1,0,-1
297 526 m 1,11,-1
 524 526 l 1,12,-1
 524 1395 l 1,13,-1
 297 526 l 1,11,-1
EndSplineSet
EndChar

StartChar: five
Encoding: 53 53 24
Width: 951
Flags: W
LayerCount: 2
UndoRedoHistory
Layer: 1
Undoes
EndUndoes
Redoes
EndRedoes
EndUndoRedoHistory
Fore
SplineSet
471 -20 m 0,0,1
 122 -20 122 -20 122 343 c 2,2,-1
 122 564 l 1,3,-1
 373 564 l 1,4,-1
 373 371 l 2,5,6
 373 249 373 249 420 220 c 0,7,8
 438 209 438 209 477 209 c 0,9,10
 479 209 479 209 483 209 c 1,11,12
 571 209 571 209 571 382 c 2,13,-1
 571 832 l 2,14,15
 571 928 571 928 551 975.5 c 128,-1,16
 531 1023 531 1023 473 1023 c 0,17,18
 369 1023 369 1023 369 852 c 1,19,-1
 133 862 l 1,20,-1
 133 1760 l 1,21,-1
 784 1760 l 1,22,-1
 784 1520 l 1,23,-1
 380 1520 l 1,24,-1
 380 1163 l 1,25,26
 399 1200 399 1200 448.5 1223 c 128,-1,27
 498 1246 498 1246 557 1246 c 0,28,29
 711 1246 711 1246 771 1110.5 c 128,-1,30
 831 975 831 975 831 680.5 c 128,-1,31
 831 386 831 386 810.5 271.5 c 128,-1,32
 790 157 790 157 750 97 c 0,33,34
 673 -20 673 -20 471 -20 c 0,0,1
EndSplineSet
EndChar

StartChar: six
Encoding: 54 54 25
Width: 951
Flags: W
LayerCount: 2
UndoRedoHistory
Layer: 1
Undoes
EndUndoes
Redoes
EndRedoes
EndUndoRedoHistory
Fore
SplineSet
370 1019 m 1,0,1
 433 1103 433 1103 589 1103 c 128,-1,2
 745 1103 745 1103 813 978 c 128,-1,3
 881 853 881 853 881 580 c 2,4,-1
 881 483 l 2,5,6
 881 229 881 229 801 104 c 128,-1,7
 721 -21 721 -21 499 -21 c 0,8,9
 225 -20 225 -20 148 188 c 0,10,11
 102 313 102 313 102 527 c 2,12,-1
 102 1250 l 2,13,14
 102 1632 102 1632 278 1732 c 0,15,16
 364 1780 364 1780 502 1781 c 1,17,18
 681 1781 681 1781 762.5 1679.5 c 128,-1,19
 844 1578 844 1578 845 1336 c 1,20,-1
 845 1245 l 1,21,-1
 595 1245 l 1,22,-1
 595 1281 l 2,23,24
 595 1440 595 1440 577 1494 c 128,-1,25
 559 1548 559 1548 487 1548 c 128,-1,26
 415 1548 415 1548 392.5 1490 c 128,-1,27
 370 1432 370 1432 370 1270 c 2,28,-1
 370 1019 l 1,0,1
499 212 m 128,-1,30
 571 212 571 212 596.5 259 c 128,-1,31
 622 306 622 306 622 434 c 2,32,-1
 622 601 l 2,33,34
 622 749 622 749 596.5 810 c 128,-1,35
 571 871 571 871 510 871 c 128,-1,36
 449 871 449 871 412.5 843.5 c 128,-1,37
 376 816 376 816 370 777 c 1,38,-1
 370 459 l 2,39,40
 370 328 370 328 398.5 270 c 128,-1,29
 427 212 427 212 499 212 c 128,-1,30
EndSplineSet
EndChar

StartChar: seven
Encoding: 55 55 26
Width: 951
Flags: W
LayerCount: 2
UndoRedoHistory
Layer: 1
Undoes
EndUndoes
Redoes
EndRedoes
EndUndoRedoHistory
Fore
SplineSet
500 1 m 1,0,-1
 208 1 l 1,1,2
 232 343 232 343 311.5 628 c 128,-1,3
 391 913 391 913 454.5 1097 c 128,-1,4
 518 1281 518 1281 544.5 1356.5 c 128,-1,5
 571 1432 571 1432 586.5 1474.5 c 128,-1,6
 602 1517 602 1517 604 1526 c 1,7,-1
 104 1526 l 1,8,-1
 104 1761 l 1,9,-1
 881 1761 l 1,10,-1
 881 1566 l 1,11,12
 876 1519 876 1519 849 1444.5 c 128,-1,13
 822 1370 822 1370 778 1255 c 0,14,15
 539 631 539 631 500 1 c 1,0,-1
EndSplineSet
EndChar

StartChar: eight
Encoding: 56 56 27
Width: 951
Flags: W
LayerCount: 2
UndoRedoHistory
Layer: 1
Undoes
EndUndoes
Redoes
EndRedoes
EndUndoRedoHistory
Fore
SplineSet
479 -21 m 128,-1,1
 287 -21 287 -21 191.5 90.5 c 128,-1,2
 96 202 96 202 93 431 c 0,3,4
 92 438 92 438 92 565.5 c 128,-1,5
 92 693 92 693 132 803 c 128,-1,6
 172 913 172 913 241 961 c 1,7,8
 100 1061 100 1061 100 1341 c 0,9,10
 100 1572 100 1572 189.5 1676.5 c 128,-1,11
 279 1781 279 1781 480.5 1781 c 128,-1,12
 682 1781 682 1781 769 1679 c 128,-1,13
 856 1577 856 1577 856 1341 c 0,14,15
 856 1058 856 1058 716 961 c 1,16,17
 782 913 782 913 820 802 c 128,-1,18
 858 691 858 691 858 557 c 2,19,-1
 858 436 l 1,20,21
 856 203 856 203 763.5 91 c 128,-1,0
 671 -21 671 -21 479 -21 c 128,-1,1
384 258.5 m 128,-1,23
 407 208 407 208 478.5 208 c 128,-1,24
 550 208 550 208 570 258.5 c 128,-1,25
 590 309 590 309 590 442 c 2,26,-1
 590 586 l 2,27,28
 590 856 590 856 480 856 c 0,29,30
 425 856 425 856 392.5 786 c 128,-1,31
 360 716 360 716 360 585 c 2,32,-1
 360 438 l 1,33,22
 361 309 361 309 384 258.5 c 128,-1,23
418 1056 m 0,34,35
 440 1034 440 1034 478 1034 c 0,36,37
 478 1033 478 1033 479 1033 c 0,38,39
 516 1033 516 1033 538 1056 c 0,40,41
 561 1079 561 1079 575 1142 c 128,-1,42
 589 1205 589 1205 589 1317 c 0,43,44
 589 1428 589 1428 577.5 1483.5 c 128,-1,45
 566 1539 566 1539 544 1556 c 128,-1,46
 522 1573 522 1573 479 1573 c 128,-1,47
 436 1573 436 1573 414 1554 c 0,48,49
 368 1516 368 1516 368 1311 c 128,-1,50
 368 1106 368 1106 418 1056 c 0,34,35
EndSplineSet
EndChar

StartChar: nine
Encoding: 57 57 28
Width: 951
Flags: W
LayerCount: 2
UndoRedoHistory
Layer: 1
Undoes
EndUndoes
Redoes
EndRedoes
EndUndoRedoHistory
Fore
SplineSet
734 105.5 m 128,-1,1
 645 -20 645 -20 457 -20 c 128,-1,2
 269 -20 269 -20 182 83 c 128,-1,3
 95 186 95 186 94 423 c 1,4,-1
 94 519 l 1,5,-1
 347 519 l 1,6,-1
 347 482 l 1,7,8
 348 319 348 319 369.5 264.5 c 128,-1,9
 391 210 391 210 451 210 c 128,-1,10
 511 210 511 210 525 234.5 c 128,-1,11
 539 259 539 259 548 282.5 c 128,-1,12
 557 306 557 306 557 438 c 2,13,-1
 557 701 l 1,14,15
 502 664 502 664 394 664 c 0,16,17
 216 664 216 664 141.5 793 c 128,-1,18
 67 922 67 922 67 1184 c 2,19,-1
 67 1248 l 2,20,21
 67 1576 67 1576 180 1689 c 0,22,23
 272 1781 272 1781 442.5 1781 c 128,-1,24
 613 1781 613 1781 693.5 1715.5 c 128,-1,25
 774 1650 774 1650 798.5 1534 c 128,-1,26
 823 1418 823 1418 823 1233 c 2,27,-1
 823 530 l 2,28,0
 823 231 823 231 734 105.5 c 128,-1,1
444 884 m 0,29,30
 543 884 543 884 557 970 c 1,31,-1
 557 1304 l 2,32,33
 557 1434 557 1434 533.5 1491 c 128,-1,34
 510 1548 510 1548 443.5 1548 c 128,-1,35
 377 1548 377 1548 353 1490 c 128,-1,36
 329 1432 329 1432 329 1301 c 2,37,-1
 329 1144 l 2,38,39
 329 998 329 998 352.5 941 c 128,-1,40
 376 884 376 884 444 884 c 0,29,30
EndSplineSet
EndChar

StartChar: colon
Encoding: 58 58 29
Width: 555
Flags: W
LayerCount: 2
UndoRedoHistory
Layer: 1
Undoes
EndUndoes
Redoes
EndRedoes
EndUndoRedoHistory
Fore
SplineSet
136 270 m 1,0,-1
 136 539 l 1,1,-1
 419 539 l 1,2,-1
 419 270 l 1,3,-1
 136 270 l 1,0,-1
136 1038 m 1,4,-1
 136 1307 l 1,5,-1
 419 1307 l 1,6,-1
 419 1038 l 1,7,-1
 136 1038 l 1,4,-1
EndSplineSet
EndChar

StartChar: semicolon
Encoding: 59 59 30
Width: 561
Flags: W
LayerCount: 2
UndoRedoHistory
Layer: 1
Undoes
EndUndoes
Redoes
EndRedoes
EndUndoRedoHistory
Fore
SplineSet
184 -107 m 1,0,-1
 262 255 l 1,1,-1
 132 255 l 1,2,-1
 132 533 l 1,3,-1
 435 533 l 1,4,-1
 435 264 l 1,5,-1
 326 -107 l 1,6,-1
 184 -107 l 1,0,-1
126 944 m 1,7,-1
 126 1250 l 1,8,-1
 427 1250 l 1,9,-1
 427 944 l 1,10,-1
 126 944 l 1,7,-1
EndSplineSet
EndChar

StartChar: less
Encoding: 60 60 31
Width: 730
Flags: W
LayerCount: 2
UndoRedoHistory
Layer: 1
Undoes
EndUndoes
Redoes
EndRedoes
EndUndoRedoHistory
Fore
SplineSet
638 238 m 1,0,-1
 65 607 l 1,1,-1
 65 899 l 1,2,-1
 638 1264 l 1,3,-1
 638 989 l 1,4,-1
 242 753 l 1,5,-1
 638 510 l 1,6,-1
 638 238 l 1,0,-1
EndSplineSet
EndChar

StartChar: equal
Encoding: 61 61 32
Width: 722
Flags: W
LayerCount: 2
UndoRedoHistory
Layer: 1
Undoes
EndUndoes
Redoes
EndRedoes
EndUndoRedoHistory
Fore
SplineSet
104 549 m 1,0,-1
 104 738 l 1,1,-1
 618 738 l 1,2,-1
 618 549 l 1,3,-1
 104 549 l 1,0,-1
104 892 m 1,4,-1
 104 1076 l 1,5,-1
 618 1076 l 1,6,-1
 618 892 l 1,7,-1
 104 892 l 1,4,-1
EndSplineSet
EndChar

StartChar: greater
Encoding: 62 62 33
Width: 730
Flags: W
LayerCount: 2
UndoRedoHistory
Layer: 1
Undoes
EndUndoes
Redoes
EndRedoes
EndUndoRedoHistory
Fore
SplineSet
90 238 m 1,0,-1
 90 513 l 1,1,-1
 486 749 l 1,2,-1
 90 992 l 1,3,-1
 90 1264 l 1,4,-1
 664 898 l 1,5,-1
 664 605 l 1,6,-1
 90 238 l 1,0,-1
EndSplineSet
EndChar

StartChar: question
Encoding: 63 63 34
Width: 897
Flags: W
LayerCount: 2
UndoRedoHistory
Layer: 1
Undoes
EndUndoes
Redoes
EndRedoes
EndUndoRedoHistory
Fore
SplineSet
251 494 m 1,0,-1
 251 810 l 1,1,2
 343 834 343 834 381 855.5 c 128,-1,3
 419 877 419 877 440.5 891.5 c 128,-1,4
 462 906 462 906 488 943 c 128,-1,5
 514 980 514 980 530.5 1049.5 c 128,-1,6
 547 1119 547 1119 547 1284 c 2,7,-1
 547 1350 l 2,8,9
 547 1476 547 1476 540 1494.5 c 128,-1,10
 533 1513 533 1513 521 1531 c 128,-1,11
 509 1549 509 1549 476 1549 c 0,12,13
 397 1549 397 1549 387 1474 c 0,14,15
 381 1426 381 1426 381 1336 c 2,16,-1
 381 1160 l 1,17,-1
 120 1160 l 1,18,-1
 120 1376 l 2,19,20
 120 1781 120 1781 465 1781 c 0,21,22
 653 1781 653 1781 730 1685 c 0,23,24
 781 1622 781 1622 798 1525 c 128,-1,25
 815 1428 815 1428 815 1300 c 0,26,27
 815 1274 815 1274 815 1272 c 0,28,29
 815 1261 815 1261 815 1250 c 0,30,31
 815.111111111 1241.11111111 815.111111111 1241.11111111 815.111111111 1232.27160494 c 0,32,33
 815.111111111 1161.55555556 815.111111111 1161.55555556 808 1094 c 0,34,35
 789 914 789 914 718 823 c 0,36,37
 645 730 645 730 487 684 c 1,38,-1
 487 494 l 1,39,-1
 251 494 l 1,0,-1
257 1 m 1,40,-1
 257 299 l 1,41,-1
 489 299 l 1,42,-1
 489 1 l 1,43,-1
 257 1 l 1,40,-1
EndSplineSet
EndChar

StartChar: at
Encoding: 64 64 35
Width: 1492
Flags: W
LayerCount: 2
UndoRedoHistory
Layer: 1
Undoes
EndUndoes
Redoes
EndRedoes
EndUndoRedoHistory
Fore
SplineSet
736 -59 m 0,0,1
 429 -59 429 -59 263 162 c 128,-1,2
 97 383 97 383 97 836 c 0,3,4
 97 1438 97 1438 411 1664 c 0,5,6
 573 1780 573 1780 813 1780 c 0,7,8
 1100 1780 1100 1780 1248 1553.5 c 128,-1,9
 1396 1327 1396 1327 1396 910 c 0,10,11
 1396 660 1396 660 1327 519 c 128,-1,12
 1258 378 1258 378 1114 378 c 0,13,14
 1050 378 1050 378 994 436.5 c 128,-1,15
 938 495 938 495 915 597 c 1,16,17
 896 486 896 486 844.5 423.5 c 128,-1,18
 793 361 793 361 719 361 c 0,19,20
 600 361 600 361 522.5 470 c 128,-1,21
 445 579 445 579 445 800.5 c 128,-1,22
 445 1022 445 1022 517.5 1152.5 c 128,-1,23
 590 1283 590 1283 717 1283 c 0,24,25
 776 1283 776 1283 824 1248 c 128,-1,26
 872 1213 872 1213 896 1161 c 1,27,-1
 927 1283 l 1,28,-1
 1056 1283 l 1,29,-1
 1056 739 l 2,30,31
 1056 640 1056 640 1072.5 592 c 128,-1,32
 1089 544 1089 544 1127.5 544 c 128,-1,33
 1166 544 1166 544 1186 580 c 0,34,35
 1226 650 1226 650 1227 942 c 1,36,37
 1227 1609 1227 1609 800 1609 c 0,38,39
 543 1609 543 1609 418 1407 c 128,-1,40
 293 1205 293 1205 293 831.5 c 128,-1,41
 293 458 293 458 403.5 284 c 128,-1,42
 514 110 514 110 739 110 c 0,43,44
 840 110 840 110 932 138 c 1,45,-1
 959 -30 l 1,46,47
 816 -59 816 -59 736 -59 c 0,0,1
761 1100 m 0,48,49
 618 1100 618 1100 618 804 c 0,50,51
 618 547 618 547 748 547 c 0,52,53
 806 547 806 547 847 605.5 c 128,-1,54
 888 664 888 664 888 759 c 2,55,-1
 888 1062 l 1,56,57
 814 1100 814 1100 761 1100 c 0,48,49
EndSplineSet
EndChar

StartChar: A
Encoding: 65 65 36
Width: 976
Flags: W
LayerCount: 2
UndoRedoHistory
Layer: 1
Undoes
EndUndoes
Redoes
EndRedoes
EndUndoRedoHistory
Fore
SplineSet
604 529 m 1,0,-1
 486 1413 l 1,1,-1
 482 1413 l 1,2,-1
 374 529 l 1,3,-1
 604 529 l 1,0,-1
52 0 m 1,4,-1
 303 1760 l 1,5,-1
 657 1760 l 1,6,-1
 924 0 l 1,7,-1
 674 0 l 1,8,-1
 632 314 l 1,9,-1
 348 314 l 1,10,-1
 310 0 l 1,11,-1
 52 0 l 1,4,-1
EndSplineSet
EndChar

StartChar: B
Encoding: 66 66 37
Width: 996
Flags: W
LayerCount: 2
UndoRedoHistory
Layer: 1
Undoes
EndUndoes
Redoes
EndRedoes
EndUndoRedoHistory
Fore
SplineSet
885 1308 m 2,0,1
 885 1024 885 1024 731 959 c 1,2,3
 919 896 919 896 919 544 c 2,4,-1
 919 499 l 1,5,6
 917 234 917 234 826.5 117 c 128,-1,7
 736 0 736 0 531 0 c 2,8,-1
 142 0 l 1,9,-1
 142 1760 l 1,10,-1
 523 1760 l 2,11,12
 720 1760 720 1760 802 1668.5 c 128,-1,13
 884 1577 884 1577 885 1362 c 1,14,-1
 885 1308 l 2,0,1
410 208 m 1,15,-1
 505 208 l 2,16,17
 585 208 585 208 617 263 c 128,-1,18
 649 318 649 318 649 460 c 2,19,-1
 649 602 l 2,20,21
 649 736 649 736 623 791.5 c 128,-1,22
 597 847 597 847 523 847 c 2,23,-1
 410 847 l 1,24,-1
 410 208 l 1,15,-1
410 1048 m 1,25,-1
 509 1048 l 2,26,27
 578 1048 578 1048 599.5 1092 c 128,-1,28
 621 1136 621 1136 621 1273 c 2,29,-1
 621 1379 l 1,30,31
 620 1481 620 1481 593 1515.5 c 128,-1,32
 566 1550 566 1550 500 1550 c 2,33,-1
 410 1550 l 1,34,-1
 410 1048 l 1,25,-1
EndSplineSet
EndChar

StartChar: C
Encoding: 67 67 38
Width: 961
Flags: W
LayerCount: 2
UndoRedoHistory
Layer: 1
Undoes
EndUndoes
Redoes
EndRedoes
EndUndoRedoHistory
Fore
SplineSet
784 102.5 m 128,-1,1
 693 -20 693 -20 498 -20 c 128,-1,2
 303 -20 303 -20 206.5 110.5 c 128,-1,3
 110 241 110 241 110 486 c 2,4,-1
 110 1253 l 2,5,6
 110 1646 110 1646 316 1744 c 0,7,8
 392 1780 392 1780 500 1780 c 0,9,10
 871 1780 871 1780 871 1312 c 2,11,-1
 871 1070 l 1,12,-1
 612 1070 l 1,13,-1
 612 1295 l 2,14,15
 612 1431 612 1431 589 1489.5 c 128,-1,16
 566 1548 566 1548 499 1548 c 128,-1,17
 432 1548 432 1548 406 1486 c 128,-1,18
 380 1424 380 1424 380 1296 c 2,19,-1
 380 474 l 2,20,21
 380 332 380 332 405 271 c 128,-1,22
 430 210 430 210 496 210 c 128,-1,23
 562 210 562 210 587 272 c 128,-1,24
 612 334 612 334 612 477 c 2,25,-1
 612 729 l 1,26,-1
 875 729 l 1,27,-1
 875 480 l 2,28,0
 875 225 875 225 784 102.5 c 128,-1,1
EndSplineSet
EndChar

StartChar: D
Encoding: 68 68 39
Width: 1005
Flags: W
LayerCount: 2
UndoRedoHistory
Layer: 1
Undoes
EndUndoes
Redoes
EndRedoes
EndUndoRedoHistory
Fore
SplineSet
399 208 m 1,0,-1
 487 208 l 2,1,2
 561 208 561 208 594.5 256 c 128,-1,3
 628 304 628 304 628 432 c 2,4,-1
 627 1301 l 2,5,6
 627 1438 627 1438 593.5 1496 c 128,-1,7
 560 1554 560 1554 478 1554 c 2,8,-1
 399 1554 l 1,9,-1
 399 208 l 1,0,-1
131 0 m 1,10,-1
 131 1760 l 1,11,-1
 526 1760 l 2,12,13
 720 1760 720 1760 807.5 1645.5 c 128,-1,14
 895 1531 895 1531 895 1308 c 2,15,-1
 896 514 l 2,16,17
 896 248 896 248 808 124 c 128,-1,18
 720 0 720 0 517 0 c 2,19,-1
 131 0 l 1,10,-1
EndSplineSet
EndChar

StartChar: E
Encoding: 69 69 40
Width: 816
Flags: W
LayerCount: 2
UndoRedoHistory
Layer: 1
Undoes
EndUndoes
Redoes
EndRedoes
EndUndoRedoHistory
Fore
SplineSet
132 0 m 1,0,-1
 132 1760 l 1,1,-1
 722 1760 l 1,2,-1
 722 1529 l 1,3,-1
 400 1529 l 1,4,-1
 400 1017 l 1,5,-1
 706 1017 l 1,6,-1
 706 791 l 1,7,-1
 400 791 l 1,8,-1
 400 231 l 1,9,-1
 734 231 l 1,10,-1
 734 0 l 1,11,-1
 132 0 l 1,0,-1
EndSplineSet
EndChar

StartChar: F
Encoding: 70 70 41
Width: 796
Flags: W
LayerCount: 2
UndoRedoHistory
Layer: 1
Undoes
EndUndoes
Redoes
EndRedoes
EndUndoRedoHistory
Fore
SplineSet
131 0 m 1,0,-1
 131 1760 l 1,1,-1
 735 1760 l 1,2,-1
 735 1527 l 1,3,-1
 399 1527 l 1,4,-1
 399 1059 l 1,5,-1
 711 1059 l 1,6,-1
 711 825 l 1,7,-1
 399 825 l 1,8,-1
 399 0 l 1,9,-1
 131 0 l 1,0,-1
EndSplineSet
EndChar

StartChar: G
Encoding: 71 71 42
Width: 1000
Flags: W
LayerCount: 2
UndoRedoHistory
Layer: 1
Undoes
EndUndoes
Redoes
EndRedoes
EndUndoRedoHistory
Fore
SplineSet
463 -18 m 0,0,1
 297 -18 297 -18 203.5 112.5 c 128,-1,2
 110 243 110 243 110 515 c 2,3,-1
 110 1280 l 2,4,5
 110 1524 110 1524 205.5 1652 c 128,-1,6
 301 1780 301 1780 509 1780 c 0,7,8
 768 1780 768 1780 838 1587 c 0,9,10
 880 1471 880 1471 880 1270 c 2,11,-1
 880 1145 l 1,12,-1
 630 1145 l 1,13,-1
 630 1329 l 2,14,15
 630 1450 630 1450 604.5 1499 c 128,-1,16
 579 1548 579 1548 508.5 1548 c 128,-1,17
 438 1548 438 1548 409 1489.5 c 128,-1,18
 380 1431 380 1431 380 1282 c 2,19,-1
 380 519 l 2,20,21
 380 346 380 346 406 278 c 128,-1,22
 432 210 432 210 507.5 210 c 128,-1,23
 583 210 583 210 614.5 283 c 128,-1,24
 646 356 646 356 646 529 c 2,25,-1
 646 766 l 1,26,-1
 511 766 l 1,27,-1
 511 961 l 1,28,-1
 880 961 l 1,29,-1
 880 0 l 1,30,-1
 760 0 l 1,31,-1
 719 173 l 1,32,33
 698 84 698 84 627 33 c 128,-1,34
 556 -18 556 -18 463 -18 c 0,0,1
EndSplineSet
EndChar

StartChar: H
Encoding: 72 72 43
Width: 1040
Flags: W
LayerCount: 2
UndoRedoHistory
Layer: 1
Undoes
EndUndoes
Redoes
EndRedoes
EndUndoRedoHistory
Fore
SplineSet
132 0 m 1,0,-1
 132 1760 l 1,1,-1
 400 1760 l 1,2,-1
 400 1048 l 1,3,-1
 640 1048 l 1,4,-1
 640 1760 l 1,5,-1
 908 1760 l 1,6,-1
 908 0 l 1,7,-1
 640 0 l 1,8,-1
 640 818 l 1,9,-1
 400 818 l 1,10,-1
 400 0 l 1,11,-1
 132 0 l 1,0,-1
EndSplineSet
EndChar

StartChar: I
Encoding: 73 73 44
Width: 552
Flags: W
LayerCount: 2
UndoRedoHistory
Layer: 1
Undoes
EndUndoes
Redoes
EndRedoes
EndUndoRedoHistory
Fore
SplineSet
142 0 m 1,0,-1
 142 1760 l 1,1,-1
 410 1760 l 1,2,-1
 410 0 l 1,3,-1
 142 0 l 1,0,-1
EndSplineSet
EndChar

StartChar: J
Encoding: 74 74 45
Width: 922
Flags: W
LayerCount: 2
UndoRedoHistory
Layer: 1
Undoes
EndUndoes
Redoes
EndRedoes
EndUndoRedoHistory
Fore
SplineSet
699 97.5 m 128,-1,1
 604 -20 604 -20 431.5 -20 c 128,-1,2
 259 -20 259 -20 163.5 84.5 c 128,-1,3
 68 189 68 189 68 389 c 2,4,-1
 68 703 l 1,5,-1
 327 703 l 1,6,-1
 327 402 l 2,7,8
 327 256 327 256 374 224 c 0,9,10
 395 210 395 210 426 210 c 0,11,12
 487 210 487 210 506.5 260 c 128,-1,13
 526 310 526 310 526 418 c 2,14,-1
 526 1760 l 1,15,-1
 794 1760 l 1,16,-1
 794 431 l 2,17,0
 794 215 794 215 699 97.5 c 128,-1,1
EndSplineSet
EndChar

StartChar: K
Encoding: 75 75 46
Width: 970
Flags: W
LayerCount: 2
UndoRedoHistory
Layer: 1
Undoes
EndUndoes
Redoes
EndRedoes
EndUndoRedoHistory
Fore
SplineSet
132 0 m 1,0,-1
 132 1760 l 1,1,-1
 400 1760 l 1,2,-1
 400 950 l 1,3,-1
 668 1760 l 1,4,-1
 945 1760 l 1,5,-1
 653 892 l 1,6,-1
 968 0 l 1,7,-1
 685 0 l 1,8,-1
 402 822 l 1,9,-1
 402 0 l 1,10,-1
 132 0 l 1,0,-1
EndSplineSet
EndChar

StartChar: L
Encoding: 76 76 47
Width: 761
Flags: W
LayerCount: 2
UndoRedoHistory
Layer: 1
Undoes
EndUndoes
Redoes
EndRedoes
EndUndoRedoHistory
Fore
SplineSet
132 0 m 1,0,-1
 132 1760 l 1,1,-1
 400 1760 l 1,2,-1
 400 228 l 1,3,-1
 739 228 l 1,4,-1
 739 0 l 1,5,-1
 132 0 l 1,0,-1
EndSplineSet
EndChar

StartChar: M
Encoding: 77 77 48
Width: 1418
Flags: W
LayerCount: 2
UndoRedoHistory
Layer: 1
Undoes
EndUndoes
Redoes
EndRedoes
EndUndoRedoHistory
Fore
SplineSet
132 0 m 1,0,-1
 132 1760 l 1,1,-1
 465 1760 l 1,2,-1
 715 474 l 1,3,-1
 950 1760 l 1,4,-1
 1285 1760 l 1,5,-1
 1285 0 l 1,6,-1
 1046 0 l 1,7,-1
 1046 656 l 1,8,-1
 1056 1258 l 1,9,-1
 819 8 l 1,10,-1
 606 8 l 1,11,-1
 359 1258 l 1,12,-1
 369 656 l 1,13,-1
 369 0 l 1,14,-1
 132 0 l 1,0,-1
EndSplineSet
EndChar

StartChar: N
Encoding: 78 78 49
Width: 1069
Flags: W
LayerCount: 2
UndoRedoHistory
Layer: 1
Undoes
EndUndoes
Redoes
EndRedoes
EndUndoRedoHistory
Fore
SplineSet
132 0 m 1,0,-1
 132 1760 l 1,1,-1
 342 1760 l 1,2,-1
 715 704 l 1,3,-1
 696 1184 l 1,4,-1
 696 1760 l 1,5,-1
 937 1760 l 1,6,-1
 937 0 l 1,7,-1
 747 0 l 1,8,-1
 364 1093 l 1,9,-1
 379 631 l 1,10,-1
 379 0 l 1,11,-1
 132 0 l 1,0,-1
EndSplineSet
EndChar

StartChar: O
Encoding: 79 79 50
Width: 999
Flags: W
LayerCount: 2
UndoRedoHistory
Layer: 1
Undoes
EndUndoes
Redoes
EndRedoes
EndUndoRedoHistory
Fore
SplineSet
403.5 273 m 128,-1,1
 427 212 427 212 500 212 c 128,-1,2
 573 212 573 212 596 274.5 c 128,-1,3
 619 337 619 337 619 489 c 2,4,-1
 619 1309 l 2,5,6
 619 1434 619 1434 595.5 1491.5 c 128,-1,7
 572 1549 572 1549 503.5 1549 c 128,-1,8
 435 1549 435 1549 407.5 1491.5 c 128,-1,9
 380 1434 380 1434 380 1310 c 2,10,-1
 380 489 l 2,11,0
 380 334 380 334 403.5 273 c 128,-1,1
796 107 m 128,-1,13
 704 -20 704 -20 501.5 -20 c 128,-1,14
 299 -20 299 -20 204.5 107.5 c 128,-1,15
 110 235 110 235 110 492 c 2,16,-1
 110 1297 l 2,17,18
 110 1781 110 1781 505 1781 c 0,19,20
 709 1781 709 1781 798.5 1658 c 128,-1,21
 888 1535 888 1535 888 1297 c 2,22,-1
 888 492 l 2,23,12
 888 234 888 234 796 107 c 128,-1,13
EndSplineSet
EndChar

StartChar: P
Encoding: 80 80 51
Width: 944
Flags: W
LayerCount: 2
UndoRedoHistory
Layer: 1
Undoes
EndUndoes
Redoes
EndRedoes
EndUndoRedoHistory
Fore
SplineSet
132 0 m 1,0,-1
 132 1760 l 1,1,-1
 536 1760 l 2,2,3
 741 1760 741 1760 816.5 1635.5 c 128,-1,4
 892 1511 892 1511 896 1264 c 1,5,-1
 896 1227 l 2,6,7
 896 965 896 965 821.5 829.5 c 128,-1,8
 747 694 747 694 545 694 c 2,9,-1
 400 694 l 1,10,-1
 400 0 l 1,11,-1
 132 0 l 1,0,-1
400 915 m 1,12,-1
 492 915 l 2,13,14
 577 915 577 915 602.5 980.5 c 128,-1,15
 628 1046 628 1046 628 1230 c 2,16,-1
 628 1264 l 1,17,18
 627 1420 627 1420 600.5 1487 c 128,-1,19
 574 1554 574 1554 494 1554 c 2,20,-1
 400 1554 l 1,21,-1
 400 915 l 1,12,-1
EndSplineSet
EndChar

StartChar: Q
Encoding: 81 81 52
Width: 1009
Flags: W
LayerCount: 2
UndoRedoHistory
Layer: 1
Undoes
EndUndoes
Redoes
EndRedoes
EndUndoRedoHistory
Fore
SplineSet
888 492 m 2,0,1
 888 109 888 109 684 15 c 1,2,-1
 848 -177 l 1,3,-1
 716 -292 l 1,4,-1
 465 -19 l 1,5,6
 290 -8 290 -8 200 113.5 c 128,-1,7
 110 235 110 235 110 492 c 2,8,-1
 110 1297 l 2,9,10
 110 1781 110 1781 505 1781 c 0,11,12
 709 1781 709 1781 798.5 1658 c 128,-1,13
 888 1535 888 1535 888 1297 c 2,14,-1
 888 492 l 2,0,1
403.5 273 m 128,-1,16
 427 212 427 212 500 212 c 128,-1,17
 573 212 573 212 596 274.5 c 128,-1,18
 619 337 619 337 619 489 c 2,19,-1
 619 1309 l 2,20,21
 619 1434 619 1434 595.5 1491.5 c 128,-1,22
 572 1549 572 1549 503.5 1549 c 128,-1,23
 435 1549 435 1549 407.5 1491.5 c 128,-1,24
 380 1434 380 1434 380 1310 c 2,25,-1
 380 489 l 2,26,15
 380 334 380 334 403.5 273 c 128,-1,16
EndSplineSet
EndChar

StartChar: R
Encoding: 82 82 53
Width: 1010
Flags: W
LayerCount: 2
UndoRedoHistory
Layer: 1
Undoes
EndUndoes
Redoes
EndRedoes
EndUndoRedoHistory
Fore
SplineSet
486 827 m 1,0,-1
 400 831 l 1,1,-1
 400 0 l 1,2,-1
 132 0 l 1,3,-1
 132 1760 l 1,4,-1
 575 1760 l 2,5,6
 713 1760 713 1760 781 1704.5 c 128,-1,7
 849 1649 849 1649 870.5 1549.5 c 128,-1,8
 892 1450 892 1450 892 1289.5 c 128,-1,9
 892 1129 892 1129 858 1045 c 128,-1,10
 824 961 824 961 732 932 c 1,11,12
 823 916 823 916 859 809 c 128,-1,13
 895 702 895 702 895 363.5 c 128,-1,14
 895 25 895 25 905 0 c 1,15,-1
 637 0 l 1,16,17
 627 20 627 20 627 631 c 0,18,19
 627 748 627 748 599 786.5 c 128,-1,20
 571 825 571 825 486 827 c 1,0,-1
401 1039 m 1,21,-1
 508 1039 l 2,22,23
 559 1039 559 1039 583.5 1062 c 128,-1,24
 608 1085 608 1085 617.5 1141 c 128,-1,25
 627 1197 627 1197 627 1312 c 2,26,-1
 627 1323 l 2,27,28
 627 1466 627 1466 603 1510 c 128,-1,29
 579 1554 579 1554 492 1554 c 2,30,-1
 401 1554 l 1,31,-1
 401 1039 l 1,21,-1
EndSplineSet
EndChar

StartChar: S
Encoding: 83 83 54
Width: 905
Flags: W
LayerCount: 2
UndoRedoHistory
Layer: 1
Undoes
EndUndoes
Redoes
EndRedoes
EndUndoRedoHistory
Fore
SplineSet
97 495 m 2,0,-1
 97 652 l 1,1,-1
 351 652 l 1,2,-1
 351 475 l 2,3,4
 351 328 351 328 376 268.5 c 128,-1,5
 401 209 401 209 470 209 c 128,-1,6
 539 209 539 209 561.5 258 c 128,-1,7
 584 307 584 307 584 418 c 128,-1,8
 584 529 584 529 544 611.5 c 128,-1,9
 504 694 504 694 417 784 c 2,10,-1
 287 918 l 2,11,12
 196 1013 196 1013 145.5 1115 c 128,-1,13
 95 1217 95 1217 95 1351 c 0,14,15
 95 1569 95 1569 179 1675 c 128,-1,16
 263 1781 263 1781 468 1781 c 128,-1,17
 673 1781 673 1781 745.5 1657.5 c 128,-1,18
 818 1534 818 1534 818 1297 c 2,19,-1
 818 1188 l 1,20,-1
 571 1188 l 1,21,-1
 571 1314 l 2,22,23
 571 1442 571 1442 549 1497.5 c 128,-1,24
 527 1553 527 1553 464.5 1553 c 128,-1,25
 402 1553 402 1553 374.5 1511 c 128,-1,26
 347 1469 347 1469 347 1385 c 128,-1,27
 347 1301 347 1301 375 1251 c 128,-1,28
 403 1201 403 1201 476 1123 c 2,29,-1
 621 966 l 2,30,31
 730 848 730 848 785.5 727 c 128,-1,32
 841 606 841 606 841 463 c 0,33,34
 841 216 841 216 758 98 c 128,-1,35
 675 -20 675 -20 467.5 -20 c 128,-1,36
 260 -20 260 -20 178.5 111.5 c 128,-1,37
 97 243 97 243 97 495 c 2,0,-1
EndSplineSet
EndChar

StartChar: T
Encoding: 84 84 55
Width: 703
Flags: W
LayerCount: 2
UndoRedoHistory
Layer: 1
Undoes
EndUndoes
Redoes
EndRedoes
EndUndoRedoHistory
Fore
SplineSet
222 0 m 1,0,-1
 222 1528 l 1,1,-1
 16 1528 l 1,2,-1
 16 1760 l 1,3,-1
 687 1760 l 1,4,-1
 687 1528 l 1,5,-1
 489 1528 l 1,6,-1
 489 0 l 1,7,-1
 222 0 l 1,0,-1
EndSplineSet
EndChar

StartChar: U
Encoding: 85 85 56
Width: 1020
Flags: W
LayerCount: 2
UndoRedoHistory
Layer: 1
Undoes
EndUndoes
Redoes
EndRedoes
EndUndoRedoHistory
Fore
SplineSet
806 94.5 m 128,-1,1
 714 -20 714 -20 510.5 -20 c 128,-1,2
 307 -20 307 -20 214.5 95 c 128,-1,3
 122 210 122 210 122 452 c 2,4,-1
 122 1761 l 1,5,-1
 390 1761 l 1,6,-1
 390 457 l 2,7,8
 390 318 390 318 403 288 c 128,-1,9
 416 258 416 258 434.5 233.5 c 128,-1,10
 453 209 453 209 511 209 c 128,-1,11
 569 209 569 209 594 243 c 128,-1,12
 619 277 619 277 624.5 327.5 c 128,-1,13
 630 378 630 378 630 457 c 2,14,-1
 630 1761 l 1,15,-1
 898 1761 l 1,16,-1
 898 452 l 2,17,0
 898 209 898 209 806 94.5 c 128,-1,1
EndSplineSet
EndChar

StartChar: V
Encoding: 86 86 57
Width: 966
Flags: W
LayerCount: 2
UndoRedoHistory
Layer: 1
Undoes
EndUndoes
Redoes
EndRedoes
EndUndoRedoHistory
Fore
SplineSet
329 0 m 1,0,-1
 56 1760 l 1,1,-1
 311 1760 l 1,2,-1
 426 965 l 1,3,-1
 497 405 l 1,4,-1
 504 405 l 1,5,-1
 565 965 l 1,6,-1
 661 1760 l 1,7,-1
 911 1760 l 1,8,-1
 660 0 l 1,9,-1
 329 0 l 1,0,-1
EndSplineSet
EndChar

StartChar: W
Encoding: 87 87 58
Width: 1388
Flags: W
LayerCount: 2
UndoRedoHistory
Layer: 1
Undoes
EndUndoes
Redoes
EndRedoes
EndUndoRedoHistory
Fore
SplineSet
275 0 m 1,0,-1
 60 1760 l 1,1,-1
 300 1760 l 1,2,-1
 429 506 l 1,3,-1
 593 1760 l 1,4,-1
 809 1760 l 1,5,-1
 974 506 l 1,6,-1
 1088 1760 l 1,7,-1
 1329 1760 l 1,8,-1
 1127 0 l 1,9,-1
 860 0 l 1,10,-1
 704 1170 l 1,11,-1
 542 0 l 1,12,-1
 275 0 l 1,0,-1
EndSplineSet
EndChar

StartChar: X
Encoding: 88 88 59
Width: 879
Flags: W
LayerCount: 2
UndoRedoHistory
Layer: 1
Undoes
EndUndoes
Redoes
EndRedoes
EndUndoRedoHistory
Fore
SplineSet
618 0 m 1,0,-1
 439 541 l 1,1,-1
 294 0 l 1,2,-1
 35 0 l 1,3,-1
 306 944 l 1,4,-1
 36 1760 l 1,5,-1
 262 1760 l 1,6,-1
 437 1237 l 1,7,-1
 578 1760 l 1,8,-1
 829 1760 l 1,9,-1
 563 859 l 1,10,-1
 850 0 l 1,11,-1
 618 0 l 1,0,-1
EndSplineSet
EndChar

StartChar: Y
Encoding: 89 89 60
Width: 862
Flags: W
LayerCount: 2
UndoRedoHistory
Layer: 1
Undoes
EndUndoes
Redoes
EndRedoes
EndUndoRedoHistory
Fore
SplineSet
304 0 m 1,0,-1
 304 703 l 1,1,-1
 9 1760 l 1,2,-1
 265 1760 l 1,3,-1
 439 1102 l 1,4,-1
 443 1102 l 1,5,-1
 598 1760 l 1,6,-1
 853 1760 l 1,7,-1
 572 703 l 1,8,-1
 572 0 l 1,9,-1
 304 0 l 1,0,-1
EndSplineSet
EndChar

StartChar: Z
Encoding: 90 90 61
Width: 810
Flags: W
LayerCount: 2
UndoRedoHistory
Layer: 1
Undoes
EndUndoes
Redoes
EndRedoes
EndUndoRedoHistory
Fore
SplineSet
98 0 m 1,0,-1
 98 238 l 1,1,-1
 463 1529 l 1,2,-1
 131 1529 l 1,3,-1
 131 1760 l 1,4,-1
 744 1760 l 1,5,-1
 744 1543 l 1,6,-1
 379 231 l 1,7,-1
 736 231 l 1,8,-1
 736 0 l 1,9,-1
 98 0 l 1,0,-1
EndSplineSet
EndChar

StartChar: bracketleft
Encoding: 91 91 62
Width: 764
Flags: W
LayerCount: 2
UndoRedoHistory
Layer: 1
Undoes
EndUndoes
Redoes
EndRedoes
EndUndoRedoHistory
Fore
SplineSet
179 0 m 1,0,-1
 179 1761 l 1,1,-1
 650 1761 l 1,2,-1
 650 1552 l 1,3,-1
 445 1552 l 1,4,-1
 445 209 l 1,5,-1
 650 209 l 1,6,-1
 650 0 l 1,7,-1
 179 0 l 1,0,-1
EndSplineSet
EndChar

StartChar: backslash
Encoding: 92 92 63
Width: 868
Flags: W
LayerCount: 2
UndoRedoHistory
Layer: 1
Undoes
EndUndoes
Redoes
EndRedoes
EndUndoRedoHistory
Fore
SplineSet
507 0 m 1,0,-1
 96 1761 l 1,1,-1
 334 1761 l 1,2,-1
 744 0 l 1,3,-1
 507 0 l 1,0,-1
EndSplineSet
EndChar

StartChar: bracketright
Encoding: 93 93 64
Width: 764
Flags: W
LayerCount: 2
UndoRedoHistory
Layer: 1
Undoes
EndUndoes
Redoes
EndRedoes
EndUndoRedoHistory
Fore
SplineSet
135 0 m 1,0,-1
 135 209 l 1,1,-1
 340 209 l 1,2,-1
 340 1552 l 1,3,-1
 135 1552 l 1,4,-1
 135 1761 l 1,5,-1
 606 1761 l 1,6,-1
 606 0 l 1,7,-1
 135 0 l 1,0,-1
EndSplineSet
EndChar

StartChar: asciicircum
Encoding: 94 94 65
Width: 1030
Flags: W
LayerCount: 2
UndoRedoHistory
Layer: 1
Undoes
EndUndoes
Redoes
EndRedoes
EndUndoRedoHistory
Fore
SplineSet
114 576 m 1,0,-1
 355 1499 l 1,1,-1
 674 1499 l 1,2,-1
 915 576 l 1,3,-1
 659 576 l 1,4,-1
 515 1288 l 1,5,-1
 371 576 l 1,6,-1
 114 576 l 1,0,-1
EndSplineSet
EndChar

StartChar: underscore
Encoding: 95 95 66
Width: 748
Flags: W
LayerCount: 2
UndoRedoHistory
Layer: 1
Undoes
EndUndoes
Redoes
EndRedoes
EndUndoRedoHistory
Fore
SplineSet
48 -211 m 1,0,-1
 48 -28 l 1,1,-1
 699 -28 l 1,2,-1
 699 -211 l 1,3,-1
 48 -211 l 1,0,-1
EndSplineSet
EndChar

StartChar: grave
Encoding: 96 96 67
Width: 650
Flags: W
LayerCount: 2
UndoRedoHistory
Layer: 1
Undoes
EndUndoes
Redoes
EndRedoes
EndUndoRedoHistory
Fore
SplineSet
517 908 m 1,0,-1
 104 1002 l 1,1,-1
 104 1267 l 1,2,-1
 517 1064 l 1,3,-1
 517 908 l 1,0,-1
EndSplineSet
EndChar

StartChar: a
Encoding: 97 97 68
Width: 981
Flags: W
LayerCount: 2
UndoRedoHistory
Layer: 1
Undoes
EndUndoes
Redoes
EndRedoes
EndUndoRedoHistory
Fore
SplineSet
591 814 m 1,0,1
 465 758 465 758 421 708 c 128,-1,2
 377 658 377 658 377 553 c 2,3,-1
 377 392 l 2,4,5
 377 287 377 287 399 241.5 c 128,-1,6
 421 196 421 196 470.5 196 c 128,-1,7
 520 196 520 196 551.5 229.5 c 128,-1,8
 583 263 583 263 591 305 c 1,9,-1
 591 814 l 1,0,1
382 -15 m 0,10,11
 235 -15 235 -15 172 90.5 c 128,-1,12
 109 196 109 196 107 394 c 1,13,-1
 107 490 l 2,14,15
 107 682 107 682 211 781 c 0,16,17
 278 846 278 846 438 907 c 0,18,19
 467 918 467 918 518.5 937 c 128,-1,20
 570 956 570 956 591 964 c 1,21,-1
 591 1095 l 2,22,23
 591 1217 591 1217 573.5 1260.5 c 128,-1,24
 556 1304 556 1304 493.5 1304 c 128,-1,25
 431 1304 431 1304 410 1258 c 128,-1,26
 389 1212 389 1212 389 1103 c 2,27,-1
 389 1036 l 1,28,-1
 127 1036 l 1,29,-1
 127 1081 l 2,30,31
 127 1294 127 1294 206.5 1406 c 128,-1,32
 286 1518 286 1518 488.5 1518 c 128,-1,33
 691 1518 691 1518 776.5 1406 c 128,-1,34
 862 1294 862 1294 862 1070 c 2,35,-1
 862 0 l 1,36,-1
 595 0 l 1,37,-1
 595 149 l 1,38,39
 575 80 575 80 518.5 32.5 c 128,-1,40
 462 -15 462 -15 382 -15 c 0,10,11
EndSplineSet
EndChar

StartChar: b
Encoding: 98 98 69
Width: 996
Flags: W
LayerCount: 2
UndoRedoHistory
Layer: 1
Undoes
EndUndoes
Redoes
EndRedoes
EndUndoRedoHistory
Fore
SplineSet
397 140 m 1,0,-1
 397 0 l 1,1,-1
 132 0 l 1,2,-1
 132 1775 l 1,3,-1
 397 1775 l 1,4,-1
 397 1392 l 1,5,6
 419 1448 419 1448 474 1483 c 128,-1,7
 529 1518 529 1518 593 1518 c 0,8,9
 785 1518 785 1518 846 1346 c 0,10,11
 885 1236 885 1236 885 1069 c 2,12,-1
 885 434 l 1,13,14
 885.006802721 431.768707483 885.006802721 431.768707483 885.006802721 429.548521449 c 0,15,16
 885.006802721 105.401360544 885.006802721 105.401360544 740 18 c 0,17,18
 685.555555556 -15.0555555556 685.555555556 -15.0555555556 613.62037037 -15.0555555556 c 0,19,20
 611.565079365 -15.0555555556 611.565079365 -15.0555555556 609.495510204 -15.0285714286 c 0,21,22
 456.010548307 -13.0273540834 456.010548307 -13.0273540834 397 140 c 1,0,-1
421 258.5 m 128,-1,24
 445 197 445 197 512.5 197 c 128,-1,25
 580 197 580 197 599.5 256.5 c 128,-1,26
 619 316 619 316 619 459 c 2,27,-1
 619 1073 l 2,28,29
 619 1252 619 1252 572 1288 c 0,30,31
 551 1304 551 1304 518 1304 c 0,32,33
 453 1304 453 1304 425 1254 c 128,-1,34
 397 1204 397 1204 397 1074 c 2,35,-1
 397 456 l 2,36,23
 397 320 397 320 421 258.5 c 128,-1,24
EndSplineSet
EndChar

StartChar: c
Encoding: 99 99 70
Width: 943
Flags: W
LayerCount: 2
UndoRedoHistory
Layer: 1
Undoes
EndUndoes
Redoes
EndRedoes
EndUndoRedoHistory
Fore
SplineSet
494 -18 m 0,0,1
 269 -18 269 -18 189.5 115 c 128,-1,2
 110 248 110 248 110 500 c 2,3,-1
 110 986 l 2,4,5
 110 1313 110 1313 224 1427 c 0,6,7
 315 1518 315 1518 499 1518 c 128,-1,8
 683 1518 683 1518 765 1406.5 c 128,-1,9
 847 1295 847 1295 847 1085 c 2,10,-1
 847 920 l 1,11,-1
 591 920 l 1,12,-1
 591 1094 l 2,13,14
 591 1231 591 1231 566.5 1266 c 128,-1,15
 542 1301 542 1301 484 1301 c 128,-1,16
 426 1301 426 1301 401.5 1249 c 128,-1,17
 377 1197 377 1197 377 1090 c 2,18,-1
 377 414 l 2,19,20
 377 303 377 303 399.5 251 c 128,-1,21
 422 199 422 199 487 199 c 0,22,23
 576 200 576 200 588 324 c 0,24,25
 591.2 352.8 591.2 352.8 591.2 392.48 c 0,26,27
 591.2 402.4 591.2 402.4 591 413 c 1,28,-1
 591 591 l 1,29,-1
 847 591 l 1,30,-1
 847 439 l 2,31,32
 847 219 847 219 765 100.5 c 128,-1,33
 683 -18 683 -18 494 -18 c 0,0,1
EndSplineSet
EndChar

StartChar: d
Encoding: 100 100 71
Width: 998
Flags: W
LayerCount: 2
UndoRedoHistory
Layer: 1
Undoes
EndUndoes
Redoes
EndRedoes
EndUndoRedoHistory
Fore
SplineSet
386 -15 m 0,0,1
 265 -15 265 -15 205 53 c 128,-1,2
 145 121 145 121 127.5 225.5 c 128,-1,3
 110 330 110 330 110 479 c 2,4,-1
 110 1090 l 2,5,6
 110 1278 110 1278 179 1398 c 128,-1,7
 248 1518 248 1518 407 1518 c 0,8,9
 469 1518 469 1518 520.5 1488 c 128,-1,10
 572 1458 572 1458 601 1407 c 1,11,-1
 601 1775 l 1,12,-1
 866 1775 l 1,13,-1
 866 0 l 1,14,-1
 601 0 l 1,15,-1
 601 139 l 1,16,17
 541 -15 541 -15 386 -15 c 0,0,1
400.5 257.5 m 128,-1,19
 424 196 424 196 488.5 196 c 128,-1,20
 553 196 553 196 577.5 257.5 c 128,-1,21
 602 319 602 319 602 463 c 2,22,-1
 602 1063 l 2,23,24
 602 1248 602 1248 546 1287 c 0,25,26
 522 1303 522 1303 488 1303 c 0,27,28
 421 1303 421 1303 399 1242 c 128,-1,29
 377 1181 377 1181 377 1060 c 2,30,-1
 377 443 l 2,31,18
 377 319 377 319 400.5 257.5 c 128,-1,19
EndSplineSet
EndChar

StartChar: e
Encoding: 101 101 72
Width: 958
Flags: W
LayerCount: 2
UndoRedoHistory
Layer: 1
Undoes
EndUndoes
Redoes
EndRedoes
EndUndoRedoHistory
Fore
SplineSet
482 -18 m 0,0,1
 229 -18 229 -18 156 175 c 0,2,3
 110 298 110 298 110 499 c 2,4,-1
 110 1058 l 2,5,6
 110 1518 110 1518 493 1518 c 0,7,8
 697 1518 697 1518 775.5 1397 c 128,-1,9
 854 1276 854 1276 854 1053 c 2,10,-1
 854 732 l 1,11,-1
 377 732 l 1,12,-1
 377 437 l 2,13,14
 377 281 377 281 404 238.5 c 128,-1,15
 431 196 431 196 485 196 c 128,-1,16
 539 196 539 196 555 221 c 0,17,18
 582 265 582 265 586 311 c 128,-1,19
 590 357 590 357 590 437 c 2,20,-1
 590 569 l 1,21,-1
 852 569 l 1,22,-1
 852 489 l 2,23,24
 852 285 852 285 820 196 c 128,-1,25
 788 107 788 107 746 67 c 0,26,27
 658 -18 658 -18 482 -18 c 0,0,1
376 887 m 1,28,-1
 590 887 l 1,29,-1
 590 1079 l 2,30,31
 590 1202 590 1202 570.5 1255.5 c 128,-1,32
 551 1309 551 1309 491 1309 c 0,33,34
 490.347826087 1309.00621118 490.347826087 1309.00621118 489.699394313 1309.00621118 c 0,35,36
 385.950310559 1309.00621118 385.950310559 1309.00621118 378 1150 c 0,37,38
 376 1120 376 1120 376 1072 c 2,39,-1
 376 887 l 1,28,-1
EndSplineSet
EndChar

StartChar: f
Encoding: 102 102 73
Width: 637
Flags: W
LayerCount: 2
UndoRedoHistory
Layer: 1
Undoes
EndUndoes
Redoes
EndRedoes
EndUndoRedoHistory
Fore
SplineSet
173 0 m 1,0,-1
 173 1250 l 1,1,-1
 57 1250 l 1,2,-1
 57 1441 l 1,3,-1
 174 1441 l 1,4,-1
 174 1519 l 2,5,6
 174 1645 174 1645 239.5 1714.5 c 128,-1,7
 305 1784 305 1784 414 1784 c 128,-1,8
 523 1784 523 1784 590 1759 c 1,9,-1
 590 1593 l 1,10,11
 560 1597 560 1597 520 1597 c 0,12,13
 438 1597 438 1597 438 1511 c 2,14,-1
 438 1441 l 1,15,-1
 590 1441 l 1,16,-1
 590 1250 l 1,17,-1
 438 1250 l 1,18,-1
 438 0 l 1,19,-1
 173 0 l 1,0,-1
EndSplineSet
EndChar

StartChar: g
Encoding: 103 103 74
Width: 990
Flags: W
LayerCount: 2
UndoRedoHistory
Layer: 1
Undoes
EndUndoes
Redoes
EndRedoes
EndUndoRedoHistory
Fore
SplineSet
865 185 m 2,0,1
 865 -7 865 -7 771.5 -116 c 128,-1,2
 678 -225 678 -225 455.5 -225 c 128,-1,3
 233 -225 233 -225 100 -118 c 1,4,-1
 193 49 l 1,5,6
 312 -27 312 -27 415 -27 c 128,-1,7
 518 -27 518 -27 559 25 c 128,-1,8
 600 77 600 77 600 165 c 2,9,-1
 600 284 l 1,10,11
 575 212 575 212 523.5 182.5 c 128,-1,12
 472 153 472 153 392 153 c 0,13,14
 235 153 235 153 174.5 270 c 128,-1,15
 114 387 114 387 114 582 c 2,16,-1
 114 1065 l 2,17,18
 114 1518 114 1518 398 1518 c 0,19,20
 400 1518 400 1518 402 1518 c 0,21,22
 558 1518 558 1518 600 1367 c 1,23,-1
 600 1500 l 1,24,-1
 865 1500 l 1,25,-1
 865 185 l 2,0,1
404.5 412.5 m 128,-1,27
 428 354 428 354 489.5 354 c 128,-1,28
 551 354 551 354 575.5 406.5 c 128,-1,29
 600 459 600 459 600 596 c 2,30,-1
 600 1087 l 2,31,32
 600 1192 600 1192 574.5 1248 c 128,-1,33
 549 1304 549 1304 484 1304 c 128,-1,34
 419 1304 419 1304 400 1246.5 c 128,-1,35
 381 1189 381 1189 381 1088 c 2,36,-1
 381 594 l 2,37,26
 381 471 381 471 404.5 412.5 c 128,-1,27
EndSplineSet
EndChar

StartChar: h
Encoding: 104 104 75
Width: 1016
Flags: W
LayerCount: 2
UndoRedoHistory
Layer: 1
Undoes
EndUndoes
Redoes
EndRedoes
EndUndoRedoHistory
Fore
SplineSet
132 0 m 1,0,-1
 132 1775 l 1,1,-1
 397 1775 l 1,2,-1
 397 1328 l 1,3,4
 418 1409 418 1409 480 1463.5 c 128,-1,5
 542 1518 542 1518 630 1518 c 0,6,7
 760 1518 760 1518 827 1431.5 c 128,-1,8
 894 1345 894 1345 894 1181 c 2,9,-1
 894 0 l 1,10,-1
 630 0 l 1,11,-1
 630 1156 l 2,12,13
 630 1301 630 1301 524 1301 c 0,14,15
 463 1301 463 1301 430 1251 c 128,-1,16
 397 1201 397 1201 397 1115 c 2,17,-1
 397 0 l 1,18,-1
 132 0 l 1,0,-1
EndSplineSet
EndChar

StartChar: i
Encoding: 105 105 76
Width: 534
Flags: W
LayerCount: 2
UndoRedoHistory
Layer: 1
Undoes
EndUndoes
Redoes
EndRedoes
EndUndoRedoHistory
Fore
SplineSet
136 0 m 1,0,-1
 136 1500 l 1,1,-1
 401 1500 l 1,2,-1
 401 0 l 1,3,-1
 136 0 l 1,0,-1
133 1638 m 1,4,-1
 133 1868 l 1,5,-1
 400 1868 l 1,6,-1
 400 1638 l 1,7,-1
 133 1638 l 1,4,-1
EndSplineSet
EndChar

StartChar: j
Encoding: 106 106 77
Width: 564
Flags: W
LayerCount: 2
UndoRedoHistory
Layer: 1
Undoes
EndUndoes
Redoes
EndRedoes
EndUndoRedoHistory
Fore
SplineSet
222 -196 m 0,0,1
 204 -197 204 -197 144 -197 c 128,-1,2
 84 -197 84 -197 61 -180 c 1,3,-1
 61 3 l 1,4,5
 78 -1 78 -1 106 2 c 1,6,7
 169 5 169 5 169 69 c 2,8,-1
 169 1500 l 1,9,-1
 434 1500 l 1,10,-1
 434 79 l 2,11,12
 434 -58 434 -58 378.5 -126 c 128,-1,13
 323 -194 323 -194 222 -196 c 0,0,1
165 1638 m 1,14,-1
 165 1868 l 1,15,-1
 432 1868 l 1,16,-1
 432 1638 l 1,17,-1
 165 1638 l 1,14,-1
EndSplineSet
EndChar

StartChar: k
Encoding: 107 107 78
Width: 937
Flags: W
LayerCount: 2
UndoRedoHistory
Layer: 1
Undoes
EndUndoes
Redoes
EndRedoes
EndUndoRedoHistory
Fore
SplineSet
132 0 m 1,0,-1
 132 1775 l 1,1,-1
 397 1775 l 1,2,-1
 397 818 l 1,3,-1
 653 1500 l 1,4,-1
 922 1500 l 1,5,-1
 633 762 l 1,6,-1
 939 0 l 1,7,-1
 669 0 l 1,8,-1
 397 713 l 1,9,-1
 397 0 l 1,10,-1
 132 0 l 1,0,-1
EndSplineSet
EndChar

StartChar: l
Encoding: 108 108 79
Width: 534
Flags: W
LayerCount: 2
UndoRedoHistory
Layer: 1
Undoes
EndUndoes
Redoes
EndRedoes
EndUndoRedoHistory
Fore
SplineSet
135 0 m 1,0,-1
 135 1775 l 1,1,-1
 399 1775 l 1,2,-1
 399 0 l 1,3,-1
 135 0 l 1,0,-1
EndSplineSet
EndChar

StartChar: m
Encoding: 109 109 80
Width: 1505
Flags: W
LayerCount: 2
UndoRedoHistory
Layer: 1
Undoes
EndUndoes
Redoes
EndRedoes
EndUndoRedoHistory
Fore
SplineSet
1118 0 m 1,0,-1
 1118 1152 l 2,1,2
 1118 1301 1118 1301 1017 1301 c 0,3,4
 956 1301 956 1301 923 1259 c 128,-1,5
 890 1217 890 1217 890 1138 c 2,6,-1
 890 0 l 1,7,-1
 625 0 l 1,8,-1
 625 1154 l 2,9,10
 625 1301 625 1301 527 1301 c 0,11,12
 462 1301 462 1301 429.5 1251.5 c 128,-1,13
 397 1202 397 1202 397 1124 c 2,14,-1
 397 0 l 1,15,-1
 132 0 l 1,16,-1
 132 1500 l 1,17,-1
 397 1500 l 1,18,-1
 397 1337 l 1,19,20
 420 1421 420 1421 480 1469.5 c 128,-1,21
 540 1518 540 1518 637 1518 c 0,22,23
 803 1518 803 1518 859 1367 c 1,24,25
 940 1518 940 1518 1114 1518 c 0,26,27
 1255 1518 1255 1518 1318.5 1424 c 128,-1,28
 1382 1330 1382 1330 1382 1149 c 2,29,-1
 1382 0 l 1,30,-1
 1118 0 l 1,0,-1
EndSplineSet
EndChar

StartChar: n
Encoding: 110 110 81
Width: 1020
Flags: W
LayerCount: 2
UndoRedoHistory
Layer: 1
Undoes
EndUndoes
Redoes
EndRedoes
EndUndoRedoHistory
Fore
SplineSet
638 1518 m 0,0,1
 898 1518 898 1518 898 1181 c 2,2,-1
 898 0 l 1,3,-1
 633 0 l 1,4,-1
 633 1165 l 2,5,6
 633 1230 633 1230 603.5 1267 c 128,-1,7
 574 1304 574 1304 518 1304 c 128,-1,8
 462 1304 462 1304 429.5 1256 c 128,-1,9
 397 1208 397 1208 397 1127 c 2,10,-1
 397 0 l 1,11,-1
 132 0 l 1,12,-1
 132 1500 l 1,13,-1
 397 1500 l 1,14,-1
 397 1328 l 1,15,16
 417 1408 417 1408 483 1463 c 128,-1,17
 549 1518 549 1518 638 1518 c 0,0,1
EndSplineSet
EndChar

StartChar: o
Encoding: 111 111 82
Width: 970
Flags: W
LayerCount: 2
UndoRedoHistory
Layer: 1
Undoes
EndUndoes
Redoes
EndRedoes
EndUndoRedoHistory
Fore
SplineSet
486 196 m 0,0,1
 548 196 548 196 570.5 250.5 c 128,-1,2
 593 305 593 305 593 413 c 2,3,-1
 593 1084 l 2,4,5
 593 1194 593 1194 570 1249 c 128,-1,6
 547 1304 547 1304 485 1304 c 128,-1,7
 423 1304 423 1304 400 1249.5 c 128,-1,8
 377 1195 377 1195 377 1084 c 2,9,-1
 377 413 l 2,10,11
 377 248 377 248 431 211 c 0,12,13
 453 196 453 196 486 196 c 0,0,1
486 -18 m 0,14,15
 274 -18 274 -18 192 109 c 128,-1,16
 110 236 110 236 110 476 c 2,17,-1
 110 1037 l 2,18,19
 110 1518 110 1518 485 1518 c 128,-1,20
 860 1518 860 1518 860 1037 c 2,21,-1
 860 476 l 2,22,23
 860 101 860 101 667 15 c 0,24,25
 593 -18 593 -18 486 -18 c 0,14,15
EndSplineSet
EndChar

StartChar: p
Encoding: 112 112 83
Width: 998
Flags: W
LayerCount: 2
UndoRedoHistory
Layer: 1
Undoes
EndUndoes
Redoes
EndRedoes
EndUndoRedoHistory
Fore
SplineSet
132 -285 m 1,0,-1
 132 1500 l 1,1,-1
 397 1500 l 1,2,-1
 397 1365 l 1,3,4
 425 1436 425 1436 486 1475.5 c 128,-1,5
 547 1515 547 1515 613.5 1515 c 128,-1,6
 680 1515 680 1515 730 1491 c 0,7,8
 823 1446 823 1446 855.5 1332.5 c 128,-1,9
 888 1219 888 1219 888 1048 c 2,10,-1
 888 501 l 2,11,12
 888 237 888 237 837 133.5 c 128,-1,13
 786 30 786 30 700 -0 c 0,14,15
 650 -18 650 -18 589.5 -18 c 128,-1,16
 529 -18 529 -18 478.5 13 c 128,-1,17
 428 44 428 44 397 91 c 1,18,-1
 397 -285 l 1,19,-1
 132 -285 l 1,0,-1
421 255.5 m 128,-1,21
 445 197 445 197 511 197 c 128,-1,22
 577 197 577 197 599 257.5 c 128,-1,23
 621 318 621 318 621 450 c 2,24,-1
 621 1072 l 2,25,26
 621 1252 621 1252 572 1288 c 0,27,28
 550 1304 550 1304 516 1304 c 0,29,30
 456 1304 456 1304 426.5 1254.5 c 128,-1,31
 397 1205 397 1205 397 1073 c 2,32,-1
 397 439 l 2,33,20
 397 314 397 314 421 255.5 c 128,-1,21
EndSplineSet
EndChar

StartChar: q
Encoding: 113 113 84
Width: 991
Flags: W
LayerCount: 2
UndoRedoHistory
Layer: 1
Undoes
EndUndoes
Redoes
EndRedoes
EndUndoRedoHistory
Fore
SplineSet
110 1048 m 2,0,1
 110 1515 110 1515 383 1515 c 0,2,3
 541 1515 541 1515 597 1386 c 1,4,-1
 597 1500 l 1,5,-1
 862 1500 l 1,6,-1
 862 -285 l 1,7,-1
 597 -285 l 1,8,-1
 597 102 l 1,9,10
 576 52 576 52 524 17 c 128,-1,11
 472 -18 472 -18 405 -18 c 128,-1,12
 338 -18 338 -18 284 7 c 0,13,14
 184 54 184 54 147 175 c 128,-1,15
 110 296 110 296 110 481 c 2,16,-1
 110 1048 l 2,0,1
478 196 m 0,17,18
 542 196 542 196 569.5 247.5 c 128,-1,19
 597 299 597 299 597 429 c 2,20,-1
 597 1063 l 2,21,22
 597 1189 597 1189 571 1246 c 128,-1,23
 545 1303 545 1303 480 1303 c 128,-1,24
 415 1303 415 1303 395.5 1242 c 128,-1,25
 376 1181 376 1181 376 1058 c 2,26,-1
 376 436 l 2,27,28
 376 250 376 250 422 213 c 0,29,30
 444 196 444 196 478 196 c 0,17,18
EndSplineSet
EndChar

StartChar: r
Encoding: 114 114 85
Width: 688
Flags: W
LayerCount: 2
UndoRedoHistory
Layer: 1
Undoes
EndUndoes
Redoes
EndRedoes
EndUndoRedoHistory
Fore
SplineSet
654 1518 m 0,0,1
 658 1518 658 1518 658 1350 c 1,2,-1
 657 1294 l 1,3,4
 577 1294 577 1294 500 1267 c 128,-1,5
 423 1240 423 1240 399 1190 c 1,6,-1
 399 0 l 1,7,-1
 132 0 l 1,8,-1
 132 1500 l 1,9,-1
 399 1500 l 1,10,-1
 399 1333 l 1,11,12
 425 1421 425 1421 490.5 1469.5 c 128,-1,13
 556 1518 556 1518 654 1518 c 0,0,1
EndSplineSet
EndChar

StartChar: s
Encoding: 115 115 86
Width: 867
Flags: W
LayerCount: 2
UndoRedoHistory
Layer: 1
Undoes
EndUndoes
Redoes
EndRedoes
EndUndoRedoHistory
Fore
SplineSet
82 1150 m 0,0,1
 82 1518 82 1518 436 1518 c 0,2,3
 612 1518 612 1518 693.5 1417.5 c 128,-1,4
 775 1317 775 1317 775 1083 c 2,5,-1
 775 1001 l 1,6,-1
 538 1001 l 1,7,-1
 538 1100 l 2,8,9
 538 1202 538 1202 515 1251.5 c 128,-1,10
 492 1301 492 1301 438.5 1301 c 128,-1,11
 385 1301 385 1301 359.5 1270 c 128,-1,12
 334 1239 334 1239 334 1164 c 0,13,14
 334 1045 334 1045 440 943 c 1,15,-1
 582 814 l 1,16,17
 801 610 801 610 801 365 c 0,18,19
 801 173 801 173 714 77 c 128,-1,20
 627 -19 627 -19 444 -19 c 128,-1,21
 261 -19 261 -19 174 85.5 c 128,-1,22
 87 190 87 190 87 421 c 2,23,-1
 87 518 l 1,24,-1
 336 518 l 1,25,-1
 336 397 l 2,26,27
 336 197 336 197 438 197 c 0,28,29
 492 197 492 197 516 232.5 c 128,-1,30
 540 268 540 268 540 353 c 0,31,32
 540 503 540 503 402 631 c 0,33,34
 398 635 398 635 337.5 689 c 128,-1,35
 277 743 277 743 267 753 c 0,36,37
 82 922 82 922 82 1150 c 0,0,1
EndSplineSet
EndChar

StartChar: t
Encoding: 116 116 87
Width: 645
Flags: W
LayerCount: 2
UndoRedoHistory
Layer: 1
Undoes
EndUndoes
Redoes
EndRedoes
EndUndoRedoHistory
Fore
SplineSet
405 -10 m 2,0,1
 265 -10 265 -10 217 43.5 c 128,-1,2
 169 97 169 97 169 229 c 2,3,-1
 169 1277 l 1,4,-1
 47 1277 l 1,5,-1
 47 1469 l 1,6,-1
 169 1469 l 1,7,-1
 169 1761 l 1,8,-1
 434 1761 l 1,9,-1
 434 1469 l 1,10,-1
 580 1469 l 1,11,-1
 580 1277 l 1,12,-1
 434 1277 l 1,13,-1
 434 275 l 2,14,15
 434 222 434 222 461.5 207 c 128,-1,16
 489 192 489 192 585 192 c 1,17,-1
 585 -10 l 1,18,-1
 405 -10 l 2,0,1
EndSplineSet
EndChar

StartChar: u
Encoding: 117 117 88
Width: 1015
Flags: W
LayerCount: 2
UndoRedoHistory
Layer: 1
Undoes
EndUndoes
Redoes
EndRedoes
EndUndoRedoHistory
Fore
SplineSet
389 -19 m 0,0,1
 122 -19 122 -19 122 340 c 2,2,-1
 122 1500 l 1,3,-1
 388 1500 l 1,4,-1
 388 381 l 2,5,6
 388 288 388 288 411 243.5 c 128,-1,7
 434 199 434 199 497 199 c 0,8,9
 618 199 618 199 618 379 c 2,10,-1
 619 1500 l 1,11,-1
 883 1500 l 1,12,-1
 883 0 l 1,13,-1
 618 0 l 1,14,-1
 618 156 l 1,15,16
 555 -19 555 -19 389 -19 c 0,0,1
EndSplineSet
EndChar

StartChar: v
Encoding: 118 118 89
Width: 834
Flags: W
LayerCount: 2
UndoRedoHistory
Layer: 1
Undoes
EndUndoes
Redoes
EndRedoes
EndUndoRedoHistory
Fore
SplineSet
255 0 m 1,0,-1
 38 1500 l 1,1,-1
 288 1500 l 1,2,-1
 385 702 l 1,3,-1
 418 343 l 1,4,-1
 438 343 l 1,5,-1
 466 703 l 1,6,-1
 549 1500 l 1,7,-1
 797 1500 l 1,8,-1
 580 0 l 1,9,-1
 255 0 l 1,0,-1
EndSplineSet
EndChar

StartChar: w
Encoding: 119 119 90
Width: 1251
Flags: W
LayerCount: 2
UndoRedoHistory
Layer: 1
Undoes
EndUndoes
Redoes
EndRedoes
EndUndoRedoHistory
Fore
SplineSet
783 0 m 1,0,-1
 631 1127 l 1,1,-1
 469 0 l 1,2,-1
 245 0 l 1,3,-1
 44 1500 l 1,4,-1
 267 1500 l 1,5,-1
 343 867 l 1,6,-1
 377 545 l 1,7,-1
 383 545 l 1,8,-1
 416 868 l 1,9,-1
 505 1500 l 1,10,-1
 741 1500 l 1,11,-1
 839 880 l 1,12,-1
 881 545 l 1,13,-1
 887 545 l 1,14,-1
 916 879 l 1,15,-1
 983 1500 l 1,16,-1
 1205 1500 l 1,17,-1
 1015 0 l 1,18,-1
 783 0 l 1,0,-1
EndSplineSet
EndChar

StartChar: x
Encoding: 120 120 91
Width: 820
Flags: W
LayerCount: 2
UndoRedoHistory
Layer: 1
Undoes
EndUndoes
Redoes
EndRedoes
EndUndoRedoHistory
Fore
SplineSet
558 0 m 1,0,-1
 401 449 l 1,1,-1
 262 0 l 1,2,-1
 17 0 l 1,3,-1
 284 783 l 1,4,-1
 34 1500 l 1,5,-1
 269 1500 l 1,6,-1
 423 1067 l 1,7,-1
 555 1500 l 1,8,-1
 789 1500 l 1,9,-1
 535 755 l 1,10,-1
 804 0 l 1,11,-1
 558 0 l 1,0,-1
EndSplineSet
EndChar

StartChar: y
Encoding: 121 121 92
Width: 852
Flags: W
LayerCount: 2
UndoRedoHistory
Layer: 1
Undoes
EndUndoes
Redoes
EndRedoes
EndUndoRedoHistory
Fore
SplineSet
88 -265 m 1,0,-1
 88 -82 l 1,1,-1
 175 -82 l 2,2,3
 225 -82 225 -82 252.5 -74 c 128,-1,4
 280 -66 280 -66 283 -42 c 1,5,6
 289 -32 289 -32 289 -5 c 128,-1,7
 289 22 289 22 282 68 c 2,8,-1
 42 1501 l 1,9,-1
 294 1501 l 1,10,-1
 390 733 l 1,11,-1
 430 329 l 1,12,-1
 452 329 l 1,13,-1
 488 733 l 1,14,-1
 576 1501 l 1,15,-1
 827 1501 l 1,16,-1
 567 -64 l 1,17,18
 550 -177 550 -177 510 -221 c 128,-1,19
 470 -265 470 -265 370 -265 c 2,20,-1
 88 -265 l 1,0,-1
EndSplineSet
EndChar

StartChar: z
Encoding: 122 122 93
Width: 727
Flags: W
LayerCount: 2
UndoRedoHistory
Layer: 1
Undoes
EndUndoes
Redoes
EndRedoes
EndUndoRedoHistory
Fore
SplineSet
70 0 m 1,0,-1
 70 200 l 1,1,-1
 400 1273 l 1,2,-1
 95 1273 l 1,3,-1
 95 1500 l 1,4,-1
 669 1500 l 1,5,-1
 669 1309 l 1,6,-1
 341 222 l 1,7,-1
 655 222 l 1,8,-1
 655 0 l 1,9,-1
 70 0 l 1,0,-1
EndSplineSet
EndChar

StartChar: braceleft
Encoding: 123 123 94
Width: 798
Flags: W
LayerCount: 2
UndoRedoHistory
Layer: 1
Undoes
EndUndoes
Redoes
EndRedoes
EndUndoRedoHistory
Fore
SplineSet
614 -121 m 2,0,1
 425 -121 425 -121 348.5 -48.5 c 128,-1,2
 272 24 272 24 272 217 c 2,3,-1
 272 492 l 2,4,5
 272 655 272 655 238 682.5 c 128,-1,6
 204 710 204 710 133 710 c 1,7,-1
 133 950 l 1,8,9
 204 950 204 950 229 970 c 128,-1,10
 254 990 254 990 263 1028 c 128,-1,11
 272 1066 272 1066 272 1168 c 2,12,-1
 272 1443 l 2,13,14
 272 1636 272 1636 348.5 1708.5 c 128,-1,15
 425 1781 425 1781 614 1781 c 2,16,-1
 674 1781 l 1,17,-1
 674 1582 l 1,18,19
 585 1582 585 1582 560 1553.5 c 128,-1,20
 535 1525 535 1525 535 1430 c 2,21,-1
 535 1184 l 2,22,23
 535 1053 535 1053 522.5 987 c 128,-1,24
 510 921 510 921 477.5 886 c 128,-1,25
 445 851 445 851 376 830 c 1,26,27
 445 809 445 809 477.5 774 c 128,-1,28
 510 739 510 739 522.5 673 c 128,-1,29
 535 607 535 607 535 476 c 2,30,-1
 535 230 l 2,31,32
 535 135 535 135 560 106.5 c 128,-1,33
 585 78 585 78 674 78 c 1,34,-1
 674 -121 l 1,35,-1
 614 -121 l 2,0,1
EndSplineSet
EndChar

StartChar: bar
Encoding: 124 124 95
Width: 537
Flags: W
LayerCount: 2
UndoRedoHistory
Layer: 1
Undoes
EndUndoes
Redoes
EndRedoes
EndUndoRedoHistory
Fore
SplineSet
150 -84 m 1,0,-1
 150 1863 l 1,1,-1
 393 1863 l 1,2,-1
 393 -84 l 1,3,-1
 150 -84 l 1,0,-1
EndSplineSet
EndChar

StartChar: braceright
Encoding: 125 125 96
Width: 798
Flags: W
LayerCount: 2
UndoRedoHistory
Layer: 1
Undoes
EndUndoes
Redoes
EndRedoes
EndUndoRedoHistory
Fore
SplineSet
133 -121 m 1,0,-1
 133 78 l 1,1,2
 222 78 222 78 247 106.5 c 128,-1,3
 272 135 272 135 272 230 c 2,4,-1
 272 476 l 2,5,6
 272 607 272 607 284.5 673 c 128,-1,7
 297 739 297 739 330 774 c 128,-1,8
 363 809 363 809 432 830 c 1,9,10
 363 851 363 851 330 886 c 128,-1,11
 297 921 297 921 284.5 987 c 128,-1,12
 272 1053 272 1053 272 1184 c 2,13,-1
 272 1430 l 2,14,15
 272 1525 272 1525 247 1553.5 c 128,-1,16
 222 1582 222 1582 133 1582 c 1,17,-1
 133 1781 l 1,18,-1
 193 1781 l 2,19,20
 382 1781 382 1781 458.5 1708.5 c 128,-1,21
 535 1636 535 1636 535 1443 c 2,22,-1
 535 1168 l 2,23,24
 535 1005 535 1005 569 977.5 c 128,-1,25
 603 950 603 950 674 950 c 1,26,-1
 674 710 l 1,27,28
 603 710 603 710 578 690 c 128,-1,29
 553 670 553 670 544 632 c 128,-1,30
 535 594 535 594 535 492 c 2,31,-1
 535 217 l 2,32,33
 535 24 535 24 458.5 -48.5 c 128,-1,34
 382 -121 382 -121 193 -121 c 2,35,-1
 133 -121 l 1,0,-1
EndSplineSet
EndChar

StartChar: asciitilde
Encoding: 126 126 97
Width: 1117
Flags: W
LayerCount: 2
UndoRedoHistory
Layer: 1
Undoes
EndUndoes
Redoes
EndRedoes
EndUndoRedoHistory
Fore
SplineSet
851 849.5 m 128,-1,1
 808 810 808 810 758 810 c 128,-1,2
 708 810 708 810 563.5 862 c 128,-1,3
 419 914 419 914 376 914 c 128,-1,4
 333 914 333 914 313.5 893 c 128,-1,5
 294 872 294 872 272 821 c 1,6,-1
 100 903 l 1,7,8
 180 1169 180 1169 347 1169 c 0,9,10
 404 1169 404 1169 554.5 1121 c 128,-1,11
 705 1073 705 1073 718 1073 c 0,12,13
 788 1073 788 1073 823 1183 c 1,14,-1
 1009 1141 l 1,15,16
 989 1061 989 1061 941.5 975 c 128,-1,0
 894 889 894 889 851 849.5 c 128,-1,1
EndSplineSet
EndChar

StartChar: cent
Encoding: 162 162 100
Width: 788
Flags: W
LayerCount: 2
UndoRedoHistory
Layer: 1
Undoes
EndUndoes
Redoes
EndRedoes
EndUndoRedoHistory
Fore
SplineSet
529 -17 m 1,0,-1
 529 -251 l 1,1,-1
 416 -251 l 1,2,-1
 416 -13 l 1,3,4
 254 8 254 8 182 128 c 128,-1,5
 110 248 110 248 110 500 c 2,6,-1
 110 986 l 2,7,8
 110 1313 110 1313 224 1427 c 0,9,10
 293 1496 293 1496 416 1513 c 1,11,-1
 416 1766 l 1,12,-1
 529 1766 l 1,13,-1
 529 1517 l 1,14,15
 690 1508 690 1508 768.5 1401.5 c 128,-1,16
 847 1295 847 1295 847 1085 c 2,17,-1
 847 920 l 1,18,-1
 591 920 l 1,19,-1
 591 1094 l 2,20,21
 591 1231 591 1231 566.5 1266 c 128,-1,22
 542 1301 542 1301 484 1301 c 128,-1,23
 426 1301 426 1301 401.5 1249 c 128,-1,24
 377 1197 377 1197 377 1090 c 2,25,-1
 377 414 l 2,26,27
 377 303 377 303 399.5 251 c 128,-1,28
 422 199 422 199 487 199 c 0,29,30
 576 200 576 200 588 324 c 0,31,32
 591.2 352.8 591.2 352.8 591.2 392.48 c 0,33,34
 591.2 402.4 591.2 402.4 591 413 c 1,35,-1
 591 591 l 1,36,-1
 847 591 l 1,37,-1
 847 439 l 2,38,39
 847 219 847 219 769 106 c 128,-1,40
 691 -7 691 -7 529 -17 c 1,0,-1
EndSplineSet
EndChar

StartChar: sterling
Encoding: 163 163 101
Width: 1077
Flags: W
LayerCount: 2
UndoRedoHistory
Layer: 1
Undoes
EndUndoes
Redoes
EndRedoes
EndUndoRedoHistory
Fore
SplineSet
719 1393 m 1,0,1
 719.006993007 1394.21678322 719.006993007 1394.21678322 719.006993007 1395.42505746 c 0,2,3
 719.006993007 1567 719.006993007 1567 578 1567 c 0,4,5
 418 1567 418 1567 417 1414 c 0,6,7
 417 1382 417 1382 462.5 1222 c 128,-1,8
 508 1062 508 1062 532 973 c 1,9,-1
 865 973 l 1,10,-1
 865 783 l 1,11,-1
 582 783 l 1,12,13
 599 698 599 698 599 622 c 0,14,15
 599 472 599 472 550.5 370.5 c 128,-1,16
 502 269 502 269 415 226 c 1,17,-1
 954 226 l 1,18,-1
 954 0 l 1,19,-1
 82 0 l 1,20,-1
 82 205 l 1,21,22
 208 260 208 260 272.5 362.5 c 128,-1,23
 337 465 337 465 337 631 c 0,24,25
 337 708 337 708 322 783 c 1,26,-1
 92 783 l 1,27,-1
 92 973 l 1,28,-1
 281 973 l 1,29,30
 166 1339 166 1339 166 1389 c 0,31,32
 166 1579 166 1579 272 1680 c 128,-1,33
 378 1781 378 1781 592 1781 c 0,34,35
 963 1781 963 1781 963 1381 c 2,36,-1
 963 1246 l 1,37,-1
 719 1246 l 1,38,-1
 719 1393 l 1,0,1
EndSplineSet
EndChar

StartChar: currency
Encoding: 164 164 102
Width: 1159
Flags: W
LayerCount: 2
UndoRedoHistory
Layer: 1
Undoes
EndUndoes
Redoes
EndRedoes
EndUndoRedoHistory
Fore
SplineSet
274 509 m 1,0,-1
 125 659 l 1,1,-1
 216 750 l 1,2,3
 163 848 163 848 163 964.5 c 128,-1,4
 163 1081 163 1081 215 1178 c 1,5,-1
 125 1268 l 1,6,-1
 274 1418 l 1,7,-1
 361 1330 l 1,8,9
 458 1385 458 1385 579 1385 c 128,-1,10
 700 1385 700 1385 797 1331 c 1,11,-1
 884 1418 l 1,12,-1
 1034 1269 l 1,13,-1
 944 1179 l 1,14,15
 998 1082 998 1082 998 964 c 128,-1,16
 998 846 998 846 944 748 c 1,17,-1
 1034 658 l 1,18,-1
 884 509 l 1,19,-1
 795 597 l 1,20,21
 703 545 703 545 579 545 c 128,-1,22
 455 545 455 545 363 598 c 1,23,-1
 274 509 l 1,0,-1
579 741 m 128,-1,25
 672 741 672 741 730 806 c 128,-1,26
 788 871 788 871 788 966.5 c 128,-1,27
 788 1062 788 1062 731 1124 c 128,-1,28
 674 1186 674 1186 580 1186 c 128,-1,29
 486 1186 486 1186 428.5 1122 c 128,-1,30
 371 1058 371 1058 371 963.5 c 128,-1,31
 371 869 371 869 428.5 805 c 128,-1,24
 486 741 486 741 579 741 c 128,-1,25
EndSplineSet
EndChar

StartChar: yen
Encoding: 165 165 103
Width: 866
Flags: W
LayerCount: 2
UndoRedoHistory
Layer: 1
Undoes
EndUndoes
Redoes
EndRedoes
EndUndoRedoHistory
Fore
SplineSet
572 468 m 1,0,-1
 774 468 l 1,1,-1
 774 315 l 1,2,-1
 572 315 l 1,3,-1
 572 0 l 1,4,-1
 304 0 l 1,5,-1
 304 315 l 1,6,-1
 94 315 l 1,7,-1
 94 468 l 1,8,-1
 304 468 l 1,9,-1
 304 619 l 1,10,-1
 94 619 l 1,11,-1
 94 770 l 1,12,-1
 285 770 l 1,13,-1
 9 1760 l 1,14,-1
 265 1760 l 1,15,-1
 439 1102 l 1,16,-1
 443 1102 l 1,17,-1
 598 1760 l 1,18,-1
 853 1760 l 1,19,-1
 590 770 l 1,20,-1
 774 770 l 1,21,-1
 774 619 l 1,22,-1
 572 619 l 1,23,-1
 572 468 l 1,0,-1
EndSplineSet
EndChar

StartChar: brokenbar
Encoding: 166 166 104
Width: 530
Flags: W
LayerCount: 2
UndoRedoHistory
Layer: 1
Undoes
EndUndoes
Redoes
EndRedoes
EndUndoRedoHistory
Fore
SplineSet
122 -84 m 1,0,-1
 122 724 l 1,1,-1
 408 724 l 1,2,-1
 408 -84 l 1,3,-1
 122 -84 l 1,0,-1
122 931 m 1,4,-1
 122 1761 l 1,5,-1
 408 1761 l 1,6,-1
 408 931 l 1,7,-1
 122 931 l 1,4,-1
EndSplineSet
EndChar

StartChar: section
Encoding: 167 167 105
Width: 950
Flags: W
LayerCount: 2
UndoRedoHistory
Layer: 1
Undoes
EndUndoes
Redoes
EndRedoes
EndUndoRedoHistory
Fore
SplineSet
492 220 m 0,0,1
 566 220 566 220 566 287 c 0,2,3
 566 333 566 333 553.5 352.5 c 128,-1,4
 541 372 541 372 533 383.5 c 128,-1,5
 525 395 525 395 508.5 410 c 128,-1,6
 492 425 492 425 480.5 435 c 128,-1,7
 469 445 469 445 447.5 461.5 c 128,-1,8
 426 478 426 478 413 487 c 128,-1,9
 400 496 400 496 374.5 514.5 c 128,-1,10
 349 533 349 533 299 568.5 c 128,-1,11
 249 604 249 604 187 674.5 c 128,-1,12
 125 745 125 745 125 841 c 0,13,14
 125 1030 125 1030 248 1143 c 1,15,16
 188 1198 188 1198 156.5 1275 c 128,-1,17
 125 1352 125 1352 125 1433 c 0,18,19
 125 1598 125 1598 229 1689.5 c 128,-1,20
 333 1781 333 1781 502 1781 c 128,-1,21
 671 1781 671 1781 762 1684.5 c 128,-1,22
 853 1588 853 1588 853 1372 c 1,23,-1
 580 1372 l 1,24,25
 580 1469 580 1469 562 1505.5 c 128,-1,26
 544 1542 544 1542 497 1542 c 0,27,28
 412 1542 412 1542 412 1451 c 0,29,30
 412 1373 412 1373 630 1227 c 0,31,32
 633 1226 633 1226 634 1225 c 128,-1,33
 635 1224 635 1224 637 1223 c 128,-1,34
 639 1222 639 1222 668 1203.5 c 128,-1,35
 697 1185 697 1185 741 1140.5 c 128,-1,36
 785 1096 785 1096 818.5 1026.5 c 128,-1,37
 852 957 852 957 852 883 c 128,-1,38
 852 809 852 809 809 734 c 128,-1,39
 766 659 766 659 700 598 c 1,40,41
 779 525 779 525 817 457 c 128,-1,42
 855 389 855 389 855 293 c 0,43,44
 855 143 855 143 757.5 61.5 c 128,-1,45
 660 -20 660 -20 479 -20 c 128,-1,46
 298 -20 298 -20 202.5 76 c 128,-1,47
 107 172 107 172 107 391 c 1,48,-1
 406 391 l 1,49,50
 406 289 406 289 429 254.5 c 128,-1,51
 452 220 452 220 492 220 c 0,0,1
541 735 m 1,52,53
 586 810 586 810 586 856 c 0,54,55
 586 950 586 950 426 1017 c 1,56,57
 381 952 381 952 381 899.5 c 128,-1,58
 381 847 381 847 428.5 804 c 128,-1,59
 476 761 476 761 541 735 c 1,52,53
EndSplineSet
EndChar

StartChar: dieresis
Encoding: 168 168 106
Width: 976
Flags: W
LayerCount: 2
UndoRedoHistory
Layer: 1
Undoes
EndUndoes
Redoes
EndRedoes
EndUndoRedoHistory
Fore
SplineSet
105 903 m 1,0,-1
 105 1129 l 1,1,-1
 387 1129 l 1,2,-1
 387 903 l 1,3,-1
 105 903 l 1,0,-1
589 903 m 1,4,-1
 589 1129 l 1,5,-1
 871 1129 l 1,6,-1
 871 903 l 1,7,-1
 589 903 l 1,4,-1
EndSplineSet
EndChar

StartChar: copyright
Encoding: 169 169 107
Width: 1466
Flags: W
LayerCount: 2
UndoRedoHistory
Layer: 1
Undoes
EndUndoes
Redoes
EndRedoes
EndUndoRedoHistory
Fore
SplineSet
900.5 476 m 128,-1,1
 850 423 850 423 738 423 c 128,-1,2
 626 423 626 423 561.5 483 c 128,-1,3
 497 543 497 543 497 647 c 2,4,-1
 497 1048 l 2,5,6
 497 1304 497 1304 736 1304 c 0,7,8
 838 1304 838 1304 892.5 1253.5 c 128,-1,9
 947 1203 947 1203 947 1104 c 2,10,-1
 947 951 l 1,11,-1
 782 951 l 1,12,-1
 782 1052 l 2,13,14
 782 1129 782 1129 736 1129 c 0,15,16
 710 1129 710 1129 701 1113 c 128,-1,17
 692 1097 692 1097 692 1065 c 2,18,-1
 692 656 l 2,19,20
 692 631 692 631 704 611 c 128,-1,21
 716 591 716 591 736 591 c 0,22,23
 782 591 782 591 782 656 c 2,24,-1
 782 805 l 1,25,-1
 951 805 l 1,26,-1
 951 642 l 2,27,0
 951 529 951 529 900.5 476 c 128,-1,1
733 333 m 128,-1,29
 874 333 874 333 989 404 c 128,-1,30
 1104 475 1104 475 1167.5 596 c 128,-1,31
 1231 717 1231 717 1231 861 c 128,-1,32
 1231 1005 1231 1005 1167.5 1126 c 128,-1,33
 1104 1247 1104 1247 989 1318 c 128,-1,34
 874 1389 874 1389 733 1389 c 128,-1,35
 592 1389 592 1389 477 1318 c 128,-1,36
 362 1247 362 1247 298.5 1126 c 128,-1,37
 235 1005 235 1005 235 861 c 128,-1,38
 235 717 235 717 298.5 596 c 128,-1,39
 362 475 362 475 477 404 c 128,-1,28
 592 333 592 333 733 333 c 128,-1,29
733 204 m 128,-1,41
 549 204 549 204 398.5 290 c 128,-1,42
 248 376 248 376 162 526.5 c 128,-1,43
 76 677 76 677 76 861 c 128,-1,44
 76 1045 76 1045 162 1195.5 c 128,-1,45
 248 1346 248 1346 398.5 1432 c 128,-1,46
 549 1518 549 1518 733 1518 c 128,-1,47
 917 1518 917 1518 1067.5 1432 c 128,-1,48
 1218 1346 1218 1346 1304 1195.5 c 128,-1,49
 1390 1045 1390 1045 1390 861 c 128,-1,50
 1390 677 1390 677 1304 526.5 c 128,-1,51
 1218 376 1218 376 1067.5 290 c 128,-1,40
 917 204 917 204 733 204 c 128,-1,41
EndSplineSet
EndChar

StartChar: ordfeminine
Encoding: 170 170 108
Width: 927
Flags: W
LayerCount: 2
UndoRedoHistory
Layer: 1
Undoes
EndUndoes
Redoes
EndRedoes
EndUndoRedoHistory
Fore
SplineSet
386 385 m 0,0,1
 269 385 269 385 218.5 468.5 c 128,-1,2
 168 552 168 552 166 709 c 1,3,-1
 166 788 l 2,4,5
 166 901 166 901 222 996 c 0,6,7
 240 1027 240 1027 299.5 1061 c 128,-1,8
 359 1095 359 1095 390.5 1108 c 128,-1,9
 422 1121 422 1121 553 1170 c 1,10,-1
 553 1212 l 2,11,12
 553 1338 553 1338 545 1372 c 0,13,14
 530 1437 530 1437 477.5 1437 c 128,-1,15
 425 1437 425 1437 408 1402 c 128,-1,16
 391 1367 391 1367 391 1281 c 2,17,-1
 391 1223 l 1,18,-1
 183 1223 l 1,19,20
 182 1228 182 1228 182 1259 c 0,21,22
 182 1434 182 1434 247.5 1520.5 c 128,-1,23
 313 1607 313 1607 472.5 1607 c 128,-1,24
 632 1607 632 1607 699.5 1518 c 128,-1,25
 767 1429 767 1429 767 1250 c 2,26,-1
 767 397 l 1,27,-1
 555 397 l 1,28,-1
 555 507 l 1,29,30
 543 463 543 463 495.5 424 c 128,-1,31
 448 385 448 385 386 385 c 0,0,1
398.5 589.5 m 128,-1,33
 416 553 416 553 456 553 c 128,-1,34
 496 553 496 553 520.5 579.5 c 128,-1,35
 545 606 545 606 552 640 c 1,36,-1
 552 1037 l 1,37,38
 449 993 449 993 415 955 c 128,-1,39
 381 917 381 917 381 831 c 2,40,-1
 381 710 l 2,41,32
 381 626 381 626 398.5 589.5 c 128,-1,33
EndSplineSet
EndChar

StartChar: guillemotleft
Encoding: 171 171 109
Width: 1304
Flags: W
LayerCount: 2
UndoRedoHistory
Layer: 1
Undoes
EndUndoes
Redoes
EndRedoes
EndUndoRedoHistory
Fore
SplineSet
579 327 m 1,0,-1
 88 612 l 1,1,-1
 88 887 l 1,2,-1
 579 1158 l 1,3,-1
 579 890 l 1,4,-1
 267 749 l 1,5,-1
 579 599 l 1,6,-1
 579 327 l 1,0,-1
1133 327 m 1,7,-1
 642 612 l 1,8,-1
 642 887 l 1,9,-1
 1133 1158 l 1,10,-1
 1133 890 l 1,11,-1
 821 749 l 1,12,-1
 1133 599 l 1,13,-1
 1133 327 l 1,7,-1
EndSplineSet
EndChar

StartChar: logicalnot
Encoding: 172 172 110
Width: 947
Flags: W
LayerCount: 2
UndoRedoHistory
Layer: 1
Undoes
EndUndoes
Redoes
EndRedoes
EndUndoRedoHistory
Fore
SplineSet
602 439 m 1,0,-1
 602 743 l 1,1,-1
 97 743 l 1,2,-1
 97 979 l 1,3,-1
 826 979 l 1,4,-1
 826 439 l 1,5,-1
 602 439 l 1,0,-1
EndSplineSet
EndChar

StartChar: uni00AD
Encoding: 173 173 111
Width: 696
Flags: W
LayerCount: 2
UndoRedoHistory
Layer: 1
Undoes
EndUndoes
Redoes
EndRedoes
EndUndoRedoHistory
Fore
SplineSet
90 509 m 1,0,-1
 90 741 l 1,1,-1
 606 741 l 1,2,-1
 606 509 l 1,3,-1
 90 509 l 1,0,-1
EndSplineSet
EndChar

StartChar: registered
Encoding: 174 174 112
Width: 1502
Flags: W
LayerCount: 2
UndoRedoHistory
Layer: 1
Undoes
EndUndoes
Redoes
EndRedoes
EndUndoRedoHistory
Fore
SplineSet
529 430 m 1,0,-1
 529 1282 l 1,1,-1
 818 1282 l 2,2,3
 919 1282 919 1282 954 1223 c 128,-1,4
 989 1164 989 1164 989 1067.5 c 128,-1,5
 989 971 989 971 968.5 930.5 c 128,-1,6
 948 890 948 890 896 873 c 1,7,8
 975 858 975 858 975 751 c 2,9,-1
 975 430 l 1,10,-1
 791 430 l 1,11,-1
 791 762 l 2,12,13
 791 797 791 797 775.5 807.5 c 128,-1,14
 760 818 760 818 719 818 c 1,15,-1
 719 430 l 1,16,-1
 529 430 l 1,0,-1
751 334 m 128,-1,18
 892 334 892 334 1007 405 c 128,-1,19
 1122 476 1122 476 1185.5 597 c 128,-1,20
 1249 718 1249 718 1249 862 c 128,-1,21
 1249 1006 1249 1006 1185.5 1127 c 128,-1,22
 1122 1248 1122 1248 1007 1319 c 128,-1,23
 892 1390 892 1390 751 1390 c 128,-1,24
 610 1390 610 1390 495 1319 c 128,-1,25
 380 1248 380 1248 316.5 1127 c 128,-1,26
 253 1006 253 1006 253 862 c 128,-1,27
 253 718 253 718 316.5 597 c 128,-1,28
 380 476 380 476 495 405 c 128,-1,17
 610 334 610 334 751 334 c 128,-1,18
751 205 m 128,-1,30
 567 205 567 205 416.5 291 c 128,-1,31
 266 377 266 377 180 527.5 c 128,-1,32
 94 678 94 678 94 862 c 128,-1,33
 94 1046 94 1046 180 1196.5 c 128,-1,34
 266 1347 266 1347 416.5 1433 c 128,-1,35
 567 1519 567 1519 751 1519 c 128,-1,36
 935 1519 935 1519 1085.5 1433 c 128,-1,37
 1236 1347 1236 1347 1322 1196.5 c 128,-1,38
 1408 1046 1408 1046 1408 862 c 128,-1,39
 1408 678 1408 678 1322 527.5 c 128,-1,40
 1236 377 1236 377 1085.5 291 c 128,-1,29
 935 205 935 205 751 205 c 128,-1,30
720 965 m 1,41,-1
 768 965 l 2,42,43
 805 965 805 965 805 1030 c 128,-1,44
 805 1095 805 1095 789.5 1109.5 c 128,-1,45
 774 1124 774 1124 720 1124 c 1,46,-1
 720 965 l 1,41,-1
EndSplineSet
EndChar

StartChar: macron
Encoding: 175 175 113
Width: 696
Flags: W
LayerCount: 2
UndoRedoHistory
Layer: 1
Undoes
EndUndoes
Redoes
EndRedoes
EndUndoRedoHistory
Fore
SplineSet
90 926 m 1,0,-1
 90 1077 l 1,1,-1
 597 1077 l 1,2,-1
 597 926 l 1,3,-1
 90 926 l 1,0,-1
EndSplineSet
EndChar

StartChar: degree
Encoding: 176 176 114
Width: 915
Flags: W
LayerCount: 2
UndoRedoHistory
Layer: 1
Undoes
EndUndoes
Redoes
EndRedoes
EndUndoRedoHistory
Fore
SplineSet
458 1112 m 128,-1,1
 523 1112 523 1112 561.5 1157 c 128,-1,2
 600 1202 600 1202 600 1269 c 128,-1,3
 600 1336 600 1336 561.5 1381 c 128,-1,4
 523 1426 523 1426 458 1426 c 128,-1,5
 393 1426 393 1426 354.5 1381 c 128,-1,6
 316 1336 316 1336 316 1269 c 128,-1,7
 316 1202 316 1202 354.5 1157 c 128,-1,0
 393 1112 393 1112 458 1112 c 128,-1,1
457 931 m 128,-1,9
 295 931 295 931 199.5 1021 c 128,-1,10
 104 1111 104 1111 104 1268.5 c 128,-1,11
 104 1426 104 1426 199.5 1516.5 c 128,-1,12
 295 1607 295 1607 457 1607 c 128,-1,13
 619 1607 619 1607 715 1516.5 c 128,-1,14
 811 1426 811 1426 811 1269 c 128,-1,15
 811 1112 811 1112 715 1021.5 c 128,-1,8
 619 931 619 931 457 931 c 128,-1,9
EndSplineSet
EndChar

StartChar: plusminus
Encoding: 177 177 115
Width: 854
Flags: W
LayerCount: 2
UndoRedoHistory
Layer: 1
Undoes
EndUndoes
Redoes
EndRedoes
EndUndoRedoHistory
Fore
SplineSet
336 475 m 1,0,-1
 336 708 l 1,1,-1
 118 708 l 1,2,-1
 118 885 l 1,3,-1
 336 885 l 1,4,-1
 336 1116 l 1,5,-1
 518 1116 l 1,6,-1
 518 885 l 1,7,-1
 738 885 l 1,8,-1
 738 708 l 1,9,-1
 518 708 l 1,10,-1
 518 475 l 1,11,-1
 336 475 l 1,0,-1
156 112 m 1,12,-1
 156 295 l 1,13,-1
 672 295 l 1,14,-1
 672 112 l 1,15,-1
 156 112 l 1,12,-1
EndSplineSet
EndChar

StartChar: uni00B2
Encoding: 178 178 116
Width: 831
Flags: W
LayerCount: 2
UndoRedoHistory
Layer: 1
Undoes
EndUndoes
Redoes
EndRedoes
EndUndoRedoHistory
Fore
SplineSet
439 1621 m 0,0,1
 403 1621 403 1621 384 1583.5 c 128,-1,2
 365 1546 365 1546 365 1448 c 2,3,-1
 365 1294 l 1,4,-1
 183 1294 l 1,5,-1
 182 1368 l 1,6,7
 182 1537 182 1537 204 1609 c 0,8,9
 226 1680 226 1680 255 1712 c 0,10,11
 317 1780 317 1780 447 1780 c 0,12,13
 532 1780 532 1780 588 1734 c 0,14,15
 691 1649 691 1649 691 1465.5 c 128,-1,16
 691 1282 691 1282 604 1128 c 0,17,18
 566 1060 566 1060 526 998 c 0,19,20
 419 835 419 835 387 716 c 1,21,-1
 678 716 l 1,22,-1
 678 565 l 1,23,-1
 185 565 l 1,24,-1
 185 627 l 2,25,26
 185 741 185 741 282.5 936.5 c 128,-1,27
 380 1132 380 1132 456 1226 c 1,28,29
 511 1314 511 1314 511 1467.5 c 128,-1,30
 511 1621 511 1621 439 1621 c 0,0,1
EndSplineSet
EndChar

StartChar: uni00B3
Encoding: 179 179 117
Width: 856
Flags: W
LayerCount: 2
UndoRedoHistory
Layer: 1
Undoes
EndUndoes
Redoes
EndRedoes
EndUndoRedoHistory
Fore
SplineSet
352 1469 m 1,0,-1
 351 1441 l 1,1,-1
 164 1441 l 1,2,-1
 163 1474 l 1,3,4
 164 1632 164 1632 227 1705 c 128,-1,5
 290 1778 290 1778 433 1778 c 128,-1,6
 576 1778 576 1778 644 1702.5 c 128,-1,7
 712 1627 712 1627 712 1474 c 0,8,9
 712 1273 712 1273 592 1233 c 1,10,11
 662 1203 662 1203 688.5 1133 c 128,-1,12
 715 1063 715 1063 715 945 c 0,13,14
 715 773 715 773 645.5 687.5 c 128,-1,15
 576 602 576 602 428.5 602 c 128,-1,16
 281 602 281 602 219.5 681 c 128,-1,17
 158 760 158 760 158 927 c 2,18,-1
 158 1005 l 1,19,-1
 344 1005 l 1,20,-1
 344 926 l 2,21,22
 344 830 344 830 361 793 c 128,-1,23
 378 756 378 756 432 756 c 128,-1,24
 486 756 486 756 502.5 799 c 128,-1,25
 519 842 519 842 519 949.5 c 128,-1,26
 519 1057 519 1057 493 1107 c 128,-1,27
 467 1157 467 1157 395 1157 c 2,28,-1
 366 1157 l 1,29,-1
 366 1297 l 1,30,-1
 392 1297 l 1,31,32
 463 1300 463 1300 491 1337 c 128,-1,33
 519 1374 519 1374 519 1466 c 128,-1,34
 519 1558 519 1558 497.5 1591.5 c 128,-1,35
 476 1625 476 1625 431.5 1625 c 128,-1,36
 387 1625 387 1625 369.5 1590 c 128,-1,37
 352 1555 352 1555 352 1469 c 1,0,-1
EndSplineSet
EndChar

StartChar: acute
Encoding: 180 180 118
Width: 650
Flags: W
LayerCount: 2
UndoRedoHistory
Layer: 1
Undoes
EndUndoes
Redoes
EndRedoes
EndUndoRedoHistory
Fore
SplineSet
101 1763 m 1,0,-1
 101 1919 l 1,1,-1
 542 2111 l 1,2,-1
 542 1853 l 1,3,-1
 101 1763 l 1,0,-1
EndSplineSet
EndChar

StartChar: paragraph
Encoding: 182 182 119
Width: 1119
Flags: W
LayerCount: 2
UndoRedoHistory
Layer: 1
Undoes
EndUndoes
Redoes
EndRedoes
EndUndoRedoHistory
Fore
SplineSet
442 0 m 1,0,-1
 442 1087 l 1,1,2
 272 1106 272 1106 190.5 1190 c 128,-1,3
 109 1274 109 1274 109 1437 c 0,4,5
 109 1664 109 1664 304 1724 c 0,6,7
 424 1761 424 1761 641 1761 c 2,8,-1
 973 1761 l 1,9,-1
 973 0 l 1,10,-1
 779 0 l 1,11,-1
 779 1527 l 1,12,-1
 636 1527 l 1,13,-1
 636 0 l 1,14,-1
 442 0 l 1,0,-1
EndSplineSet
EndChar

StartChar: periodcentered
Encoding: 183 183 120
Width: 480
Flags: W
LayerCount: 2
UndoRedoHistory
Layer: 1
Undoes
EndUndoes
Redoes
EndRedoes
EndUndoRedoHistory
Fore
SplineSet
132 750 m 1,0,-1
 132 995 l 1,1,-1
 363 995 l 1,2,-1
 363 750 l 1,3,-1
 132 750 l 1,0,-1
EndSplineSet
EndChar

StartChar: cedilla
Encoding: 184 184 121
Width: 1015
Flags: W
LayerCount: 2
UndoRedoHistory
Layer: 1
Undoes
EndUndoes
Redoes
EndRedoes
EndUndoRedoHistory
Fore
SplineSet
317 -501 m 1,0,1
 548 -501 548 -501 548 -360 c 0,2,3
 548 -296 548 -296 501.5 -253.5 c 128,-1,4
 455 -211 455 -211 388 -196 c 1,5,-1
 428 0 l 1,6,-1
 510 0 l 1,7,-1
 525 -141 l 1,8,9
 753 -219 753 -219 753 -405 c 0,10,11
 753 -496 753 -496 675.5 -567 c 128,-1,12
 598 -638 598 -638 466 -638 c 0,13,14
 388 -638 388 -638 317 -612 c 1,15,-1
 317 -501 l 1,0,1
EndSplineSet
EndChar

StartChar: uni00B9
Encoding: 185 185 122
Width: 628
Flags: W
LayerCount: 2
UndoRedoHistory
Layer: 1
Undoes
EndUndoes
Redoes
EndRedoes
EndUndoRedoHistory
Fore
SplineSet
238 564 m 1,0,-1
 238 1528 l 1,1,2
 172 1479 172 1479 76 1479 c 1,3,-1
 76 1609 l 1,4,5
 141 1614 141 1614 211 1657 c 128,-1,6
 281 1700 281 1700 295 1759 c 1,7,-1
 444 1759 l 1,8,-1
 444 564 l 1,9,-1
 238 564 l 1,0,-1
EndSplineSet
EndChar

StartChar: ordmasculine
Encoding: 186 186 123
Width: 908
Flags: W
LayerCount: 2
UndoRedoHistory
Layer: 1
Undoes
EndUndoes
Redoes
EndRedoes
EndUndoRedoHistory
Fore
SplineSet
466 551 m 0,0,1
 551 551 551 551 551 725 c 2,2,-1
 551 1260 l 2,3,4
 551 1347 551 1347 532 1391 c 128,-1,5
 513 1435 513 1435 463 1435 c 128,-1,6
 413 1435 413 1435 394 1391.5 c 128,-1,7
 375 1348 375 1348 375 1260 c 2,8,-1
 375 725 l 2,9,10
 375 551 375 551 466 551 c 0,0,1
464 381 m 0,11,12
 298 381 298 381 228.5 480.5 c 128,-1,13
 159 580 159 580 159 776 c 2,14,-1
 159 1222 l 2,15,16
 159 1606 159 1606 464 1606 c 0,17,18
 637 1606 637 1606 701.5 1502 c 128,-1,19
 766 1398 766 1398 766 1222 c 2,20,-1
 766 776 l 2,21,22
 766 479 766 479 608 408 c 0,23,24
 548 381 548 381 464 381 c 0,11,12
EndSplineSet
EndChar

StartChar: guillemotright
Encoding: 187 187 124
Width: 1304
Flags: W
LayerCount: 2
UndoRedoHistory
Layer: 1
Undoes
EndUndoes
Redoes
EndRedoes
EndUndoRedoHistory
Fore
SplineSet
151 327 m 1,0,-1
 151 599 l 1,1,-1
 463 749 l 1,2,-1
 151 890 l 1,3,-1
 151 1158 l 1,4,-1
 641 887 l 1,5,-1
 641 612 l 1,6,-1
 151 327 l 1,0,-1
704 327 m 1,7,-1
 704 599 l 1,8,-1
 1016 749 l 1,9,-1
 704 890 l 1,10,-1
 704 1158 l 1,11,-1
 1195 887 l 1,12,-1
 1195 612 l 1,13,-1
 704 327 l 1,7,-1
EndSplineSet
EndChar

StartChar: onequarter
Encoding: 188 188 125
Width: 1535
Flags: W
LayerCount: 2
UndoRedoHistory
Layer: 1
Undoes
EndUndoes
Redoes
EndRedoes
EndUndoRedoHistory
Fore
SplineSet
1191 0 m 1,0,-1
 1191 192 l 1,1,-1
 902 192 l 1,2,-1
 902 306 l 1,3,-1
 1127 1065 l 1,4,-1
 1350 1065 l 1,5,-1
 1350 324 l 1,6,-1
 1419 324 l 1,7,-1
 1419 192 l 1,8,-1
 1350 192 l 1,9,-1
 1350 0 l 1,10,-1
 1191 0 l 1,0,-1
232 551 m 1,11,-1
 232 1466 l 1,12,13
 176 1419 176 1419 90 1419 c 1,14,-1
 90 1538 l 1,15,16
 147 1543 147 1543 206.5 1583.5 c 128,-1,17
 266 1624 266 1624 280 1680 c 1,18,-1
 412 1680 l 1,19,-1
 412 551 l 1,20,-1
 232 551 l 1,11,-1
423 0 m 1,21,-1
 923 1767 l 1,22,-1
 1112 1767 l 1,23,-1
 612 0 l 1,24,-1
 423 0 l 1,21,-1
1050 324 m 1,25,-1
 1191 324 l 1,26,-1
 1191 864 l 1,27,-1
 1050 324 l 1,25,-1
EndSplineSet
EndChar

StartChar: onehalf
Encoding: 189 189 126
Width: 1620
Flags: W
LayerCount: 2
UndoRedoHistory
Layer: 1
Undoes
EndUndoes
Redoes
EndRedoes
EndUndoRedoHistory
Fore
SplineSet
1296 1002 m 0,0,1
 1225 1002 1225 1002 1225 834 c 2,2,-1
 1225 689 l 1,3,-1
 1055 689 l 1,4,-1
 1054 759 l 1,5,6
 1054 918 1054 918 1074 986 c 0,7,8
 1094 1054 1094 1054 1122 1084 c 0,9,10
 1181 1148 1181 1148 1301 1148 c 128,-1,11
 1421 1148 1421 1148 1477 1061 c 128,-1,12
 1533 974 1533 974 1533 862.5 c 128,-1,13
 1533 751 1533 751 1510 672.5 c 128,-1,14
 1487 594 1487 594 1450.5 530.5 c 128,-1,15
 1414 467 1414 467 1376 408 c 0,16,17
 1277 256 1277 256 1245 138 c 1,18,-1
 1521 138 l 1,19,-1
 1521 0 l 1,20,-1
 1057 0 l 1,21,-1
 1057 58 l 2,22,23
 1057 163 1057 163 1151 352 c 128,-1,24
 1245 541 1245 541 1313 624 c 1,25,26
 1365 706 1365 706 1365 819 c 128,-1,27
 1365 932 1365 932 1347.5 967 c 128,-1,28
 1330 1002 1330 1002 1296 1002 c 0,0,1
232 551 m 1,29,-1
 232 1466 l 1,30,31
 176 1419 176 1419 90 1419 c 1,32,-1
 90 1538 l 1,33,34
 147 1543 147 1543 206.5 1583.5 c 128,-1,35
 266 1624 266 1624 280 1680 c 1,36,-1
 412 1680 l 1,37,-1
 412 551 l 1,38,-1
 232 551 l 1,29,-1
423 0 m 1,39,-1
 923 1767 l 1,40,-1
 1112 1767 l 1,41,-1
 612 0 l 1,42,-1
 423 0 l 1,39,-1
EndSplineSet
EndChar

StartChar: threequarters
Encoding: 190 190 127
Width: 1555
Flags: W
LayerCount: 2
UndoRedoHistory
Layer: 1
Undoes
EndUndoes
Redoes
EndRedoes
EndUndoRedoHistory
Fore
SplineSet
250 1404 m 1,0,-1
 249 1378 l 1,1,-1
 88 1378 l 1,2,-1
 88 1408 l 2,3,4
 88 1554 88 1554 144 1622.5 c 128,-1,5
 200 1691 200 1691 323 1691 c 0,6,7
 561 1691 561 1691 561 1408 c 0,8,9
 561 1221 561 1221 456 1183 c 1,10,11
 516 1155 516 1155 540 1089 c 128,-1,12
 564 1023 564 1023 564 889.5 c 128,-1,13
 564 756 564 756 504.5 677 c 128,-1,14
 445 598 445 598 319 598 c 128,-1,15
 193 598 193 598 138 672 c 128,-1,16
 83 746 83 746 83 899 c 2,17,-1
 83 969 l 1,18,-1
 243 969 l 1,19,-1
 243 899 l 2,20,21
 243 807 243 807 258 772 c 128,-1,22
 273 737 273 737 321.5 737 c 128,-1,23
 370 737 370 737 385.5 777.5 c 128,-1,24
 401 818 401 818 401 919.5 c 128,-1,25
 401 1021 401 1021 377.5 1068 c 128,-1,26
 354 1115 354 1115 290 1115 c 0,27,28
 268 1115 268 1115 265 1114 c 1,29,-1
 265 1250 l 1,30,-1
 286 1250 l 1,31,32
 328 1251 328 1251 352 1263 c 0,33,34
 401.504950495 1287.75247525 401.504950495 1287.75247525 401.504950495 1386.51730223 c 0,35,36
 401.504950495 1488.19207921 401.504950495 1488.19207921 381 1521 c 0,37,38
 361 1553 361 1553 321.5 1553 c 128,-1,39
 282 1553 282 1553 266 1519.5 c 128,-1,40
 250 1486 250 1486 250 1404 c 1,0,-1
1211 0 m 1,41,-1
 1211 192 l 1,42,-1
 922 192 l 1,43,-1
 922 306 l 1,44,-1
 1147 1065 l 1,45,-1
 1370 1065 l 1,46,-1
 1370 324 l 1,47,-1
 1439 324 l 1,48,-1
 1439 192 l 1,49,-1
 1370 192 l 1,50,-1
 1370 0 l 1,51,-1
 1211 0 l 1,41,-1
474 0 m 1,52,-1
 974 1767 l 1,53,-1
 1163 1767 l 1,54,-1
 663 0 l 1,55,-1
 474 0 l 1,52,-1
1070 324 m 1,56,-1
 1211 324 l 1,57,-1
 1211 864 l 1,58,-1
 1070 324 l 1,56,-1
EndSplineSet
EndChar

StartChar: AE
Encoding: 198 198 135
Width: 1246
Flags: W
LayerCount: 2
UndoRedoHistory
Layer: 1
Undoes
EndUndoes
Redoes
EndRedoes
EndUndoRedoHistory
Fore
SplineSet
52 0 m 1,0,-1
 366 1761 l 1,1,-1
 1152 1761 l 1,2,-1
 1152 1529 l 1,3,-1
 874 1529 l 1,4,-1
 874 1017 l 1,5,-1
 1136 1017 l 1,6,-1
 1136 785 l 1,7,-1
 874 785 l 1,8,-1
 874 231 l 1,9,-1
 1164 231 l 1,10,-1
 1164 0 l 1,11,-1
 606 0 l 1,12,-1
 606 314 l 1,13,-1
 366 314 l 1,14,-1
 312 0 l 1,15,-1
 52 0 l 1,0,-1
396 512 m 1,16,-1
 606 512 l 1,17,-1
 606 1530 l 1,18,-1
 571 1529 l 1,19,-1
 396 512 l 1,16,-1
EndSplineSet
EndChar

StartChar: multiply
Encoding: 215 215 152
Width: 710
Flags: W
LayerCount: 2
UndoRedoHistory
Layer: 1
Undoes
EndUndoes
Redoes
EndRedoes
EndUndoRedoHistory
Fore
SplineSet
208 314 m 1,0,-1
 44 478 l 1,1,-1
 191 625 l 1,2,-1
 44 772 l 1,3,-1
 208 936 l 1,4,-1
 355 789 l 1,5,-1
 502 936 l 1,6,-1
 666 772 l 1,7,-1
 519 625 l 1,8,-1
 666 478 l 1,9,-1
 502 314 l 1,10,-1
 355 461 l 1,11,-1
 208 314 l 1,0,-1
EndSplineSet
EndChar

StartChar: Oslash
Encoding: 216 216 153
Width: 900
Flags: W
LayerCount: 2
UndoRedoHistory
Layer: 1
Undoes
EndUndoes
Redoes
EndRedoes
EndUndoRedoHistory
Fore
SplineSet
619 1328 m 1,0,1
 617 1439 617 1439 594.5 1494 c 128,-1,2
 572 1549 572 1549 503.5 1549 c 128,-1,3
 435 1549 435 1549 407.5 1491.5 c 128,-1,4
 380 1434 380 1434 380 1310 c 2,5,-1
 380 648 l 1,6,-1
 619 1328 l 1,0,1
193 -206 m 1,7,-1
 94 -166 l 1,8,-1
 195 121 l 1,9,10
 110 248 110 248 110 492 c 2,11,-1
 110 1297 l 2,12,13
 110 1781 110 1781 505 1781 c 0,14,15
 663 1781 663 1781 752 1707 c 1,16,-1
 822 1906 l 1,17,-1
 929 1870 l 1,18,-1
 833 1599 l 1,19,20
 888 1483 888 1483 888 1297 c 2,21,-1
 888 492 l 2,22,23
 888 234 888 234 796 107 c 128,-1,24
 704 -20 704 -20 502 -20 c 0,25,26
 366 -20 366 -20 279 37 c 1,27,-1
 193 -206 l 1,7,-1
404 273 m 0,28,29
 428 212 428 212 500.5 212 c 128,-1,30
 573 212 573 212 596 274.5 c 128,-1,31
 619 337 619 337 619 489 c 2,32,-1
 619 996 l 1,33,-1
 388 343 l 1,34,35
 394 299 394 299 404 273 c 0,28,29
EndSplineSet
EndChar

StartChar: Thorn
Encoding: 222 222 159
Width: 982
Flags: W
LayerCount: 2
UndoRedoHistory
Layer: 1
Undoes
EndUndoes
Redoes
EndRedoes
EndUndoRedoHistory
Fore
SplineSet
146 0 m 1,0,-1
 146 1761 l 1,1,-1
 414 1761 l 1,2,-1
 414 1497 l 1,3,-1
 550 1497 l 2,4,5
 757 1497 757 1497 831.5 1366.5 c 128,-1,6
 906 1236 906 1236 910 981 c 1,7,-1
 910 953 l 2,8,9
 910 538 910 538 730 444 c 0,10,11
 661 408 661 408 559 408 c 2,12,-1
 414 408 l 1,13,-1
 414 0 l 1,14,-1
 146 0 l 1,0,-1
414 630 m 1,15,-1
 506 630 l 2,16,17
 590 630 590 630 616 700 c 128,-1,18
 642 770 642 770 642 955 c 2,19,-1
 642 979 l 2,20,21
 642 1143 642 1143 615.5 1216.5 c 128,-1,22
 589 1290 589 1290 508 1290 c 2,23,-1
 414 1290 l 1,24,-1
 414 630 l 1,15,-1
EndSplineSet
EndChar

StartChar: germandbls
Encoding: 223 223 160
Width: 1032
Flags: W
LayerCount: 2
UndoRedoHistory
Layer: 1
Undoes
EndUndoes
Redoes
EndRedoes
EndUndoRedoHistory
Fore
SplineSet
135 0 m 1,0,-1
 135 1417 l 2,1,2
 135 1605 135 1605 220 1693 c 128,-1,3
 305 1781 305 1781 509 1781 c 128,-1,4
 713 1781 713 1781 804.5 1698.5 c 128,-1,5
 896 1616 896 1616 896 1417 c 2,6,-1
 896 1220 l 2,7,8
 896 1102 896 1102 860 1037.5 c 128,-1,9
 824 973 824 973 737 945 c 1,10,11
 860 916 860 916 908 823.5 c 128,-1,12
 956 731 956 731 956 553 c 2,13,-1
 956 476 l 2,14,15
 956 288 956 288 924 204 c 0,16,17
 890 120 890 120 850 81 c 0,18,19
 764 0 764 0 593 0 c 2,20,-1
 489 0 l 1,21,-1
 489 212 l 1,22,23
 611 212 611 212 653 248.5 c 128,-1,24
 695 285 695 285 695 395 c 2,25,-1
 695 656 l 2,26,27
 695 756 695 756 652.5 794 c 128,-1,28
 610 832 610 832 498 832 c 1,29,-1
 498 1032 l 1,30,31
 575 1032 575 1032 605 1064.5 c 128,-1,32
 635 1097 635 1097 635 1170 c 2,33,-1
 635 1438 l 2,34,35
 635 1507 635 1507 608.5 1534.5 c 128,-1,36
 582 1562 582 1562 519.5 1562 c 128,-1,37
 457 1562 457 1562 428.5 1533.5 c 128,-1,38
 400 1505 400 1505 400 1438 c 2,39,-1
 400 0 l 1,40,-1
 135 0 l 1,0,-1
EndSplineSet
EndChar

StartChar: ae
Encoding: 230 230 167
Width: 1443
Flags: W
LayerCount: 2
UndoRedoHistory
Layer: 1
Undoes
EndUndoes
Redoes
EndRedoes
EndUndoRedoHistory
Fore
SplineSet
1075 464 m 1,0,-1
 1074 548 l 1,1,-1
 1074 569 l 1,2,-1
 1337 569 l 1,3,-1
 1337 499 l 2,4,5
 1337 296 1337 296 1307.5 205 c 128,-1,6
 1278 114 1278 114 1240 72 c 0,7,8
 1157 -18 1157 -18 985 -18 c 0,9,10
 888 -18 888 -18 819.5 21 c 128,-1,11
 751 60 751 60 718 128 c 1,12,13
 680 69 680 69 603.5 27 c 128,-1,14
 527 -15 527 -15 438 -15 c 0,15,16
 276 -15 276 -15 191.5 95 c 128,-1,17
 107 205 107 205 107 406 c 2,18,-1
 107 506 l 1,19,20
 109 646 109 646 181 756 c 0,21,22
 206 794 206 794 276 834 c 128,-1,23
 346 874 346 874 385.5 890.5 c 128,-1,24
 425 907 425 907 498 934 c 128,-1,25
 571 961 571 961 592 969 c 1,26,27
 592 1003 592 1003 592 1026.5 c 128,-1,28
 592 1050 592 1050 592 1112.5 c 128,-1,29
 592 1175 592 1175 574 1239.5 c 128,-1,30
 556 1304 556 1304 494 1304 c 128,-1,31
 432 1304 432 1304 410.5 1260.5 c 128,-1,32
 389 1217 389 1217 389 1109 c 2,33,-1
 389 1036 l 1,34,-1
 128 1036 l 1,35,36
 127 1042 127 1042 127 1116 c 0,37,38
 127 1294 127 1294 206.5 1406 c 128,-1,39
 286 1518 286 1518 501 1518 c 0,40,41
 663 1518 663 1518 730 1409 c 1,42,43
 807 1518 807 1518 994.5 1518 c 128,-1,44
 1182 1518 1182 1518 1260.5 1397 c 128,-1,45
 1339 1276 1339 1276 1339 1053 c 0,46,47
 1339 752 1339 752 1337 726 c 1,48,-1
 860 726 l 1,49,-1
 860 472 l 2,50,51
 860 325 860 325 883 260.5 c 128,-1,52
 906 196 906 196 964.5 196 c 128,-1,53
 1023 196 1023 196 1043 235 c 0,54,55
 1075 296 1075 296 1075 464 c 1,0,-1
399 242.5 m 128,-1,57
 421 197 421 197 470.5 197 c 128,-1,58
 520 197 520 197 551.5 230.5 c 128,-1,59
 583 264 583 264 591 306 c 1,60,-1
 591 803 l 1,61,62
 524 773 524 773 488 753 c 0,63,64
 452 734 452 734 424 704 c 0,65,66
 377 654 377 654 377 544 c 2,67,-1
 377 393 l 2,68,56
 377 288 377 288 399 242.5 c 128,-1,57
860 906 m 1,69,-1
 1074 906 l 1,70,-1
 1074 1079 l 2,71,72
 1074 1202 1074 1202 1054.5 1255.5 c 128,-1,73
 1035 1309 1035 1309 978.5 1309 c 128,-1,74
 922 1309 922 1309 903 1284 c 0,75,76
 872 1242 872 1242 866 1191 c 128,-1,77
 860 1140 860 1140 860 1057 c 2,78,-1
 860 906 l 1,69,-1
EndSplineSet
EndChar

StartChar: eth
Encoding: 240 240 177
Width: 1013
Flags: W
LayerCount: 2
UndoRedoHistory
Layer: 1
Undoes
EndUndoes
Redoes
EndRedoes
EndUndoRedoHistory
Fore
SplineSet
430 1098 m 0,0,1
 546 1098 546 1098 605 1042 c 1,2,3
 605 1093 605 1093 589.5 1212.5 c 128,-1,4
 574 1332 574 1332 551 1378 c 1,5,-1
 342 1262 l 1,6,-1
 277 1399 l 1,7,-1
 466 1505 l 1,8,9
 395 1586 395 1586 269 1630 c 1,10,-1
 406 1781 l 1,11,12
 576 1755 576 1755 687 1625 c 1,13,-1
 886 1735 l 1,14,-1
 952 1598 l 1,15,-1
 773 1498 l 1,16,17
 818 1418 818 1418 850.5 1208 c 128,-1,18
 883 998 883 998 883 857 c 2,19,-1
 883 527 l 2,20,21
 883 180 883 180 770 70 c 1,22,23
 676 -20 676 -20 491 -21 c 1,24,25
 267 -21 267 -21 181 104.5 c 128,-1,26
 95 230 95 230 95 483 c 2,27,-1
 95 586 l 2,28,29
 95 853 95 853 175 975.5 c 128,-1,30
 255 1098 255 1098 430 1098 c 0,0,1
489 212 m 128,-1,32
 561 212 561 212 588 267.5 c 128,-1,33
 615 323 615 323 615 456 c 2,34,-1
 615 776 l 1,35,36
 609 819 609 819 573.5 846 c 128,-1,37
 538 873 538 873 476 873 c 128,-1,38
 414 873 414 873 388.5 815 c 128,-1,39
 363 757 363 757 363 613 c 2,40,-1
 363 434 l 2,41,42
 363 307 363 307 390 259.5 c 128,-1,31
 417 212 417 212 489 212 c 128,-1,32
EndSplineSet
EndChar

StartChar: divide
Encoding: 247 247 184
Width: 804
Flags: W
LayerCount: 2
UndoRedoHistory
Layer: 1
Undoes
EndUndoes
Redoes
EndRedoes
EndUndoRedoHistory
Fore
SplineSet
253 237 m 1,0,-1
 253 535 l 1,1,-1
 551 535 l 1,2,-1
 551 237 l 1,3,-1
 253 237 l 1,0,-1
94 638 m 1,4,-1
 94 870 l 1,5,-1
 710 870 l 1,6,-1
 710 638 l 1,7,-1
 94 638 l 1,4,-1
253 976 m 1,8,-1
 253 1274 l 1,9,-1
 551 1274 l 1,10,-1
 551 976 l 1,11,-1
 253 976 l 1,8,-1
EndSplineSet
EndChar

StartChar: oslash
Encoding: 248 248 185
Width: 879
Flags: W
LayerCount: 2
UndoRedoHistory
Layer: 1
Undoes
EndUndoes
Redoes
EndRedoes
EndUndoRedoHistory
Fore
SplineSet
573 1242 m 1,0,1
 533 1293 533 1293 486 1304 c 1,2,3
 423 1304 423 1304 400 1249.5 c 128,-1,4
 377 1195 377 1195 377 1084 c 2,5,-1
 377 544 l 1,6,-1
 573 1242 l 1,0,1
240 55 m 1,7,8
 110 165 110 165 110 476 c 2,9,-1
 110 1037 l 2,10,11
 110 1518 110 1518 486 1518 c 0,12,13
 575 1518 575 1518 642 1491 c 1,14,-1
 693 1672 l 1,15,-1
 794 1644 l 1,16,-1
 735 1433 l 1,17,18
 860 1316 860 1316 860 1037 c 2,19,-1
 860 476 l 2,20,21
 860 101 860 101 667 15 c 0,22,23
 593 -18 593 -18 496 -18 c 128,-1,24
 399 -18 399 -18 334 4 c 1,25,-1
 284 -173 l 1,26,-1
 184 -145 l 1,27,-1
 240 55 l 1,7,8
402 247 m 1,28,29
 426 196 426 196 487 196 c 128,-1,30
 548 196 548 196 570.5 250.5 c 128,-1,31
 593 305 593 305 593 413 c 2,32,-1
 593 928 l 1,33,-1
 402 247 l 1,28,29
EndSplineSet
EndChar

StartChar: thorn
Encoding: 254 254 191
Width: 1000
Flags: W
LayerCount: 2
UndoRedoHistory
Layer: 1
Undoes
EndUndoes
Redoes
EndRedoes
EndUndoRedoHistory
Fore
SplineSet
133 -285 m 1,0,-1
 133 1775 l 1,1,-1
 399 1775 l 1,2,-1
 399 1365 l 1,3,4
 427 1436 427 1436 486.5 1475.5 c 128,-1,5
 546 1515 546 1515 612 1515 c 128,-1,6
 678 1515 678 1515 728 1491 c 0,7,8
 819 1447 819 1447 852 1335 c 128,-1,9
 885 1223 885 1223 885 1048 c 2,10,-1
 885 501 l 2,11,12
 885 190 885 190 809.5 86 c 128,-1,13
 734 -18 734 -18 586 -18 c 0,14,15
 528 -18 528 -18 479 13 c 128,-1,16
 430 44 430 44 399 91 c 1,17,-1
 399 -285 l 1,18,-1
 133 -285 l 1,0,-1
515 198 m 0,19,20
 578 198 578 198 599 258 c 128,-1,21
 620 318 620 318 620 451 c 2,22,-1
 620 1069 l 2,23,24
 620 1191 620 1191 608.5 1222 c 128,-1,25
 597 1253 597 1253 580.5 1277 c 128,-1,26
 564 1301 564 1301 520 1301 c 0,27,28
 476 1300 476 1300 452 1282 c 0,29,30
 398.981818182 1242.72727273 398.981818182 1242.72727273 398.981818182 1076.21090909 c 0,31,32
 398.981818182 1073.12727273 398.981818182 1073.12727273 399 1070 c 1,33,-1
 399 440 l 2,34,35
 399 252 399 252 456 214 c 0,36,37
 479 198 479 198 515 198 c 0,19,20
EndSplineSet
EndChar

StartChar: Hbar
Encoding: 294 294 231
Width: 1040
Flags: W
LayerCount: 2
UndoRedoHistory
Layer: 1
Undoes
EndUndoes
Redoes
EndRedoes
EndUndoRedoHistory
Fore
SplineSet
400 1378 m 1,0,-1
 400 1048 l 1,1,-1
 640 1048 l 1,2,-1
 640 1378 l 1,3,-1
 400 1378 l 1,0,-1
55 1378 m 1,4,-1
 55 1509 l 1,5,-1
 132 1509 l 1,6,-1
 132 1760 l 1,7,-1
 400 1760 l 1,8,-1
 400 1509 l 1,9,-1
 640 1509 l 1,10,-1
 640 1760 l 1,11,-1
 908 1760 l 1,12,-1
 908 1509 l 1,13,-1
 1005 1509 l 1,14,-1
 1005 1378 l 1,15,-1
 908 1378 l 1,16,-1
 908 0 l 1,17,-1
 640 0 l 1,18,-1
 640 818 l 1,19,-1
 400 818 l 1,20,-1
 400 0 l 1,21,-1
 132 0 l 1,22,-1
 132 1378 l 1,23,-1
 55 1378 l 1,4,-1
EndSplineSet
EndChar

StartChar: hbar
Encoding: 295 295 232
Width: 1016
Flags: W
LayerCount: 2
UndoRedoHistory
Layer: 1
Undoes
EndUndoes
Redoes
EndRedoes
EndUndoRedoHistory
Fore
SplineSet
132 1702 m 1,0,-1
 132 1775 l 1,1,-1
 397 1775 l 1,2,-1
 397 1702 l 1,3,-1
 663 1702 l 1,4,-1
 663 1593 l 1,5,-1
 397 1593 l 1,6,-1
 397 1328 l 1,7,8
 418 1409 418 1409 480 1463.5 c 128,-1,9
 542 1518 542 1518 630 1518 c 0,10,11
 760 1518 760 1518 827 1431.5 c 128,-1,12
 894 1345 894 1345 894 1181 c 2,13,-1
 894 0 l 1,14,-1
 630 0 l 1,15,-1
 630 1156 l 2,16,17
 630 1301 630 1301 524 1301 c 0,18,19
 463 1301 463 1301 430 1251 c 128,-1,20
 397 1201 397 1201 397 1115 c 2,21,-1
 397 0 l 1,22,-1
 132 0 l 1,23,-1
 132 1593 l 1,24,-1
 0 1593 l 1,25,-1
 0 1702 l 1,26,-1
 132 1702 l 1,0,-1
EndSplineSet
EndChar

StartChar: dotlessi
Encoding: 305 305 242
Width: 537
Flags: W
LayerCount: 2
UndoRedoHistory
Layer: 1
Undoes
EndUndoes
Redoes
EndRedoes
EndUndoRedoHistory
Fore
SplineSet
136 0 m 1,0,-1
 136 1500 l 1,1,-1
 401 1500 l 1,2,-1
 401 0 l 1,3,-1
 136 0 l 1,0,-1
EndSplineSet
EndChar

StartChar: kgreenlandic
Encoding: 312 312 249
Width: 937
Flags: W
LayerCount: 2
UndoRedoHistory
Layer: 1
Undoes
EndUndoes
Redoes
EndRedoes
EndUndoRedoHistory
Fore
SplineSet
132 0 m 1,0,-1
 132 1499 l 1,1,-1
 397 1499 l 1,2,-1
 397 818 l 1,3,-1
 653 1500 l 1,4,-1
 922 1500 l 1,5,-1
 633 762 l 1,6,-1
 939 0 l 1,7,-1
 669 0 l 1,8,-1
 397 713 l 1,9,-1
 397 0 l 1,10,-1
 132 0 l 1,0,-1
EndSplineSet
EndChar

StartChar: Lcaron
Encoding: 317 317 254
Width: 779
Flags: W
LayerCount: 2
UndoRedoHistory
Layer: 1
Undoes
EndUndoes
Redoes
EndRedoes
EndUndoRedoHistory
Fore
SplineSet
132 0 m 1,0,-1
 132 1760 l 1,1,-1
 400 1760 l 1,2,-1
 400 228 l 1,3,-1
 739 228 l 1,4,-1
 739 0 l 1,5,-1
 132 0 l 1,0,-1
724 1173 m 1,6,-1
 780 1477 l 1,7,-1
 664 1477 l 1,8,-1
 664 1741 l 1,9,-1
 937 1741 l 1,10,-1
 937 1486 l 1,11,-1
 845 1173 l 1,12,-1
 724 1173 l 1,6,-1
EndSplineSet
EndChar

StartChar: Lslash
Encoding: 321 321 258
Width: 794
Flags: W
LayerCount: 2
UndoRedoHistory
Layer: 1
Undoes
EndUndoes
Redoes
EndRedoes
EndUndoRedoHistory
Fore
SplineSet
-1 732 m 1,0,-1
 -1 916 l 1,1,-1
 132 965 l 1,2,-1
 132 1760 l 1,3,-1
 400 1760 l 1,4,-1
 400 1065 l 1,5,-1
 615 1145 l 1,6,-1
 615 961 l 1,7,-1
 400 881 l 1,8,-1
 400 228 l 1,9,-1
 739 228 l 1,10,-1
 739 0 l 1,11,-1
 132 0 l 1,12,-1
 132 781 l 1,13,-1
 -1 732 l 1,0,-1
EndSplineSet
EndChar

StartChar: lslash
Encoding: 322 322 259
Width: 648
Flags: W
LayerCount: 2
UndoRedoHistory
Layer: 1
Undoes
EndUndoes
Redoes
EndRedoes
EndUndoRedoHistory
Fore
SplineSet
176 975 m 1,0,-1
 176 1775 l 1,1,-1
 440 1775 l 1,2,-1
 440 1088 l 1,3,-1
 591 1153 l 1,4,-1
 591 960 l 1,5,-1
 440 895 l 1,6,-1
 440 0 l 1,7,-1
 176 0 l 1,8,-1
 176 782 l 1,9,-1
 49 728 l 1,10,-1
 49 921 l 1,11,-1
 176 975 l 1,0,-1
EndSplineSet
EndChar

StartChar: OE
Encoding: 338 338 272
Width: 1235
Flags: W
LayerCount: 2
UndoRedoHistory
Layer: 1
Undoes
EndUndoes
Redoes
EndRedoes
EndUndoRedoHistory
Fore
SplineSet
497 0 m 2,0,1
 294 0 294 0 202 119.5 c 128,-1,2
 110 239 110 239 110 494 c 2,3,-1
 110 1295 l 2,4,5
 110 1529 110 1529 202 1645 c 128,-1,6
 294 1761 294 1761 500 1761 c 2,7,-1
 1141 1761 l 1,8,-1
 1141 1529 l 1,9,-1
 876 1529 l 1,10,-1
 876 1017 l 1,11,-1
 1125 1017 l 1,12,-1
 1125 785 l 1,13,-1
 876 785 l 1,14,-1
 876 231 l 1,15,-1
 1153 231 l 1,16,-1
 1153 0 l 1,17,-1
 497 0 l 2,0,1
497 233 m 1,18,-1
 608 233 l 1,19,-1
 608 1524 l 1,20,-1
 500 1524 l 2,21,22
 430 1524 430 1524 404 1474.5 c 128,-1,23
 378 1425 378 1425 378 1305 c 2,24,-1
 378 491 l 2,25,26
 378 339 378 339 400 286.5 c 128,-1,27
 422 234 422 234 497 233 c 1,18,-1
EndSplineSet
EndChar

StartChar: oe
Encoding: 339 339 273
Width: 1451
Flags: W
LayerCount: 2
UndoRedoHistory
Layer: 1
Undoes
EndUndoes
Redoes
EndRedoes
EndUndoRedoHistory
Fore
SplineSet
492 -18 m 0,0,1
 284 -18 284 -18 197 107 c 128,-1,2
 110 232 110 232 110 478 c 2,3,-1
 110 1037 l 2,4,5
 110 1261 110 1261 202.5 1389.5 c 128,-1,6
 295 1518 295 1518 492 1518 c 0,7,8
 640 1518 640 1518 737 1410 c 1,9,10
 829 1518 829 1518 985 1518 c 0,11,12
 1190 1518 1190 1518 1268.5 1397 c 128,-1,13
 1347 1276 1347 1276 1347 1053 c 0,14,15
 1347 752 1347 752 1345 726 c 1,16,-1
 868 726 l 1,17,-1
 868 437 l 2,18,19
 868 280 868 280 896 238 c 128,-1,20
 924 196 924 196 977.5 196 c 128,-1,21
 1031 196 1031 196 1051 235 c 0,22,23
 1082 294 1082 294 1082 430 c 128,-1,24
 1082 566 1082 566 1081 569 c 1,25,-1
 1345 569 l 1,26,-1
 1345 499 l 2,27,28
 1345 293 1345 293 1312.5 202.5 c 128,-1,29
 1280 112 1280 112 1238 70 c 0,30,31
 1150 -18 1150 -18 987 -18 c 128,-1,32
 824 -18 824 -18 737 85 c 1,33,34
 642 -18 642 -18 492 -18 c 0,0,1
404 251 m 128,-1,36
 428 196 428 196 491 196 c 128,-1,37
 554 196 554 196 578 251.5 c 128,-1,38
 602 307 602 307 602 413 c 2,39,-1
 602 1084 l 2,40,41
 602 1193 602 1193 577.5 1248.5 c 128,-1,42
 553 1304 553 1304 490.5 1304 c 128,-1,43
 428 1304 428 1304 404 1249 c 128,-1,44
 380 1194 380 1194 380 1084 c 2,45,-1
 380 413 l 2,46,35
 380 306 380 306 404 251 c 128,-1,36
868 1059 m 2,47,-1
 869 906 l 1,48,-1
 1082 906 l 1,49,-1
 1082 1079 l 2,50,51
 1082 1202 1082 1202 1062.5 1255.5 c 128,-1,52
 1043 1309 1043 1309 983 1309 c 0,53,54
 878 1309 878 1309 870 1138 c 0,55,56
 868 1106 868 1106 868 1059 c 2,47,-1
EndSplineSet
EndChar

StartChar: florin
Encoding: 402 402 313
Width: 767
Flags: W
LayerCount: 2
UndoRedoHistory
Layer: 1
Undoes
EndUndoes
Redoes
EndRedoes
EndUndoRedoHistory
Fore
SplineSet
510 221 m 2,0,1
 510 -17 510 -17 290 -17 c 0,2,3
 193 -17 193 -17 115 8 c 1,4,-1
 115 186 l 1,5,6
 153 182 153 182 163 182 c 0,7,8
 222 182 222 182 238 207 c 128,-1,9
 254 232 254 232 254 305 c 2,10,-1
 254 1056 l 1,11,-1
 107 1056 l 1,12,-1
 107 1258 l 1,13,-1
 254 1258 l 1,14,-1
 254 1539 l 2,15,16
 254 1783 254 1783 469 1783 c 0,17,18
 569 1783 569 1783 652 1752 c 1,19,-1
 652 1574 l 1,20,21
 602 1587 602 1587 570 1587 c 0,22,23
 510 1587 510 1587 510 1484 c 2,24,-1
 510 1258 l 1,25,-1
 656 1258 l 1,26,-1
 656 1056 l 1,27,-1
 510 1056 l 1,28,-1
 510 221 l 2,0,1
EndSplineSet
EndChar

StartChar: uni0237
Encoding: 567 567 356
Width: 568
Flags: W
LayerCount: 2
UndoRedoHistory
Layer: 1
Undoes
EndUndoes
Redoes
EndRedoes
EndUndoRedoHistory
Fore
SplineSet
65 32 m 1,0,-1
 92 31 l 1,1,-1
 110 31 l 1,2,3
 173 35 173 35 173 98 c 2,4,-1
 173 1500 l 1,5,-1
 438 1500 l 1,6,-1
 438 108 l 2,7,8
 438 -29 438 -29 382 -96.5 c 128,-1,9
 326 -164 326 -164 225 -166 c 0,10,11
 207 -167 207 -167 147.5 -167 c 128,-1,12
 88 -167 88 -167 65 -150 c 1,13,-1
 65 32 l 1,0,-1
EndSplineSet
EndChar

StartChar: circumflex
Encoding: 710 710 357
Width: 970
Flags: W
LayerCount: 2
UndoRedoHistory
Layer: 1
Undoes
EndUndoes
Redoes
EndRedoes
EndUndoRedoHistory
Fore
SplineSet
145 1608 m 1,0,-1
 334 1945 l 1,1,-1
 636 1945 l 1,2,-1
 824 1608 l 1,3,-1
 571 1608 l 1,4,-1
 485 1844 l 1,5,-1
 399 1608 l 1,6,-1
 145 1608 l 1,0,-1
EndSplineSet
EndChar

StartChar: caron
Encoding: 711 711 358
Width: 970
Flags: W
LayerCount: 2
UndoRedoHistory
Layer: 1
Undoes
EndUndoes
Redoes
EndRedoes
EndUndoRedoHistory
Fore
SplineSet
334 1608 m 1,0,-1
 145 1946 l 1,1,-1
 399 1946 l 1,2,-1
 485 1709 l 1,3,-1
 571 1946 l 1,4,-1
 824 1946 l 1,5,-1
 636 1608 l 1,6,-1
 334 1608 l 1,0,-1
EndSplineSet
EndChar

StartChar: uni02C9
Encoding: 713 713 359
Width: 696
Flags: W
LayerCount: 2
UndoRedoHistory
Layer: 1
Undoes
EndUndoes
Redoes
EndRedoes
EndUndoRedoHistory
Fore
SplineSet
90 509 m 1,0,-1
 90 741 l 1,1,-1
 606 741 l 1,2,-1
 606 509 l 1,3,-1
 90 509 l 1,0,-1
EndSplineSet
EndChar

StartChar: breve
Encoding: 728 728 360
Width: 1016
Flags: W
LayerCount: 2
UndoRedoHistory
Layer: 1
Undoes
EndUndoes
Redoes
EndRedoes
EndUndoRedoHistory
Fore
SplineSet
789 1879 m 2,0,1
 789 1615 789 1615 507 1615 c 128,-1,2
 225 1615 225 1615 225 1877 c 2,3,-1
 225 1892 l 1,4,-1
 375 1892 l 1,5,6
 375 1816 375 1816 409.5 1789 c 128,-1,7
 444 1762 444 1762 507 1762 c 128,-1,8
 570 1762 570 1762 604 1788.5 c 128,-1,9
 638 1815 638 1815 638 1892 c 1,10,-1
 789 1892 l 1,11,-1
 789 1879 l 2,0,1
EndSplineSet
EndChar

StartChar: dotaccent
Encoding: 729 729 361
Width: 572
Flags: W
LayerCount: 2
UndoRedoHistory
Layer: 1
Undoes
EndUndoes
Redoes
EndRedoes
EndUndoRedoHistory
Fore
SplineSet
153 896 m 1,0,-1
 153 1122 l 1,1,-1
 424 1122 l 1,2,-1
 424 896 l 1,3,-1
 153 896 l 1,0,-1
EndSplineSet
EndChar

StartChar: ring
Encoding: 730 730 362
Width: 923
Flags: W
LayerCount: 2
UndoRedoHistory
Layer: 1
Undoes
EndUndoes
Redoes
EndRedoes
EndUndoRedoHistory
Fore
SplineSet
462 1000 m 128,-1,1
 518 1000 518 1000 549.5 1039 c 128,-1,2
 581 1078 581 1078 581 1131 c 128,-1,3
 581 1184 581 1184 549.5 1222.5 c 128,-1,4
 518 1261 518 1261 462 1261 c 128,-1,5
 406 1261 406 1261 374.5 1222.5 c 128,-1,6
 343 1184 343 1184 343 1131 c 128,-1,7
 343 1078 343 1078 374.5 1039 c 128,-1,0
 406 1000 406 1000 462 1000 c 128,-1,1
631.5 969 m 128,-1,9
 569 906 569 906 461.5 906 c 128,-1,10
 354 906 354 906 291 969 c 128,-1,11
 228 1032 228 1032 228 1130 c 128,-1,12
 228 1228 228 1228 291 1291 c 128,-1,13
 354 1354 354 1354 461.5 1354 c 128,-1,14
 569 1354 569 1354 631.5 1291 c 128,-1,15
 694 1228 694 1228 694 1130 c 128,-1,8
 694 1032 694 1032 631.5 969 c 128,-1,9
EndSplineSet
EndChar

StartChar: ogonek
Encoding: 731 731 363
Width: 1015
Flags: W
LayerCount: 2
UndoRedoHistory
Layer: 1
Undoes
EndUndoes
Redoes
EndRedoes
EndUndoRedoHistory
Fore
SplineSet
643 -626 m 0,0,1
 506 -626 506 -626 432 -560.5 c 128,-1,2
 358 -495 358 -495 358 -387.5 c 128,-1,3
 358 -280 358 -280 427 -175.5 c 128,-1,4
 496 -71 496 -71 624 0 c 1,5,-1
 731 0 l 1,6,7
 551 -189 551 -189 551 -339 c 0,8,9
 551 -403 551 -403 591.5 -435.5 c 128,-1,10
 632 -468 632 -468 689.5 -468 c 128,-1,11
 747 -468 747 -468 812 -453 c 1,12,-1
 812 -591 l 1,13,14
 792 -602 792 -602 741 -614 c 128,-1,15
 690 -626 690 -626 643 -626 c 0,0,1
EndSplineSet
EndChar

StartChar: tilde
Encoding: 732 732 364
Width: 1117
Flags: W
LayerCount: 2
UndoRedoHistory
Layer: 1
Undoes
EndUndoes
Redoes
EndRedoes
EndUndoRedoHistory
Fore
SplineSet
821.5 944.5 m 128,-1,1
 781 906 781 906 723.5 906 c 128,-1,2
 666 906 666 906 567 947 c 128,-1,3
 468 988 468 988 439.5 988 c 128,-1,4
 411 988 411 988 395.5 984.5 c 128,-1,5
 380 981 380 981 353 927 c 1,6,-1
 223 979 l 1,7,8
 251 1077 251 1077 298.5 1119 c 128,-1,9
 346 1161 346 1161 402.5 1161 c 128,-1,10
 459 1161 459 1161 564 1124 c 128,-1,11
 669 1087 669 1087 690 1087 c 2,12,-1
 694 1087 l 1,13,14
 711 1090 711 1090 723.5 1103.5 c 128,-1,15
 736 1117 736 1117 750 1158 c 1,16,-1
 892 1130 l 1,17,-1
 883 1082 l 1,18,0
 862 983 862 983 821.5 944.5 c 128,-1,1
EndSplineSet
EndChar

StartChar: hungarumlaut
Encoding: 733 733 365
Width: 1300
Flags: W
LayerCount: 2
UndoRedoHistory
Layer: 1
Undoes
EndUndoes
Redoes
EndRedoes
EndUndoRedoHistory
Fore
SplineSet
449 953 m 1,0,-1
 336 1000 l 1,1,-1
 487 1441 l 1,2,-1
 694 1344 l 1,3,-1
 449 953 l 1,0,-1
784 948 m 1,4,-1
 673 1000 l 1,5,-1
 880 1441 l 1,6,-1
 1091 1340 l 1,7,-1
 784 948 l 1,4,-1
EndSplineSet
EndChar

StartChar: uni0307
Encoding: 775 775 366
Width: 572
Flags: W
LayerCount: 2
UndoRedoHistory
Layer: 1
Undoes
EndUndoes
Redoes
EndRedoes
EndUndoRedoHistory
Fore
SplineSet
107 955 m 1,0,-1
 107 1253 l 1,1,-1
 465 1253 l 1,2,-1
 465 955 l 1,3,-1
 107 955 l 1,0,-1
EndSplineSet
EndChar

StartChar: uni030F
Encoding: 783 783 367
Width: 825
Flags: W
LayerCount: 2
UndoRedoHistory
Layer: 1
Undoes
EndUndoes
Redoes
EndRedoes
EndUndoRedoHistory
Fore
SplineSet
277 1644 m 1,0,-1
 3 2006 l 1,1,-1
 194 2109 l 1,2,-1
 400 1697 l 1,3,-1
 277 1644 l 1,0,-1
601 1644 m 1,4,-1
 368 2006 l 1,5,-1
 555 2109 l 1,6,-1
 724 1697 l 1,7,-1
 601 1644 l 1,4,-1
EndSplineSet
EndChar

StartChar: uni0311
Encoding: 785 785 368
Width: 1016
Flags: W
LayerCount: 2
UndoRedoHistory
Layer: 1
Undoes
EndUndoes
Redoes
EndRedoes
EndUndoRedoHistory
Fore
SplineSet
224 1657 m 1,0,1
 223.985915493 1658.87323944 223.985915493 1658.87323944 223.985915493 1660.73328705 c 0,2,3
 223.985915493 1923 223.985915493 1923 504 1923 c 0,4,5
 786 1923 786 1923 789 1664 c 1,6,-1
 789 1649 l 1,7,-1
 638 1648 l 1,8,9
 637 1724 637 1724 603 1750 c 128,-1,10
 569 1776 569 1776 509 1776 c 0,11,12
 406 1776 406 1776 384 1712 c 0,13,14
 374.909090909 1687.45454545 374.909090909 1687.45454545 374.909090909 1651.33884298 c 0,15,16
 374.909090909 1647.72727273 374.909090909 1647.72727273 375 1644 c 1,17,-1
 224 1644 l 1,18,-1
 224 1657 l 1,0,1
EndSplineSet
EndChar

StartChar: uni0326
Encoding: 806 806 369
Width: 528
Flags: W
LayerCount: 2
UndoRedoHistory
Layer: 1
Undoes
EndUndoes
Redoes
EndRedoes
EndUndoRedoHistory
Fore
SplineSet
181 -562 m 1,0,-1
 236 -258 l 1,1,-1
 121 -258 l 1,2,-1
 121 5 l 1,3,-1
 394 5 l 1,4,-1
 394 -249 l 1,5,-1
 302 -562 l 1,6,-1
 181 -562 l 1,0,-1
EndSplineSet
EndChar

StartChar: uni0394
Encoding: 916 916 370
Width: 921
Flags: W
LayerCount: 2
UndoRedoHistory
Layer: 1
Undoes
EndUndoes
Redoes
EndRedoes
EndUndoRedoHistory
Fore
SplineSet
306 180 m 1,0,-1
 612 180 l 1,1,-1
 475 1124 l 1,2,-1
 443 1124 l 1,3,-1
 306 180 l 1,0,-1
34 0 m 1,4,-1
 277 1353 l 1,5,-1
 641 1353 l 1,6,-1
 887 0 l 1,7,-1
 34 0 l 1,4,-1
EndSplineSet
EndChar

StartChar: uni03A9
Encoding: 937 937 371
Width: 992
Flags: W
LayerCount: 2
UndoRedoHistory
Layer: 1
Undoes
EndUndoes
Redoes
EndRedoes
EndUndoRedoHistory
Fore
SplineSet
47 0 m 1,0,-1
 47 201 l 1,1,-1
 209 201 l 1,2,3
 105 358 105 358 83 490 c 0,4,5
 72 555 72 555 72 630 c 2,6,-1
 72 1189 l 2,7,8
 72 1394 72 1394 180 1500.5 c 128,-1,9
 288 1607 288 1607 496 1607 c 128,-1,10
 704 1607 704 1607 812 1500.5 c 128,-1,11
 920 1394 920 1394 920 1189 c 2,12,-1
 920 630 l 2,13,14
 920 477 920 477 879 381 c 128,-1,15
 838 285 838 285 783 201 c 1,16,-1
 945 201 l 1,17,-1
 945 0 l 1,18,-1
 549 0 l 1,19,-1
 549 202 l 1,20,21
 641 249 641 249 641 581 c 2,22,-1
 641 1211 l 2,23,24
 641 1289 641 1289 598 1332.5 c 128,-1,25
 555 1376 555 1376 496 1376 c 128,-1,26
 437 1376 437 1376 394 1332.5 c 128,-1,27
 351 1289 351 1289 351 1211 c 2,28,-1
 351 581 l 2,29,30
 351 459 351 459 375 342.5 c 128,-1,31
 399 226 399 226 443 202 c 1,32,-1
 443 0 l 1,33,-1
 47 0 l 1,0,-1
EndSplineSet
EndChar

StartChar: uni03BC
Encoding: 956 956 372
Width: 1022
Flags: W
LayerCount: 2
UndoRedoHistory
Layer: 1
Undoes
EndUndoes
Redoes
EndRedoes
EndUndoRedoHistory
Fore
SplineSet
619 1500 m 1,0,-1
 883 1500 l 1,1,-1
 883 0 l 1,2,-1
 618 0 l 1,3,-1
 618 156 l 1,4,5
 555 -19 555 -19 389 -19 c 2,6,-1
 379 -19 l 1,7,-1
 379 -186 l 1,8,-1
 122 -186 l 1,9,-1
 122 1500 l 1,10,-1
 388 1500 l 1,11,-1
 388 381 l 2,12,13
 388 288 388 288 411 243.5 c 128,-1,14
 434 199 434 199 497 199 c 0,15,16
 617 199 617 199 619 379 c 1,17,-1
 619 1500 l 1,0,-1
EndSplineSet
EndChar

StartChar: endash
Encoding: 8211 8211 396
Width: 756
Flags: W
LayerCount: 2
UndoRedoHistory
Layer: 1
Undoes
EndUndoes
Redoes
EndRedoes
EndUndoRedoHistory
Fore
SplineSet
120 509 m 1,0,-1
 120 741 l 1,1,-1
 636 741 l 1,2,-1
 636 509 l 1,3,-1
 120 509 l 1,0,-1
EndSplineSet
EndChar

StartChar: emdash
Encoding: 8212 8212 397
Width: 1153
Flags: W
LayerCount: 2
UndoRedoHistory
Layer: 1
Undoes
EndUndoes
Redoes
EndRedoes
EndUndoRedoHistory
Fore
SplineSet
60 509 m 1,0,-1
 60 741 l 1,1,-1
 1092 741 l 1,2,-1
 1092 509 l 1,3,-1
 60 509 l 1,0,-1
EndSplineSet
EndChar

StartChar: quoteleft
Encoding: 8216 8216 398
Width: 586
Flags: W
LayerCount: 2
UndoRedoHistory
Layer: 1
Undoes
EndUndoes
Redoes
EndRedoes
EndUndoRedoHistory
Fore
SplineSet
119 1065 m 1,0,-1
 119 1336 l 1,1,-1
 255 1775 l 1,2,-1
 408 1775 l 1,3,-1
 315 1345 l 1,4,-1
 468 1345 l 1,5,-1
 468 1065 l 1,6,-1
 119 1065 l 1,0,-1
EndSplineSet
EndChar

StartChar: quoteright
Encoding: 8217 8217 399
Width: 586
Flags: W
LayerCount: 2
UndoRedoHistory
Layer: 1
Undoes
EndUndoes
Redoes
EndRedoes
EndUndoRedoHistory
Fore
SplineSet
188 1065 m 1,0,-1
 282 1494 l 1,1,-1
 129 1494 l 1,2,-1
 129 1775 l 1,3,-1
 478 1775 l 1,4,-1
 478 1503 l 1,5,-1
 342 1065 l 1,6,-1
 188 1065 l 1,0,-1
EndSplineSet
EndChar

StartChar: quotesinglbase
Encoding: 8218 8218 400
Width: 484
Flags: W
LayerCount: 2
UndoRedoHistory
Layer: 1
Undoes
EndUndoes
Redoes
EndRedoes
EndUndoRedoHistory
Fore
SplineSet
138 -324 m 1,0,-1
 216 0 l 1,1,-1
 80 0 l 1,2,-1
 80 258 l 1,3,-1
 411 258 l 1,4,-1
 411 9 l 1,5,-1
 302 -324 l 1,6,-1
 138 -324 l 1,0,-1
EndSplineSet
EndChar

StartChar: quotedblleft
Encoding: 8220 8220 401
Width: 1030
Flags: W
LayerCount: 2
UndoRedoHistory
Layer: 1
Undoes
EndUndoes
Redoes
EndRedoes
EndUndoRedoHistory
Fore
SplineSet
140 1141 m 1,0,-1
 140 1394 l 1,1,-1
 250 1775 l 1,2,-1
 414 1775 l 1,3,-1
 336 1403 l 1,4,-1
 471 1403 l 1,5,-1
 471 1141 l 1,6,-1
 140 1141 l 1,0,-1
606 1141 m 1,7,-1
 606 1394 l 1,8,-1
 716 1775 l 1,9,-1
 880 1775 l 1,10,-1
 802 1403 l 1,11,-1
 937 1403 l 1,12,-1
 937 1141 l 1,13,-1
 606 1141 l 1,7,-1
EndSplineSet
EndChar

StartChar: quotedblright
Encoding: 8221 8221 402
Width: 1077
Flags: W
LayerCount: 2
UndoRedoHistory
Layer: 1
Undoes
EndUndoes
Redoes
EndRedoes
EndUndoRedoHistory
Fore
SplineSet
212 1141 m 1,0,-1
 290 1513 l 1,1,-1
 155 1513 l 1,2,-1
 155 1775 l 1,3,-1
 486 1775 l 1,4,-1
 486 1522 l 1,5,-1
 376 1141 l 1,6,-1
 212 1141 l 1,0,-1
678 1141 m 1,7,-1
 756 1513 l 1,8,-1
 621 1513 l 1,9,-1
 621 1775 l 1,10,-1
 952 1775 l 1,11,-1
 952 1522 l 1,12,-1
 842 1141 l 1,13,-1
 678 1141 l 1,7,-1
EndSplineSet
EndChar

StartChar: quotedblbase
Encoding: 8222 8222 403
Width: 1016
Flags: W
LayerCount: 2
UndoRedoHistory
Layer: 1
Undoes
EndUndoes
Redoes
EndRedoes
EndUndoRedoHistory
Fore
SplineSet
208 -373 m 1,0,-1
 286 0 l 1,1,-1
 151 0 l 1,2,-1
 151 261 l 1,3,-1
 481 261 l 1,4,-1
 481 8 l 1,5,-1
 372 -373 l 1,6,-1
 208 -373 l 1,0,-1
674 -373 m 1,7,-1
 752 0 l 1,8,-1
 617 0 l 1,9,-1
 617 261 l 1,10,-1
 947 261 l 1,11,-1
 947 8 l 1,12,-1
 838 -373 l 1,13,-1
 674 -373 l 1,7,-1
EndSplineSet
EndChar

StartChar: dagger
Encoding: 8224 8224 404
Width: 909
Flags: W
LayerCount: 2
UndoRedoHistory
Layer: 1
Undoes
EndUndoes
Redoes
EndRedoes
EndUndoRedoHistory
Fore
SplineSet
321 0 m 1,0,-1
 321 965 l 1,1,-1
 91 965 l 1,2,-1
 91 1182 l 1,3,-1
 321 1182 l 1,4,-1
 321 1592 l 1,5,-1
 591 1592 l 1,6,-1
 591 1182 l 1,7,-1
 818 1182 l 1,8,-1
 818 965 l 1,9,-1
 591 965 l 1,10,-1
 591 0 l 1,11,-1
 321 0 l 1,0,-1
EndSplineSet
EndChar

StartChar: daggerdbl
Encoding: 8225 8225 405
Width: 909
Flags: W
LayerCount: 2
UndoRedoHistory
Layer: 1
Undoes
EndUndoes
Redoes
EndRedoes
EndUndoRedoHistory
Fore
SplineSet
321 664 m 1,0,-1
 321 965 l 1,1,-1
 91 965 l 1,2,-1
 91 1182 l 1,3,-1
 321 1182 l 1,4,-1
 321 1592 l 1,5,-1
 591 1592 l 1,6,-1
 591 1182 l 1,7,-1
 818 1182 l 1,8,-1
 818 965 l 1,9,-1
 591 965 l 1,10,-1
 591 664 l 1,11,-1
 818 664 l 1,12,-1
 818 447 l 1,13,-1
 591 447 l 1,14,-1
 591 0 l 1,15,-1
 321 0 l 1,16,-1
 321 447 l 1,17,-1
 91 447 l 1,18,-1
 91 664 l 1,19,-1
 321 664 l 1,0,-1
EndSplineSet
EndChar

StartChar: bullet
Encoding: 8226 8226 406
Width: 861
Flags: W
LayerCount: 2
UndoRedoHistory
Layer: 1
Undoes
EndUndoes
Redoes
EndRedoes
EndUndoRedoHistory
Fore
SplineSet
430 451 m 128,-1,1
 303 451 303 451 234 528 c 128,-1,2
 165 605 165 605 165 741 c 128,-1,3
 165 877 165 877 234 954 c 128,-1,4
 303 1031 303 1031 430 1031 c 128,-1,5
 557 1031 557 1031 626.5 954 c 128,-1,6
 696 877 696 877 696 741 c 128,-1,7
 696 605 696 605 626.5 528 c 128,-1,0
 557 451 557 451 430 451 c 128,-1,1
EndSplineSet
EndChar

StartChar: perthousand
Encoding: 8240 8240 407
Width: 3107
Flags: W
LayerCount: 2
UndoRedoHistory
Layer: 1
Undoes
EndUndoes
Redoes
EndRedoes
EndUndoRedoHistory
Fore
SplineSet
468 768 m 128,-1,1
 531 768 531 768 555.5 807.5 c 128,-1,2
 580 847 580 847 580 939 c 2,3,-1
 580 1431 l 2,4,5
 580 1521 580 1521 557 1557.5 c 128,-1,6
 534 1594 534 1594 468.5 1594 c 128,-1,7
 403 1594 403 1594 379.5 1557.5 c 128,-1,8
 356 1521 356 1521 356 1431 c 2,9,-1
 356 939 l 2,10,11
 356 847 356 847 380.5 807.5 c 128,-1,0
 405 768 405 768 468 768 c 128,-1,1
468 580 m 128,-1,13
 291 580 291 580 210.5 682.5 c 128,-1,14
 130 785 130 785 130 1005 c 2,15,-1
 130 1363 l 2,16,17
 130 1586 130 1586 207.5 1683.5 c 128,-1,18
 285 1781 285 1781 468 1781 c 128,-1,19
 651 1781 651 1781 728.5 1683.5 c 128,-1,20
 806 1586 806 1586 806 1363 c 2,21,-1
 806 1005 l 2,22,23
 806 785 806 785 725.5 682.5 c 128,-1,12
 645 580 645 580 468 580 c 128,-1,13
1752 167 m 128,-1,25
 1815 167 1815 167 1839.5 206.5 c 128,-1,26
 1864 246 1864 246 1864 338 c 2,27,-1
 1864 830 l 2,28,29
 1864 920 1864 920 1841 956.5 c 128,-1,30
 1818 993 1818 993 1752.5 993 c 128,-1,31
 1687 993 1687 993 1663.5 956.5 c 128,-1,32
 1640 920 1640 920 1640 830 c 2,33,-1
 1640 338 l 2,34,35
 1640 246 1640 246 1664.5 206.5 c 128,-1,24
 1689 167 1689 167 1752 167 c 128,-1,25
1752 -21 m 128,-1,37
 1575 -21 1575 -21 1494.5 81.5 c 128,-1,38
 1414 184 1414 184 1414 404 c 2,39,-1
 1414 762 l 2,40,41
 1414 985 1414 985 1491.5 1082.5 c 128,-1,42
 1569 1180 1569 1180 1752 1180 c 128,-1,43
 1935 1180 1935 1180 2012.5 1082.5 c 128,-1,44
 2090 985 2090 985 2090 762 c 2,45,-1
 2090 404 l 2,46,47
 2090 184 2090 184 2009.5 81.5 c 128,-1,36
 1929 -21 1929 -21 1752 -21 c 128,-1,37
2551.5 207 m 128,-1,49
 2576 167 2576 167 2639.5 167 c 128,-1,50
 2703 167 2703 167 2727.5 207 c 128,-1,51
 2752 247 2752 247 2752 338 c 2,52,-1
 2752 830 l 2,53,54
 2752 920 2752 920 2728.5 956.5 c 128,-1,55
 2705 993 2705 993 2639.5 993 c 128,-1,56
 2574 993 2574 993 2550.5 956.5 c 128,-1,57
 2527 920 2527 920 2527 830 c 2,58,-1
 2527 338 l 2,59,48
 2527 247 2527 247 2551.5 207 c 128,-1,49
2897.5 81.5 m 128,-1,61
 2817 -21 2817 -21 2639.5 -21 c 128,-1,62
 2462 -21 2462 -21 2381.5 81.5 c 128,-1,63
 2301 184 2301 184 2301 404 c 2,64,-1
 2301 762 l 2,65,66
 2301 985 2301 985 2378.5 1082.5 c 128,-1,67
 2456 1180 2456 1180 2639 1180 c 128,-1,68
 2822 1180 2822 1180 2900 1082.5 c 128,-1,69
 2978 985 2978 985 2978 762 c 2,70,-1
 2978 404 l 2,71,60
 2978 184 2978 184 2897.5 81.5 c 128,-1,61
662 0 m 1,72,-1
 1347 1761 l 1,73,-1
 1551 1761 l 1,74,-1
 875 0 l 1,75,-1
 662 0 l 1,72,-1
EndSplineSet
EndChar

StartChar: guilsinglleft
Encoding: 8249 8249 408
Width: 606
Flags: W
LayerCount: 2
UndoRedoHistory
Layer: 1
Undoes
EndUndoes
Redoes
EndRedoes
EndUndoRedoHistory
Fore
SplineSet
548 327 m 1,0,-1
 57 612 l 1,1,-1
 57 887 l 1,2,-1
 548 1158 l 1,3,-1
 548 890 l 1,4,-1
 236 749 l 1,5,-1
 548 599 l 1,6,-1
 548 327 l 1,0,-1
EndSplineSet
EndChar

StartChar: guilsinglright
Encoding: 8250 8250 409
Width: 727
Flags: W
LayerCount: 2
UndoRedoHistory
Layer: 1
Undoes
EndUndoes
Redoes
EndRedoes
EndUndoRedoHistory
Fore
SplineSet
139 327 m 1,0,-1
 139 599 l 1,1,-1
 451 749 l 1,2,-1
 139 890 l 1,3,-1
 139 1158 l 1,4,-1
 630 887 l 1,5,-1
 630 612 l 1,6,-1
 139 327 l 1,0,-1
EndSplineSet
EndChar

StartChar: fraction
Encoding: 8260 8260 410
Width: 829
Flags: W
LayerCount: 2
UndoRedoHistory
Layer: 1
Undoes
EndUndoes
Redoes
EndRedoes
EndUndoRedoHistory
Fore
SplineSet
57 0 m 1,0,-1
 526 1767 l 1,1,-1
 746 1767 l 1,2,-1
 276 0 l 1,3,-1
 57 0 l 1,0,-1
EndSplineSet
EndChar

StartChar: uni2074
Encoding: 8308 8308 411
Width: 852
Flags: W
LayerCount: 2
UndoRedoHistory
Layer: 1
Undoes
EndUndoes
Redoes
EndRedoes
EndUndoRedoHistory
Fore
SplineSet
477 605 m 1,0,-1
 477 811 l 1,1,-1
 150 811 l 1,2,-1
 150 940 l 1,3,-1
 399 1761 l 1,4,-1
 662 1761 l 1,5,-1
 662 960 l 1,6,-1
 736 960 l 1,7,-1
 736 811 l 1,8,-1
 662 811 l 1,9,-1
 662 605 l 1,10,-1
 477 605 l 1,0,-1
322 960 m 1,11,-1
 477 960 l 1,12,-1
 477 1519 l 1,13,-1
 322 960 l 1,11,-1
EndSplineSet
EndChar

StartChar: Euro
Encoding: 8364 8364 412
Width: 1076
Flags: W
LayerCount: 2
UndoRedoHistory
Layer: 1
Undoes
EndUndoes
Redoes
EndRedoes
EndUndoRedoHistory
Fore
SplineSet
784 102.5 m 128,-1,1
 693 -20 693 -20 498 -20 c 128,-1,2
 303 -20 303 -20 206.5 110.5 c 128,-1,3
 110 241 110 241 110 486 c 2,4,-1
 110 725 l 1,5,-1
 23 725 l 1,6,-1
 23 869 l 1,7,-1
 110 869 l 1,8,-1
 110 966 l 1,9,-1
 23 966 l 1,10,-1
 23 1102 l 1,11,-1
 110 1102 l 1,12,-1
 110 1253 l 2,13,14
 110 1646 110 1646 316 1744 c 0,15,16
 392 1780 392 1780 500 1780 c 0,17,18
 871 1780 871 1780 871 1312 c 2,19,-1
 871 1070 l 1,20,-1
 612 1070 l 1,21,-1
 612 1295 l 2,22,23
 612 1431 612 1431 589 1489.5 c 128,-1,24
 566 1548 566 1548 499 1548 c 128,-1,25
 432 1548 432 1548 406 1486 c 128,-1,26
 380 1424 380 1424 380 1296 c 2,27,-1
 380 1102 l 1,28,-1
 548 1102 l 1,29,-1
 548 966 l 1,30,-1
 380 966 l 1,31,-1
 380 869 l 1,32,-1
 548 869 l 1,33,-1
 548 725 l 1,34,-1
 380 725 l 1,35,-1
 380 474 l 2,36,37
 380 332 380 332 405 271 c 128,-1,38
 430 210 430 210 496 210 c 128,-1,39
 562 210 562 210 587 272 c 128,-1,40
 612 334 612 334 612 477 c 2,41,-1
 612 729 l 1,42,-1
 875 729 l 1,43,-1
 875 480 l 2,44,0
 875 225 875 225 784 102.5 c 128,-1,1
EndSplineSet
EndChar

StartChar: trademark
Encoding: 8482 8482 413
Width: 1676
Flags: W
LayerCount: 2
UndoRedoHistory
Layer: 1
Undoes
EndUndoes
Redoes
EndRedoes
EndUndoRedoHistory
Fore
SplineSet
694 507 m 1,0,-1
 694 1761 l 1,1,-1
 981 1761 l 1,2,-1
 1129 883 l 1,3,-1
 1273 1761 l 1,4,-1
 1561 1761 l 1,5,-1
 1561 507 l 1,6,-1
 1373 507 l 1,7,-1
 1373 996 l 1,8,-1
 1380 1469 l 1,9,-1
 1223 507 l 1,10,-1
 1038 507 l 1,11,-1
 873 1469 l 1,12,-1
 880 996 l 1,13,-1
 880 507 l 1,14,-1
 694 507 l 1,0,-1
231 507 m 1,15,-1
 231 1592 l 1,16,-1
 82 1592 l 1,17,-1
 82 1761 l 1,18,-1
 572 1761 l 1,19,-1
 572 1592 l 1,20,-1
 429 1592 l 1,21,-1
 429 507 l 1,22,-1
 231 507 l 1,15,-1
EndSplineSet
EndChar

StartChar: partialdiff
Encoding: 8706 8706 414
Width: 1072
Flags: W
LayerCount: 2
UndoRedoHistory
Layer: 1
Undoes
EndUndoes
Redoes
EndRedoes
EndUndoRedoHistory
Fore
SplineSet
721 1304 m 0,0,1
 721 1480 721 1480 548 1480 c 0,2,3
 489 1480 489 1480 373 1456 c 1,4,-1
 339 1617 l 1,5,6
 472 1655 472 1655 575.5 1655 c 128,-1,7
 679 1655 679 1655 756.5 1622 c 128,-1,8
 834 1589 834 1589 882.5 1509.5 c 128,-1,9
 931 1430 931 1430 931 1295 c 0,10,11
 931 1232 931 1232 920 1159 c 2,12,-1
 780 246 l 2,13,14
 751 54 751 54 559 -9 c 0,15,16
 506 -26 506 -26 450 -26 c 0,17,18
 333 -26 333 -26 248 55 c 128,-1,19
 163 136 163 136 163 284 c 0,20,21
 163 313 163 313 168.5 352 c 128,-1,22
 174 391 174 391 183 469.5 c 128,-1,23
 192 548 192 548 196 578.5 c 128,-1,24
 200 609 200 609 208 664.5 c 128,-1,25
 216 720 216 720 223 749 c 128,-1,26
 230 778 230 778 241.5 823.5 c 128,-1,27
 253 869 253 869 265.5 894 c 128,-1,28
 278 919 278 919 295 951.5 c 128,-1,29
 312 984 312 984 332.5 1001.5 c 128,-1,30
 353 1019 353 1019 389.5 1043.5 c 128,-1,31
 426 1068 426 1068 504.5 1068 c 128,-1,32
 583 1068 583 1068 685 1034 c 1,33,-1
 719 1265 l 2,34,35
 721 1285 721 1285 721 1304 c 0,0,1
647 879 m 1,36,37
 594 901 594 901 554 901 c 0,38,39
 473 901 473 901 450 745 c 2,40,-1
 392 357 l 1,41,42
 386 299 386 299 386 263 c 0,43,44
 386 175 386 175 459 175 c 0,45,46
 547 175 547 175 560 301 c 1,47,-1
 647 879 l 1,36,37
EndSplineSet
EndChar

StartChar: product
Encoding: 8719 8719 415
Width: 1033
Flags: W
LayerCount: 2
UndoRedoHistory
Layer: 1
Undoes
EndUndoes
Redoes
EndRedoes
EndUndoRedoHistory
Fore
SplineSet
136 0 m 1,0,-1
 136 1761 l 1,1,-1
 896 1761 l 1,2,-1
 896 0 l 1,3,-1
 634 0 l 1,4,-1
 634 1543 l 1,5,-1
 399 1543 l 1,6,-1
 399 0 l 1,7,-1
 136 0 l 1,0,-1
EndSplineSet
EndChar

StartChar: summation
Encoding: 8721 8721 416
Width: 814
Flags: W
LayerCount: 2
UndoRedoHistory
Layer: 1
Undoes
EndUndoes
Redoes
EndRedoes
EndUndoRedoHistory
Fore
SplineSet
114 0 m 1,0,-1
 114 221 l 1,1,-1
 389 881 l 1,2,-1
 114 1555 l 1,3,-1
 114 1761 l 1,4,-1
 711 1761 l 1,5,-1
 711 1551 l 1,6,-1
 387 1551 l 1,7,-1
 646 880 l 1,8,-1
 387 225 l 1,9,-1
 711 225 l 1,10,-1
 711 0 l 1,11,-1
 114 0 l 1,0,-1
EndSplineSet
EndChar

StartChar: minus
Encoding: 8722 8722 417
Width: 637
Flags: W
LayerCount: 2
UndoRedoHistory
Layer: 1
Undoes
EndUndoes
Redoes
EndRedoes
EndUndoRedoHistory
Fore
SplineSet
60 509 m 1,0,-1
 60 741 l 1,1,-1
 576 741 l 1,2,-1
 576 509 l 1,3,-1
 60 509 l 1,0,-1
EndSplineSet
EndChar

StartChar: uni2215
Encoding: 8725 8725 418
Width: 829
Flags: W
LayerCount: 2
UndoRedoHistory
Layer: 1
Undoes
EndUndoes
Redoes
EndRedoes
EndUndoRedoHistory
Fore
SplineSet
57 0 m 1,0,-1
 526 1767 l 1,1,-1
 746 1767 l 1,2,-1
 276 0 l 1,3,-1
 57 0 l 1,0,-1
EndSplineSet
EndChar

StartChar: radical
Encoding: 8730 8730 419
Width: 1267
Flags: W
LayerCount: 2
UndoRedoHistory
Layer: 1
Undoes
EndUndoes
Redoes
EndRedoes
EndUndoRedoHistory
Fore
SplineSet
288 0 m 1,0,-1
 99 741 l 1,1,-1
 358 741 l 1,2,-1
 432 288 l 1,3,-1
 660 1500 l 1,4,-1
 1172 1500 l 1,5,-1
 1172 1300 l 1,6,-1
 876 1300 l 1,7,-1
 612 0 l 1,8,-1
 288 0 l 1,0,-1
EndSplineSet
EndChar

StartChar: infinity
Encoding: 8734 8734 420
Width: 1300
Flags: W
LayerCount: 2
UndoRedoHistory
Layer: 1
Undoes
EndUndoes
Redoes
EndRedoes
EndUndoRedoHistory
Fore
SplineSet
912 439 m 0,0,1
 753 439 753 439 639 585 c 1,2,3
 591 531 591 531 519 491.5 c 128,-1,4
 447 452 447 452 370 452 c 0,5,6
 242 452 242 452 175 529 c 128,-1,7
 108 606 108 606 108 742 c 128,-1,8
 108 878 108 878 176 953 c 128,-1,9
 244 1028 244 1028 377.5 1028 c 128,-1,10
 511 1028 511 1028 639 885 c 1,11,12
 765 1041 765 1041 903.5 1041 c 128,-1,13
 1042 1041 1042 1041 1112 962 c 128,-1,14
 1182 883 1182 883 1182 742.5 c 128,-1,15
 1182 602 1182 602 1112.5 520.5 c 128,-1,16
 1043 439 1043 439 912 439 c 0,0,1
577 740 m 1,17,18
 506 810 506 810 425 810 c 128,-1,19
 344 810 344 810 344 739.5 c 128,-1,20
 344 669 344 669 423.5 669 c 128,-1,21
 503 669 503 669 577 740 c 1,17,18
701 740 m 1,22,23
 772 669 772 669 860 669 c 128,-1,24
 948 669 948 669 948 740 c 128,-1,25
 948 811 948 811 863 811 c 128,-1,26
 778 811 778 811 701 740 c 1,22,23
EndSplineSet
EndChar

StartChar: integral
Encoding: 8747 8747 421
Width: 767
Flags: W
LayerCount: 2
UndoRedoHistory
Layer: 1
Undoes
EndUndoes
Redoes
EndRedoes
EndUndoRedoHistory
Fore
SplineSet
510 221 m 2,0,1
 510 -17 510 -17 290 -17 c 0,2,3
 193 -17 193 -17 115 8 c 1,4,-1
 115 186 l 1,5,6
 153 182 153 182 163 182 c 0,7,8
 222 182 222 182 238 207 c 128,-1,9
 254 232 254 232 254 305 c 2,10,-1
 254 1539 l 2,11,12
 254 1783 254 1783 469 1783 c 0,13,14
 569 1783 569 1783 652 1752 c 1,15,-1
 652 1574 l 1,16,17
 602 1587 602 1587 570 1587 c 0,18,19
 510 1587 510 1587 510 1484 c 2,20,-1
 510 221 l 2,0,1
EndSplineSet
EndChar

StartChar: approxequal
Encoding: 8776 8776 422
Width: 1117
Flags: W
LayerCount: 2
UndoRedoHistory
Layer: 1
Undoes
EndUndoes
Redoes
EndRedoes
EndUndoRedoHistory
Fore
SplineSet
568.5 378.5 m 128,-1,1
 424 431 424 431 370 431 c 128,-1,2
 316 431 316 431 277 338 c 1,3,-1
 105 419 l 1,4,5
 186 686 186 686 352 686 c 0,6,7
 409 686 409 686 558.5 637.5 c 128,-1,8
 708 589 708 589 722 589 c 0,9,10
 794 589 794 589 827 700 c 1,11,-1
 1014 658 l 1,12,13
 994 579 994 579 947 492 c 0,14,15
 856 326 856 326 771 326 c 0,16,0
 713 326 713 326 568.5 378.5 c 128,-1,1
568.5 871.5 m 128,-1,18
 424 924 424 924 370 924 c 128,-1,19
 316 924 316 924 277 831 c 1,20,-1
 105 912 l 1,21,22
 186 1179 186 1179 352 1179 c 0,23,24
 409 1179 409 1179 558.5 1130.5 c 128,-1,25
 708 1082 708 1082 722 1082 c 0,26,27
 794 1082 794 1082 827 1193 c 1,28,-1
 1014 1151 l 1,29,30
 994 1072 994 1072 947 985 c 0,31,32
 856 819 856 819 771 819 c 0,33,17
 713 819 713 819 568.5 871.5 c 128,-1,18
EndSplineSet
EndChar

StartChar: notequal
Encoding: 8800 8800 423
Width: 884
Flags: W
LayerCount: 2
UndoRedoHistory
Layer: 1
Undoes
EndUndoes
Redoes
EndRedoes
EndUndoRedoHistory
Fore
SplineSet
154 0 m 1,0,-1
 255 559 l 1,1,-1
 103 559 l 1,2,-1
 103 791 l 1,3,-1
 297 791 l 1,4,-1
 325 942 l 1,5,-1
 103 942 l 1,6,-1
 103 1166 l 1,7,-1
 365 1166 l 1,8,-1
 474 1765 l 1,9,-1
 723 1765 l 1,10,-1
 611 1166 l 1,11,-1
 782 1166 l 1,12,-1
 782 942 l 1,13,-1
 569 942 l 1,14,-1
 540 791 l 1,15,-1
 782 791 l 1,16,-1
 782 559 l 1,17,-1
 497 559 l 1,18,-1
 392 0 l 1,19,-1
 154 0 l 1,0,-1
EndSplineSet
EndChar

StartChar: lessequal
Encoding: 8804 8804 424
Width: 781
Flags: W
LayerCount: 2
UndoRedoHistory
Layer: 1
Undoes
EndUndoes
Redoes
EndRedoes
EndUndoRedoHistory
Fore
SplineSet
656 286 m 1,0,-1
 82 655 l 1,1,-1
 82 947 l 1,2,-1
 656 1312 l 1,3,-1
 656 1037 l 1,4,-1
 259 801 l 1,5,-1
 656 558 l 1,6,-1
 656 286 l 1,0,-1
112 0 m 1,7,-1
 112 179 l 1,8,-1
 642 179 l 1,9,-1
 642 0 l 1,10,-1
 112 0 l 1,7,-1
EndSplineSet
EndChar

StartChar: greaterequal
Encoding: 8805 8805 425
Width: 781
Flags: W
LayerCount: 2
UndoRedoHistory
Layer: 1
Undoes
EndUndoes
Redoes
EndRedoes
EndUndoRedoHistory
Fore
SplineSet
107 286 m 1,0,-1
 107 558 l 1,1,-1
 503 801 l 1,2,-1
 107 1037 l 1,3,-1
 107 1312 l 1,4,-1
 681 947 l 1,5,-1
 681 655 l 1,6,-1
 107 286 l 1,0,-1
118 0 m 1,7,-1
 118 179 l 1,8,-1
 649 179 l 1,9,-1
 649 0 l 1,10,-1
 118 0 l 1,7,-1
EndSplineSet
EndChar

StartChar: lozenge
Encoding: 9674 9674 426
Width: 921
Flags: W
LayerCount: 2
UndoRedoHistory
Layer: 1
Undoes
EndUndoes
Redoes
EndRedoes
EndUndoRedoHistory
Fore
SplineSet
443 179 m 1,0,-1
 475 179 l 1,1,-1
 609 713 l 1,2,-1
 475 1247 l 1,3,-1
 443 1247 l 1,4,-1
 309 713 l 1,5,-1
 443 179 l 1,0,-1
277 0 m 1,6,-1
 34 713 l 1,7,-1
 277 1436 l 1,8,-1
 648 1436 l 1,9,-1
 887 713 l 1,10,-1
 648 0 l 1,11,-1
 277 0 l 1,6,-1
EndSplineSet
EndChar

StartChar: uniFB00
Encoding: 64256 64256 428
Width: 1274
Flags: W
LayerCount: 2
UndoRedoHistory
Layer: 1
Undoes
EndUndoes
Redoes
EndRedoes
EndUndoRedoHistory
Fore
SplineSet
1227 1759 m 1,0,-1
 1227 1593 l 1,1,2
 1198 1597 1198 1597 1158 1597 c 0,3,4
 1076 1597 1076 1597 1075 1511 c 1,5,-1
 1075 1441 l 1,6,-1
 1227 1441 l 1,7,-1
 1227 1250 l 1,8,-1
 1075 1250 l 1,9,-1
 1075 0 l 1,10,-1
 810 0 l 1,11,-1
 810 1250 l 1,12,-1
 438 1250 l 1,13,-1
 438 0 l 1,14,-1
 173 0 l 1,15,-1
 173 1250 l 1,16,-1
 57 1250 l 1,17,-1
 57 1441 l 1,18,-1
 174 1441 l 1,19,-1
 174 1519 l 2,20,21
 174 1645 174 1645 239.5 1714.5 c 128,-1,22
 305 1784 305 1784 414 1784 c 128,-1,23
 523 1784 523 1784 590 1759 c 1,24,-1
 590 1593 l 1,25,26
 560 1597 560 1597 520 1597 c 0,27,28
 438 1597 438 1597 438 1511 c 2,29,-1
 438 1441 l 1,30,-1
 811 1441 l 1,31,-1
 811 1519 l 2,32,33
 811 1645 811 1645 876.5 1714.5 c 128,-1,34
 942 1784 942 1784 1051 1784 c 128,-1,35
 1160 1784 1160 1784 1227 1759 c 1,0,-1
EndSplineSet
EndChar

StartChar: uniFB01
Encoding: 64257 64257 429
Width: 1171
Flags: W
LayerCount: 2
UndoRedoHistory
Layer: 1
Undoes
EndUndoes
Redoes
EndRedoes
EndUndoRedoHistory
Fore
SplineSet
438 1500 m 1,0,-1
 1038 1500 l 1,1,-1
 1038 0 l 1,2,-1
 773 0 l 1,3,-1
 773 1309 l 1,4,-1
 438 1309 l 1,5,-1
 438 0 l 1,6,-1
 173 0 l 1,7,-1
 173 1309 l 1,8,-1
 57 1309 l 1,9,-1
 57 1500 l 1,10,-1
 174 1500 l 1,11,-1
 174 1566 l 2,12,13
 174 1692 174 1692 239.5 1761.5 c 128,-1,14
 305 1831 305 1831 414 1831 c 128,-1,15
 523 1831 523 1831 590 1806 c 1,16,-1
 590 1640 l 1,17,18
 560 1644 560 1644 520 1644 c 0,19,20
 438 1644 438 1644 438 1558 c 2,21,-1
 438 1500 l 1,0,-1
773 1800 m 1,22,-1
 1038 1800 l 1,23,-1
 1038 1607 l 1,24,-1
 773 1607 l 1,25,-1
 773 1800 l 1,22,-1
EndSplineSet
EndChar

StartChar: uniFB02
Encoding: 64258 64258 430
Width: 1171
Flags: W
LayerCount: 2
UndoRedoHistory
Layer: 1
Undoes
EndUndoes
Redoes
EndRedoes
EndUndoRedoHistory
Fore
SplineSet
493 1798 m 0,0,1
 683 1798 683 1798 1036 1737 c 1,2,-1
 1036 0 l 1,3,-1
 772 0 l 1,4,-1
 772 1593 l 1,5,6
 642 1622 642 1622 586 1622 c 128,-1,7
 530 1622 530 1622 494 1612 c 0,8,9
 438 1596 438 1596 438 1533 c 2,10,-1
 438 1441 l 1,11,-1
 590 1441 l 1,12,-1
 590 1250 l 1,13,-1
 438 1250 l 1,14,-1
 438 0 l 1,15,-1
 173 0 l 1,16,-1
 173 1250 l 1,17,-1
 57 1250 l 1,18,-1
 57 1441 l 1,19,-1
 174 1441 l 1,20,-1
 174 1519 l 2,21,22
 174 1675 174 1675 225 1726 c 128,-1,23
 276 1777 276 1777 348 1787.5 c 128,-1,24
 420 1798 420 1798 493 1798 c 0,0,1
EndSplineSet
EndChar

StartChar: uniFB03
Encoding: 64259 64259 431
Width: 1808
Flags: W
LayerCount: 2
UndoRedoHistory
Layer: 1
Undoes
EndUndoes
Redoes
EndRedoes
EndUndoRedoHistory
Fore
SplineSet
1075 1500 m 1,0,-1
 1675 1500 l 1,1,-1
 1675 0 l 1,2,-1
 1410 0 l 1,3,-1
 1410 1309 l 1,4,-1
 1075 1309 l 1,5,-1
 1075 0 l 1,6,-1
 810 0 l 1,7,-1
 810 1309 l 1,8,-1
 438 1309 l 1,9,-1
 438 0 l 1,10,-1
 173 0 l 1,11,-1
 173 1309 l 1,12,-1
 57 1309 l 1,13,-1
 57 1500 l 1,14,-1
 174 1500 l 1,15,-1
 174 1571 l 2,16,17
 174 1697 174 1697 239.5 1766.5 c 128,-1,18
 305 1836 305 1836 414 1836 c 128,-1,19
 523 1836 523 1836 590 1811 c 1,20,-1
 590 1645 l 1,21,22
 560 1649 560 1649 520 1649 c 0,23,24
 438 1649 438 1649 438 1563 c 2,25,-1
 438 1500 l 1,26,-1
 811 1500 l 1,27,-1
 811 1571 l 2,28,29
 811 1697 811 1697 876.5 1766.5 c 128,-1,30
 942 1836 942 1836 1051 1836 c 128,-1,31
 1160 1836 1160 1836 1227 1811 c 1,32,-1
 1227 1645 l 1,33,34
 1198 1649 1198 1649 1158 1649 c 0,35,36
 1076 1649 1076 1649 1075 1563 c 1,37,-1
 1075 1500 l 1,0,-1
1410 1800 m 1,38,-1
 1675 1800 l 1,39,-1
 1675 1607 l 1,40,-1
 1410 1607 l 1,41,-1
 1410 1800 l 1,38,-1
EndSplineSet
EndChar

StartChar: uniFB04
Encoding: 64260 64260 432
Width: 1808
Flags: W
LayerCount: 2
UndoRedoHistory
Layer: 1
Undoes
EndUndoes
Redoes
EndRedoes
EndUndoRedoHistory
Fore
SplineSet
811 1441 m 1,0,-1
 811 1519 l 2,1,2
 811 1675 811 1675 862 1726 c 128,-1,3
 913 1777 913 1777 985 1787.5 c 128,-1,4
 1057 1798 1057 1798 1130 1798 c 0,5,6
 1320 1798 1320 1798 1673 1737 c 1,7,-1
 1673 0 l 1,8,-1
 1409 0 l 1,9,-1
 1409 1593 l 1,10,11
 1278 1622 1278 1622 1222.5 1622 c 128,-1,12
 1167 1622 1167 1622 1131 1612 c 0,13,14
 1075 1596 1075 1596 1075 1533 c 2,15,-1
 1075 1441 l 1,16,-1
 1227 1441 l 1,17,-1
 1227 1250 l 1,18,-1
 1075 1250 l 1,19,-1
 1075 0 l 1,20,-1
 810 0 l 1,21,-1
 810 1250 l 1,22,-1
 438 1250 l 1,23,-1
 438 0 l 1,24,-1
 173 0 l 1,25,-1
 173 1250 l 1,26,-1
 57 1250 l 1,27,-1
 57 1441 l 1,28,-1
 174 1441 l 1,29,-1
 174 1519 l 2,30,31
 174 1645 174 1645 239.5 1714.5 c 128,-1,32
 305 1784 305 1784 414 1784 c 128,-1,33
 523 1784 523 1784 590 1759 c 1,34,-1
 590 1593 l 1,35,36
 560 1597 560 1597 520 1597 c 0,37,38
 438 1597 438 1597 438 1511 c 2,39,-1
 438 1441 l 1,40,-1
 811 1441 l 1,0,-1
EndSplineSet
EndChar
